<?xml version="1.0" encoding="UTF-8"?>
<svg version="1.1" xmlns="http://www.w3.org/2000/svg" width="498" height="128">
<path d="M0 0 C3.63 0 7.26 0 11 0 C11.33 9.24 11.66 18.48 12 28 C17.82430915 21.75191046 17.82430915 21.75191046 23 15 C25.8203125 14.70703125 25.8203125 14.70703125 29.125 14.8125 C30.76855469 14.85310547 30.76855469 14.85310547 32.4453125 14.89453125 C33.70988281 14.94673828 33.70988281 14.94673828 35 15 C31.19695186 20.19210472 27.23841458 25.15609762 23 30 C25.50083828 34.58487018 28.24747732 38.92611454 31.15625 43.265625 C31.87619141 44.34102539 32.59613281 45.41642578 33.33789062 46.52441406 C33.88638672 47.34135742 34.43488281 48.15830078 35 49 C37.40372178 42.789031 39.80636429 36.57764531 42.20825195 30.3659668 C43.02571075 28.2522635 43.84341785 26.13865622 44.66137695 24.02514648 C45.83610058 20.98967204 47.00993489 17.95385501 48.18359375 14.91796875 C48.55028671 13.97100632 48.91697968 13.02404388 49.29478455 12.04838562 C49.6350618 11.16769913 49.97533905 10.28701263 50.32592773 9.37963867 C50.6257103 8.60464523 50.92549286 7.82965179 51.23435974 7.03117371 C51.86125747 5.36807127 52.43795814 3.68612557 53 2 C56.3 2 59.6 2 63 2 C66.62014206 9.81986351 69.68608861 17.82520881 72.74609375 25.87573242 C73.6273385 28.1936509 74.51259343 30.51000774 75.3984375 32.82617188 C75.9663809 34.31501452 76.53409719 35.80394382 77.1015625 37.29296875 C77.36305084 37.97747604 77.62453918 38.66198334 77.89395142 39.36723328 C79.35544617 43.21714995 80.72663583 47.08385469 82 51 C78.37 51 74.74 51 71 51 C67 42.375 67 42.375 67 39 C61.39 39 55.78 39 50 39 C49.525625 40.794375 49.05125 42.58875 48.5625 44.4375 C47.125 49.875 47.125 49.875 46 51 C28.0697647 53.85853818 28.0697647 53.85853818 22.17724609 49.71972656 C19.15522553 46.26509526 17.47857675 42.3056155 16 38 C13.94511644 38.5882524 13.94511644 38.5882524 12 40 C11.29626983 42.64787088 11.29626983 42.64787088 11.25 45.625 C11.1675 47.39875 11.085 49.1725 11 51 C7.37 51 3.74 51 0 51 C0 34.17 0 17.34 0 0 Z M58 15 C56.02 20.61 54.04 26.22 52 32 C55.96 32 59.92 32 64 32 C62.7915371 26.05064416 61.25422333 20.63555833 59 15 C58.67 15 58.34 15 58 15 Z " fill="#243236" transform="translate(258,42)"/>
<path d="M0 0 C2.1892074 1.86082629 3.73389911 3.95871421 5.25 6.375 C5.78367187 7.22191406 5.78367187 7.22191406 6.328125 8.0859375 C7.26968695 10.76829421 6.75075772 12.25624271 6 15 C4.91648376 17.12775566 3.75134723 19.21472442 2.53515625 21.26953125 C2.18603683 21.86330063 1.83691742 22.45707001 1.47721863 23.0688324 C0.34614305 24.98772944 -0.79536018 26.90017153 -1.9375 28.8125 C-2.71754322 30.13028485 -3.49716445 31.44831957 -4.27636719 32.76660156 C-8.70349498 40.23818248 -13.17780442 47.68049813 -17.86694336 54.99145508 C-20.78420872 59.55200299 -23.40911518 64.24959795 -26 69 C-25.30438965 68.94763184 -24.6087793 68.89526367 -23.89208984 68.84130859 C-20.72065712 68.63262695 -17.55066236 68.5031986 -14.375 68.375 C-13.28058594 68.29121094 -12.18617187 68.20742187 -11.05859375 68.12109375 C-7.76093333 68.02116465 -5.16620383 68.05272949 -2 69 C0.59545697 71.74664864 4 75.99058467 4 80 C-13.16 80 -30.32 80 -48 80 C-39.17903695 62.35807389 -28.42179539 45.63788087 -18.12133789 28.83007812 C-16.97793809 26.96399388 -15.83555818 25.09728831 -14.69335938 23.23046875 C-12.46507542 19.58940289 -10.23315265 15.95058121 -8 12.3125 C-7.31131836 11.18948486 -6.62263672 10.06646973 -5.91308594 8.90942383 C-4.9661084 7.37064575 -4.9661084 7.37064575 -4 5.80078125 C-3.443125 4.89497314 -2.88625 3.98916504 -2.3125 3.0559082 C-1 1 -1 1 0 0 Z " fill="#9758F7" transform="translate(77,12)"/>
<path d="M0 0 C2.51786079 2.30435661 4.14498404 4.70258671 5.85546875 7.6484375 C6.39212158 8.5657666 6.92877441 9.4830957 7.48168945 10.42822266 C8.04460693 11.40065918 8.60752441 12.3730957 9.1875 13.375 C13.81111745 21.3488099 13.81111745 21.3488099 18.6328125 29.203125 C19.19512573 30.08991943 19.19512573 30.08991943 19.76879883 30.99462891 C20.74134867 32.51385414 21.72380793 34.02672312 22.70703125 35.5390625 C24 38 24 38 24 42 C1.76560971 42.15498503 -20.45697608 41.89361751 -42.6875 41.5 C-43.36305058 41.48804218 -44.03860115 41.47608437 -44.73462296 41.46376419 C-53.15650937 41.31422301 -61.57829651 41.15951337 -70 41 C-70 36.79798294 -68.65419343 34.38896742 -66.27532959 30.97146606 C-61.48881469 26.82417604 -54.76610427 27.79551668 -48.7578125 27.90234375 C-47.2642115 27.89668653 -45.77062071 27.88707016 -44.27706909 27.87367249 C-40.36037052 27.84911272 -36.44585371 27.87809212 -32.52935791 27.91845703 C-28.52730944 27.95015401 -24.52553584 27.93090227 -20.5234375 27.91601562 C-12.68167074 27.8943166 -4.84147482 27.92920924 3 28 C2.21740486 26.57873309 1.43324222 25.15832925 0.6484375 23.73828125 C-0.00632568 22.55165894 -0.00632568 22.55165894 -0.67431641 21.34106445 C-1.50397396 19.87594727 -2.35936303 18.42478079 -3.25146484 16.99682617 C-6.05867488 12.47613222 -6.05867488 12.47613222 -5.76171875 10.06640625 C-4.90227773 7.73489702 -3.79104894 5.83238299 -2.4375 3.75 C-1.98246094 3.04359375 -1.52742188 2.3371875 -1.05859375 1.609375 C-0.53458984 0.81273438 -0.53458984 0.81273438 0 0 Z " fill="#FB8E73" transform="translate(89,70)"/>
<path d="M0 0 C3.11946203 2.89600364 5.26988604 5.80976345 7.42578125 9.47265625 C8.37420898 11.07077148 8.37420898 11.07077148 9.34179688 12.70117188 C9.99212891 13.81041016 10.64246094 14.91964844 11.3125 16.0625 C12.59877224 18.24176447 13.88652376 20.42015653 15.17578125 22.59765625 C15.81080566 23.67031738 16.44583008 24.74297852 17.10009766 25.84814453 C18.90823076 28.84775882 20.77230285 31.80121552 22.66796875 34.74609375 C25.15578456 38.61940048 27.45092543 42.54218846 29.65087891 46.58398438 C33.15890783 52.86618746 36.99346802 58.96913912 40.73632812 65.11328125 C41.38408203 66.18449219 42.03183594 67.25570312 42.69921875 68.359375 C43.28533936 69.32327148 43.87145996 70.28716797 44.4753418 71.28027344 C45.89122622 73.80596639 46.99750404 76.28761783 48 79 C43.14841411 79.74416841 38.82825175 79.9959856 34 79 C30.19544 75.6139492 28.16501778 71.38106853 25.9375 66.875 C25.27861114 65.64393219 24.61414591 64.41583385 23.94433594 63.19067383 C22.58627898 60.69428346 21.2550648 58.1863098 19.94287109 55.66552734 C17.08627086 50.2184187 13.91139205 44.96147675 10.75 39.6875 C9.72384332 37.94147384 8.69779379 36.1953847 7.671875 34.44921875 C5.55604281 30.88417618 3.34297632 27.41962973 1 24 C-2.0869436 26.69986604 -3.99476277 30.07535132 -6.0625 33.5625 C-9.74493243 39.74493243 -9.74493243 39.74493243 -12 42 C-14.8203125 42.1953125 -14.8203125 42.1953125 -18.125 42.125 C-19.22070312 42.10695312 -20.31640625 42.08890625 -21.4453125 42.0703125 C-22.28835937 42.04710937 -23.13140625 42.02390625 -24 42 C-23.43331287 38.40600024 -22.52298621 35.79833454 -20.62890625 32.69921875 C-20.14139893 31.89395752 -19.6538916 31.08869629 -19.15161133 30.2590332 C-18.36500122 28.98612427 -18.36500122 28.98612427 -17.5625 27.6875 C-17.02842529 26.8111792 -16.49435059 25.9348584 -15.9440918 25.03198242 C-14.30491379 22.3490948 -12.65428158 19.6735964 -11 17 C-10.49533203 16.18176758 -9.99066406 15.36353516 -9.47070312 14.52050781 C-1.3187974 1.3187974 -1.3187974 1.3187974 0 0 Z " fill="#139CF7" transform="translate(89,32)"/>
<path d="M0 0 C3.63 0 7.26 0 11 0 C11.33 9.24 11.66 18.48 12 28 C17.82430915 21.75191046 17.82430915 21.75191046 23 15 C25.8203125 14.70703125 25.8203125 14.70703125 29.125 14.8125 C30.76855469 14.85310547 30.76855469 14.85310547 32.4453125 14.89453125 C33.70988281 14.94673828 33.70988281 14.94673828 35 15 C31.19695186 20.19210472 27.23841458 25.15609762 23 30 C25.94384297 35.50370641 29.40068304 40.55608002 33.00170898 45.64331055 C36 49.9002207 36 49.9002207 36 51 C31.7584901 51.82709443 28.20077449 52.13215995 24 51 C20.47351106 47.04071469 18.2337737 42.78290369 16 38 C13.94511644 38.5882524 13.94511644 38.5882524 12 40 C11.29626983 42.64787088 11.29626983 42.64787088 11.25 45.625 C11.1675 47.39875 11.085 49.1725 11 51 C7.37 51 3.74 51 0 51 C0 34.17 0 17.34 0 0 Z " fill="#010101" transform="translate(258,42)"/>
<path d="M0 0 C4.31633181 3.18586395 7.91120739 6.79612218 9.625 11.9375 C9.625 14.9075 9.625 17.8775 9.625 20.9375 C0.385 20.9375 -8.855 20.9375 -18.375 20.9375 C-15.24324314 26.71010299 -15.24324314 26.71010299 -12.375 27.9375 C-7.55491201 28.4561964 -7.55491201 28.4561964 -3.4375 26.375 C-0.91856709 24.61938009 -0.09523144 24.86506633 2.875 25.25 C4.1125 25.476875 5.35 25.70375 6.625 25.9375 C6.625 29.9375 6.625 29.9375 4.4375 32.5625 C-0.92472044 37.09059726 -5.68410998 37.3211449 -12.5 37.1875 C-17.47051415 36.75528138 -20.2393539 34.83545273 -24.0625 31.8125 C-28.06153997 26.84072058 -29.75452981 21.64326046 -29.3125 15.25 C-28.15420188 8.16466577 -23.90720517 4.05722726 -18.375 -0.0625 C-12.52719658 -2.01176781 -5.85288508 -1.84257493 0 0 Z M-15.8125 8.75 C-17.53965744 10.94132924 -17.53965744 10.94132924 -18.375 13.9375 C-12.435 13.9375 -6.495 13.9375 -0.375 13.9375 C-2.93035135 9.22045823 -2.93035135 9.22045823 -5.375 6.9375 C-11.00939043 6.280663 -11.00939043 6.280663 -15.8125 8.75 Z " fill="#253237" transform="translate(448.375,57.0625)"/>
<path d="M0 0 C2.97 0 5.94 0 9 0 C9.33 1.32 9.66 2.64 10 4 C11.11375 3.34 12.2275 2.68 13.375 2 C18.19362583 -0.38791582 22.70023179 -1.08362958 28 0 C30.82424288 2.19022918 32.41508603 3.83017207 34 7 C34.08573394 9.25120742 34.10712188 11.50499303 34.09765625 13.7578125 C34.0962413 14.42086395 34.09482635 15.08391541 34.09336853 15.76705933 C34.08776754 17.88641863 34.075215 20.00567259 34.0625 22.125 C34.05748512 23.56119639 34.05292219 24.99739444 34.04882812 26.43359375 C34.03779782 29.95576345 34.02053259 33.47787145 34 37 C30.7 37 27.4 37 24 37 C23.98018066 36.25314941 23.96036133 35.50629883 23.93994141 34.73681641 C23.84491789 31.36584395 23.73514741 27.99551071 23.625 24.625 C23.5940625 23.449375 23.563125 22.27375 23.53125 21.0625 C23.49257812 19.94101563 23.45390625 18.81953125 23.4140625 17.6640625 C23.36693115 16.10872803 23.36693115 16.10872803 23.31884766 14.52197266 C23.24045528 11.83190165 23.24045528 11.83190165 21 10 C18.62875402 9.41511438 18.62875402 9.41511438 16 10 C12.96760369 12.10909952 11.24452887 13.78024523 10.50415039 17.47338867 C10.28347379 20.42790389 10.2045591 23.34990234 10.1875 26.3125 C10.16236328 27.33923828 10.13722656 28.36597656 10.11132812 29.42382812 C10.05260765 31.94880868 10.02340447 34.47444518 10 37 C6.7 37 3.4 37 0 37 C0 24.79 0 12.58 0 0 Z " fill="#010101" transform="translate(217,56)"/>
<path d="M0 0 C3.63 0 7.26 0 11 0 C11 13.2 11 26.4 11 40 C18.92 40 26.84 40 35 40 C36 47 36 47 35 49 C23.45 49 11.9 49 0 49 C0 32.83 0 16.66 0 0 Z " fill="#010101" transform="translate(160,44)"/>
<path d="M0 0 C2.18359375 1.10546875 2.18359375 1.10546875 5.43359375 3.10546875 C4.82081763 6.06721998 4.17986853 7.48605658 2.43359375 10.10546875 C1.85351562 9.87730469 1.2734375 9.64914063 0.67578125 9.4140625 C-4.14096421 7.64156376 -7.45115142 6.66270457 -12.56640625 8.10546875 C-12.89640625 9.42546875 -13.22640625 10.74546875 -13.56640625 12.10546875 C-12.38884766 12.36070313 -12.38884766 12.36070313 -11.1875 12.62109375 C2.6020447 15.80199486 2.6020447 15.80199486 6.93359375 20.85546875 C7.72910263 24.43525869 7.62814687 27.66515575 6.43359375 31.10546875 C3.57322431 34.50789071 0.17603197 36.95297416 -4.2890625 37.34375 C-11.306616 37.49969563 -17.68714098 37.37221709 -23.56640625 33.10546875 C-24.06140625 31.62046875 -24.06140625 31.62046875 -24.56640625 30.10546875 C-23.12890625 27.41796875 -23.12890625 27.41796875 -21.56640625 25.10546875 C-20.74140625 25.39421875 -19.91640625 25.68296875 -19.06640625 25.98046875 C-12.12876885 28.64137622 -12.12876885 28.64137622 -5.06640625 28.23046875 C-4.57140625 27.85921875 -4.07640625 27.48796875 -3.56640625 27.10546875 C-3.56640625 26.44546875 -3.56640625 25.78546875 -3.56640625 25.10546875 C-4.65308594 24.72455078 -4.65308594 24.72455078 -5.76171875 24.3359375 C-21.19900966 18.84026194 -21.19900966 18.84026194 -23.56640625 14.10546875 C-24.1689882 10.55693061 -24.28019559 8.23900214 -22.32421875 5.1328125 C-16.64979841 -1.74142309 -8.48987643 -2.95918067 0 0 Z " fill="#253236" transform="translate(409.56640625,56.89453125)"/>
<path d="M0 0 C2.97 0 5.94 0 9 0 C9.66 1.32 10.32 2.64 11 4 C12.299375 3.01 12.299375 3.01 13.625 2 C17.21423463 -0.12695385 18.92694798 -0.38790972 23 0 C23 2.97 23 5.94 23 9 C22.38511719 9.18175781 21.77023437 9.36351563 21.13671875 9.55078125 C20.32847656 9.80214844 19.52023437 10.05351563 18.6875 10.3125 C17.88699219 10.55613281 17.08648437 10.79976562 16.26171875 11.05078125 C13.76982269 12.09660291 12.66901578 12.88794491 11 15 C10.49669238 17.41063442 10.49669238 17.41063442 10.48828125 20.10546875 C10.45283203 21.08837891 10.41738281 22.07128906 10.38085938 23.08398438 C10.34702148 24.62022461 10.34702148 24.62022461 10.3125 26.1875 C10.27833984 27.22326172 10.24417969 28.25902344 10.20898438 29.32617188 C10.12648241 31.88373264 10.06156544 34.44184963 10 37 C6.7 37 3.4 37 0 37 C0 24.79 0 12.58 0 0 Z " fill="#253237" transform="translate(343,56)"/>
<path d="M0 0 C1.42627942 0.0168032 2.85261107 0.02960632 4.27896118 0.03858948 C8.01879339 0.07282429 11.75543887 0.1611006 15.49401855 0.26092529 C19.3145842 0.35328459 23.13566913 0.39415844 26.95703125 0.43945312 C34.44415548 0.53574532 41.92866119 0.68917308 49.4140625 0.87890625 C49.4140625 1.20890625 49.4140625 1.53890625 49.4140625 1.87890625 C48.43010498 1.92901855 47.44614746 1.97913086 46.43237305 2.03076172 C42.78096648 2.21914306 39.13030031 2.41952524 35.47973633 2.62353516 C33.89983442 2.71014512 32.31975067 2.79350189 30.73950195 2.87353516 C28.46770432 2.98915916 26.19681823 3.11647814 23.92578125 3.24609375 C23.21943039 3.27951874 22.51307953 3.31294373 21.7853241 3.34738159 C18.18420544 3.56488243 16.4892822 3.82875978 13.4140625 5.87890625 C13.9090625 6.86890625 13.9090625 6.86890625 14.4140625 7.87890625 C14.0840625 8.53890625 13.7540625 9.19890625 13.4140625 9.87890625 C12.7540625 9.87890625 12.0940625 9.87890625 11.4140625 9.87890625 C11.4140625 10.53890625 11.4140625 11.19890625 11.4140625 11.87890625 C17.3540625 11.87890625 23.2940625 11.87890625 29.4140625 11.87890625 C29.4140625 12.20890625 29.4140625 12.53890625 29.4140625 12.87890625 C12.9140625 12.87890625 -3.5859375 12.87890625 -20.5859375 12.87890625 C-20.5859375 8.6712279 -19.20078667 6.25694184 -16.82098389 2.83694458 C-12.15306843 -1.25243693 -5.87178605 -0.20327076 0 0 Z " fill="#ED727F" transform="translate(39.5859375,98.12109375)"/>
<path d="M0 0 C0.8146875 0.00257812 1.629375 0.00515625 2.46875 0.0078125 C3.2834375 0.00523438 4.098125 0.00265625 4.9375 0 C6.96875 0.1328125 6.96875 0.1328125 7.96875 1.1328125 C8.05730161 3.7990728 8.08399673 6.43928364 8.06640625 9.10546875 C8.0649913 9.90311142 8.06357635 10.70075409 8.06211853 11.52256775 C8.05650316 14.08018685 8.04394812 16.63771968 8.03125 19.1953125 C8.02623698 20.92512895 8.02167373 22.65494676 8.01757812 24.38476562 C8.00652875 28.63414803 7.98925386 32.88346562 7.96875 37.1328125 C4.33875 37.1328125 0.70875 37.1328125 -3.03125 37.1328125 C-3.0559001 32.02417354 -3.07408607 26.91556891 -3.08618164 21.80688477 C-3.09122204 20.06762082 -3.0980543 18.32836114 -3.10668945 16.58911133 C-3.11876792 14.09455313 -3.12448108 11.60005077 -3.12890625 9.10546875 C-3.13406754 8.32317398 -3.13922882 7.54087921 -3.14454651 6.73487854 C-3.14474226 4.86714136 -3.09324694 2.99952046 -3.03125 1.1328125 C-2.03125 0.1328125 -2.03125 0.1328125 0 0 Z " fill="#000000" transform="translate(202.03125,55.8671875)"/>
<path d="M0 0 C3.3 0 6.6 0 10 0 C10 12.21 10 24.42 10 37 C6.7 37 3.4 37 0 37 C0 24.79 0 12.58 0 0 Z " fill="#273439" transform="translate(370,56)"/>
<path d="M0 0 C3.98030541 3.67645404 6.41905414 8.32994523 9.1875 12.9375 C9.74630859 13.84435547 10.30511719 14.75121094 10.88085938 15.68554688 C11.40873047 16.56146484 11.93660156 17.43738281 12.48046875 18.33984375 C12.96410889 19.13769287 13.44774902 19.93554199 13.94604492 20.75756836 C15 23 15 23 15 27 C6.75 26.67 -1.5 26.34 -10 26 C-10 25.34 -10 24.68 -10 24 C-8.02 24 -6.04 24 -4 24 C-4.185625 23.38125 -4.37125 22.7625 -4.5625 22.125 C-5 20 -5 20 -4 18 C-4.99 18 -5.98 18 -7 18 C-7 17.34 -7 16.68 -7 16 C-6.443125 15.773125 -5.88625 15.54625 -5.3125 15.3125 C-2.36753316 13.64103234 -0.31843456 11.44723648 2 9 C1.05270463 6.84188612 1.05270463 6.84188612 -1 5 C-0.625 2.375 -0.625 2.375 0 0 Z " fill="#FA9E6F" transform="translate(98,85)"/>
<path d="M0 0 C1.875 0.5625 1.875 0.5625 4 2 C5.25 5.625 5.25 5.625 6 9 C7.98 8.67 9.96 8.34 12 8 C11.67 7.67 11.34 7.34 11 7 C11.66 6.34 12.32 5.68 13 5 C13.16687448 2.41645782 13.16687448 2.41645782 13 0 C15.49391811 2.29521795 17.17354097 4.69835668 18.91796875 7.59765625 C19.71557617 8.92313477 19.71557617 8.92313477 20.52929688 10.27539062 C21.07650391 11.19513672 21.62371094 12.11488281 22.1875 13.0625 C22.74630859 13.98611328 23.30511719 14.90972656 23.88085938 15.86132812 C24.40873047 16.74369141 24.93660156 17.62605469 25.48046875 18.53515625 C25.96410889 19.343479 26.44774902 20.15180176 26.94604492 20.98461914 C28 23 28 23 28 25 C24.01616171 26.30776454 20.19235025 27.07825733 16.03710938 26.13232422 C8.17651121 21.76302241 3.60924047 8.8658895 0 1 C0 0.67 0 0.34 0 0 Z " fill="#159DF3" transform="translate(109,86)"/>
<path d="M0 0 C3.95329121 3.65560362 6.75013673 8.13032951 9 13 C8.875 16.625 8.875 16.625 8 19 C6.68 19 5.36 19 4 19 C4 19.99 4 20.98 4 22 C3.34 22 2.68 22 2 22 C1.67 22.66 1.34 23.32 1 24 C-0.20253816 22.09273249 -1.38658949 20.1737988 -2.5625 18.25 C-3.55443359 16.64898437 -3.55443359 16.64898437 -4.56640625 15.015625 C-6 12 -6 12 -5.875 9.875 C-4.86767698 7.71645066 -3.7360861 5.74782477 -2.4375 3.75 C-1.98246094 3.04359375 -1.52742188 2.3371875 -1.05859375 1.609375 C-0.53458984 0.81273438 -0.53458984 0.81273438 0 0 Z " fill="#F77F76" transform="translate(89,70)"/>
<path d="M0 0 C3.63 0 7.26 0 11 0 C11 3.3 11 6.6 11 10 C7.37 10 3.74 10 0 10 C0 6.7 0 3.4 0 0 Z " fill="#010101" transform="translate(199,42)"/>
<path d="M0 0 C3.3 0 6.6 0 10 0 C10 3.3 10 6.6 10 10 C6.7 10 3.4 10 0 10 C0 6.7 0 3.4 0 0 Z " fill="#28343A" transform="translate(370,42)"/>
<path d="M0 0 C-0.28597532 3.64618538 -0.81640557 6.58909819 -2.3125 9.9375 C-6.70821285 13.31095405 -11.65629204 12.37809254 -17 12 C-16.27031096 7.49128985 -14.67844067 4.71525641 -12 1 C-11.67 1.66 -11.34 2.32 -11 3 C-11.93446535 5.03144641 -12.93224776 7.03533587 -14 9 C-9.69159287 7.92289822 -6.36423277 6.96052484 -3 4 C-3.99 4 -4.98 4 -6 4 C-6 3.34 -6 2.68 -6 2 C-3 0 -3 0 0 0 Z " fill="#2C94E2" transform="translate(82,62)"/>
<path d="M0 0 C2.29296875 -0.30859375 2.29296875 -0.30859375 5 0 C6.80078125 2.15234375 6.80078125 2.15234375 8.3125 4.9375 C8.82425781 5.85402344 9.33601563 6.77054687 9.86328125 7.71484375 C11 10 11 10 11 11 C-6.16 11 -23.32 11 -41 11 C-39 7 -39 7 -37 5 C-36.67 6.32 -36.34 7.64 -36 9 C-21.81 9 -7.62 9 7 9 C7 8.01 7 7.02 7 6 C6.34 6 5.68 6 5 6 C5 4.68 5 3.36 5 2 C3.35 2 1.7 2 0 2 C0 1.34 0 0.68 0 0 Z " fill="#9764E0" transform="translate(70,81)"/>
<path d="M0 0 C0.99 0.33 1.98 0.66 3 1 C2.67 1.99 2.34 2.98 2 4 C1.34 4 0.68 4 0 4 C0 4.66 0 5.32 0 6 C5.94 6 11.88 6 18 6 C18 6.33 18 6.66 18 7 C1.5 7 -15 7 -32 7 C-32 6.01 -32 5.02 -32 4 C-31.67 4.66 -31.34 5.32 -31 6 C-30.319375 5.9278125 -29.63875 5.855625 -28.9375 5.78125 C-20.26978147 4.95136206 -11.69541586 4.90068687 -3 5 C-2.67 4.01 -2.34 3.02 -2 2 C-1.34 2 -0.68 2 0 2 C0 1.34 0 0.68 0 0 Z " fill="#E68385" transform="translate(51,104)"/>
<path d="M0 0 C2.77644205 2.32862881 3.90344946 3.62122481 4.8125 7.1875 C4.874375 8.115625 4.93625 9.04375 5 10 C4.67 10.33 4.34 10.66 4 11 C3.67 11.66 3.34 12.32 3 13 C0 14 0 14 -3 13 C-2.67 10.03 -2.34 7.06 -2 4 C-2.66 4 -3.32 4 -4 4 C-4 3.34 -4 2.68 -4 2 C-2.68 1.34 -1.36 0.68 0 0 Z " fill="#109EFB" transform="translate(118,82)"/>
<path d="M0 0 C1.32 0 2.64 0 4 0 C3.67 1.65 3.34 3.3 3 5 C2.34 5 1.68 5 1 5 C1 5.66 1 6.32 1 7 C1.99 7 2.98 7 4 7 C3.67 7.99 3.34 8.98 3 10 C2.34 10 1.68 10 1 10 C-0.62514468 11.45833358 -0.62514468 11.45833358 -2 13 C-2 12.34 -2 11.68 -2 11 C-3.65 11.33 -5.3 11.66 -7 12 C-5.125 6.25 -5.125 6.25 -4 4 C-3.34 4 -2.68 4 -2 4 C-1.34 2.68 -0.68 1.36 0 0 Z " fill="#1199FB" transform="translate(75,59)"/>
<path d="M0 0 C0.99 0.33 1.98 0.66 3 1 C3 1.99 3 2.98 3 4 C4.98 4 6.96 4 9 4 C8.67 4.99 8.34 5.98 8 7 C11.3 7 14.6 7 18 7 C18.33 7.99 18.66 8.98 19 10 C14.38 10 9.76 10 5 10 C3.35 6.7 1.7 3.4 0 0 Z " fill="#2F9AE0" transform="translate(118,101)"/>
<path d="M0 0 C2.42999536 2.27364177 3.42805835 3.68273845 4 7 C3.34 7 2.68 7 2 7 C1.67 6.34 1.34 5.68 1 5 C0.34 6.32 -0.32 7.64 -1 9 C-1.66 9 -2.32 9 -3 9 C-2.34 11.31 -1.68 13.62 -1 16 C-1.99 16 -2.98 16 -4 16 C-6.08490566 12.56603774 -6.08490566 12.56603774 -5.71875 10.125 C-4.90991138 7.73365103 -3.81200762 5.8646271 -2.4375 3.75 C-1.98246094 3.04359375 -1.52742188 2.3371875 -1.05859375 1.609375 C-0.53458984 0.81273438 -0.53458984 0.81273438 0 0 Z " fill="#EC7375" transform="translate(89,70)"/>
<path d="M0 0 C2.0245738 1.93254772 3.42105792 3.63158688 5 6 C5 7.32 5 8.64 5 10 C-1.6 9.67 -8.2 9.34 -15 9 C-15 8.67 -15 8.34 -15 8 C-10.05 7.34 -5.1 6.68 0 6 C0 4.02 0 2.04 0 0 Z " fill="#EDBA83" transform="translate(108,102)"/>
<path d="M0 0 C0.33 0.99 0.66 1.98 1 3 C1.99 3.33 2.98 3.66 4 4 C4 5.32 4 6.64 4 8 C4.99 8.33 5.98 8.66 7 9 C7 9.33 7 9.66 7 10 C3.7 10 0.4 10 -3 10 C-2.67 7.69 -2.34 5.38 -2 3 C-1.34 3 -0.68 3 0 3 C0 2.01 0 1.02 0 0 Z " fill="#0E9FFA" transform="translate(128,99)"/>
<path d="M0 0 C1.134375 0.020625 2.26875 0.04125 3.4375 0.0625 C3.81883299 2.0539056 4.15075582 4.05529077 4.4375 6.0625 C3.4375 7.0625 3.4375 7.0625 1.58984375 7.16015625 C-0.4609375 7.12760417 -2.51171875 7.09505208 -4.5625 7.0625 C-3.9025 6.7325 -3.2425 6.4025 -2.5625 6.0625 C-2.5625 4.7425 -2.5625 3.4225 -2.5625 2.0625 C-3.2225 1.7325 -3.8825 1.4025 -4.5625 1.0625 C-3.5625 0.0625 -3.5625 0.0625 0 0 Z " fill="#FBAE65" transform="translate(104.5625,101.9375)"/>
<path d="M0 0 C2.95814719 2.61227152 4.71876108 5.66570307 6.6875 9.0625 C7.31011719 10.12597656 7.93273437 11.18945312 8.57421875 12.28515625 C10 15 10 15 10 17 C9.01 17.33 8.02 17.66 7 18 C6.855625 17.2575 6.71125 16.515 6.5625 15.75 C6.09812508 13.47972261 5.58136431 11.24240521 5 9 C4.34 9 3.68 9 3 9 C1.66666667 7.66666667 0.33333333 6.33333333 -1 5 C-0.625 2.375 -0.625 2.375 0 0 Z " fill="#EF9579" transform="translate(98,85)"/>
<path d="M0 0 C0.33 0.66 0.66 1.32 1 2 C0.06553465 4.03144641 -0.93224776 6.03533587 -2 8 C1.79303725 6.99806563 4.71536341 6.18975773 8 4 C8.33 4.99 8.66 5.98 9 7 C7.68 7.33 6.36 7.66 5 8 C5 8.66 5 9.32 5 10 C2.03 10 -0.94 10 -4 10 C-3.5205537 5.78087253 -2.83374881 3.20336822 0 0 Z " fill="#2397F0" transform="translate(70,63)"/>
<path d="M0 0 C0.66 0 1.32 0 2 0 C2 0.66 2 1.32 2 2 C2.66 2 3.32 2 4 2 C4.25523438 2.95712891 4.25523438 2.95712891 4.515625 3.93359375 C4.75796875 4.75988281 5.0003125 5.58617188 5.25 6.4375 C5.48203125 7.26121094 5.7140625 8.08492187 5.953125 8.93359375 C6.80770679 11.19995468 6.80770679 11.19995468 9.109375 11.78515625 C9.73328125 11.85605469 10.3571875 11.92695312 11 12 C11.33 13.98 11.66 15.96 12 18 C11.01 18 10.02 18 9 18 C7.49480613 15.37785672 5.99568681 12.75255792 4.5 10.125 C3.85611328 9.00544922 3.85611328 9.00544922 3.19921875 7.86328125 C2.79316406 7.14785156 2.38710937 6.43242188 1.96875 5.6953125 C1.59169922 5.03547363 1.21464844 4.37563477 0.82617188 3.69580078 C0 2 0 2 0 0 Z " fill="#2A91DC" transform="translate(97,65)"/>
<path d="M0 0 C0.33 0 0.66 0 1 0 C1.02687279 1.81242052 1.04633715 3.62495233 1.0625 5.4375 C1.07410156 6.44683594 1.08570312 7.45617187 1.09765625 8.49609375 C1 11 1 11 0 12 C-1.63472882 12.08700342 -3.27314055 12.10701063 -4.91015625 12.09765625 C-5.89951172 12.09443359 -6.88886719 12.09121094 -7.90820312 12.08789062 C-8.94912109 12.07951172 -9.99003906 12.07113281 -11.0625 12.0625 C-12.10728516 12.05798828 -13.15207031 12.05347656 -14.22851562 12.04882812 C-16.8190666 12.03699913 -19.40950559 12.02051689 -22 12 C-22 11.67 -22 11.34 -22 11 C-20.73542969 10.93941406 -19.47085938 10.87882812 -18.16796875 10.81640625 C-16.50780129 10.73199096 -14.84764563 10.64734345 -13.1875 10.5625 C-12.35412109 10.52318359 -11.52074219 10.48386719 -10.66210938 10.44335938 C-9.85966797 10.40146484 -9.05722656 10.35957031 -8.23046875 10.31640625 C-7.49207764 10.27974854 -6.75368652 10.24309082 -5.99291992 10.20532227 C-3.792505 10.05157859 -3.792505 10.05157859 -1 9 C-1.33 7.02 -1.66 5.04 -2 3 C-1.34 3 -0.68 3 0 3 C0 2.01 0 1.02 0 0 Z " fill="#EF907C" transform="translate(93,89)"/>
<path d="M0 0 C4 0 4 0 6.75 2.3125 C9 5 9 5 9 8 C8.01 9.485 8.01 9.485 7 11 C6.34 11 5.68 11 5 11 C4.87625 9.865625 4.7525 8.73125 4.625 7.5625 C4.41875 6.386875 4.2125 5.21125 4 4 C3.34 3.67 2.68 3.34 2 3 C1.67 3.66 1.34 4.32 1 5 C0.67 3.35 0.34 1.7 0 0 Z " fill="#0C9DFC" transform="translate(88,47)"/>
<path d="M0 0 C2.50037734 2.17424117 3.43628586 3.73045798 4 7 C3.34 7 2.68 7 2 7 C2 6.34 2 5.68 2 5 C1.01 5 0.02 5 -1 5 C-1 5.99 -1 6.98 -1 8 C-2.375 9.6875 -2.375 9.6875 -4 11 C-4.66 11 -5.32 11 -6 11 C-4.54955729 6.89041233 -2.48889248 3.56741255 0 0 Z " fill="#9161DC" transform="translate(77,12)"/>
<path d="M0 0 C1.33332095 2.6666419 0.67102033 4.16680303 0 7 C-0.66 7 -1.32 7 -2 7 C-2.103125 7.5775 -2.20625 8.155 -2.3125 8.75 C-3.10896465 11.35661158 -4.19065277 12.9735311 -6 15 C-6.66 15 -7.32 15 -8 15 C-6.51194289 9.19657726 -3.40902445 4.82409121 0 0 Z " fill="#925FE1" transform="translate(47,61)"/>
<path d="M0 0 C1.98 0.66 3.96 1.32 6 2 C5.401875 2.4125 4.80375 2.825 4.1875 3.25 C2.01158763 4.9907299 0.57451158 6.71695821 -1 9 C-2.1875 7.3125 -2.1875 7.3125 -3 5 C-1.625 2.25 -1.625 2.25 0 0 Z " fill="#232E30" transform="translate(388,82)"/>
<path d="M0 0 C1.93359375 0.77734375 1.93359375 0.77734375 4 2 C4.69356423 4.32548007 5.36149212 6.65880445 6 9 C6.99 9.33 7.98 9.66 9 10 C9 11.65 9 13.3 9 15 C4.95808535 10.50898372 2.56325559 5.41015011 0 0 Z " fill="#288FD8" transform="translate(109,86)"/>
<path d="M0 0 C2.29296875 -0.3125 2.29296875 -0.3125 5 0 C6.80078125 2.1875 6.80078125 2.1875 8.3125 5 C8.82425781 5.928125 9.33601563 6.85625 9.86328125 7.8125 C10.23839844 8.534375 10.61351563 9.25625 11 10 C10.01 10 9.02 10 8 10 C7.67 8.68 7.34 7.36 7 6 C6.34 6 5.68 6 5 6 C5 4.68 5 3.36 5 2 C3.35 2 1.7 2 0 2 C0 1.34 0 0.68 0 0 Z " fill="#936AD6" transform="translate(70,81)"/>
<path d="M0 0 C2.33524782 2.25740623 4.18705073 4.2805761 6 7 C5.625 9.1875 5.625 9.1875 5 11 C3.68 10.34 2.36 9.68 1 9 C1.33 7.68 1.66 6.36 2 5 C1.34 4.67 0.68 4.34 0 4 C0 2.68 0 1.36 0 0 Z " fill="#1A9CE9" transform="translate(109,65)"/>
<path d="M0 0 C2.66735273 2.48952921 4.55746343 4.63408134 6 8 C4.35 7.67 2.7 7.34 1 7 C1 6.34 1 5.68 1 5 C0.01 4.67 -0.98 4.34 -2 4 C-1.34 2.68 -0.68 1.36 0 0 Z " fill="#2E92DF" transform="translate(89,32)"/>
<path d="M0 0 C0.598125 0.185625 1.19625 0.37125 1.8125 0.5625 C4.16408762 1.22093687 4.16408762 1.22093687 7 0 C7 0.99 7 1.98 7 3 C2.545 3.495 2.545 3.495 -2 4 C-2 3.34 -2 2.68 -2 2 C-1.34 2 -0.68 2 0 2 C0 1.34 0 0.68 0 0 Z " fill="#FD7C72" transform="translate(53,106)"/>
<path d="M0 0 C0.33 0.66 0.66 1.32 1 2 C-0.43359375 4.8203125 -0.43359375 4.8203125 -2.4375 8.125 C-3.09621094 9.22070312 -3.75492188 10.31640625 -4.43359375 11.4453125 C-4.95050781 12.28835937 -5.46742187 13.13140625 -6 14 C-6.33 12.68 -6.66 11.36 -7 10 C-6.34 10 -5.68 10 -5 10 C-5 8.68 -5 7.36 -5 6 C-3.625 4.4375 -3.625 4.4375 -2 3 C-1.34 2.01 -0.68 1.02 0 0 Z " fill="#895EDD" transform="translate(62,58)"/>
<path d="M0 0 C0.33 0 0.66 0 1 0 C1.33 2.31 1.66 4.62 2 7 C1.01 6.67 0.02 6.34 -1 6 C-1.66 7.32 -2.32 8.64 -3 10 C-3.66 10 -4.32 10 -5 10 C-3.66654496 6.40992874 -2.1056769 3.20429093 0 0 Z " fill="#2994DD" transform="translate(86,36)"/>
<path d="M0 0 C0.33 0.66 0.66 1.32 1 2 C-0.21484375 4.6015625 -0.21484375 4.6015625 -1.9375 7.625 C-2.50339844 8.62789062 -3.06929687 9.63078125 -3.65234375 10.6640625 C-4.09707031 11.43492188 -4.54179688 12.20578125 -5 13 C-5.66 13 -6.32 13 -7 13 C-5.35821735 8.22390502 -2.73453298 4.20617096 0 0 Z " fill="#8C60D4" transform="translate(58,43)"/>
<path d="M0 0 C2.72426311 2.35277269 3.8141763 4.62496331 5 8 C2.69 7.67 0.38 7.34 -2 7 C-1.34 6.34 -0.68 5.68 0 5 C0.16687448 2.41645782 0.16687448 2.41645782 0 0 Z " fill="#2497E7" transform="translate(122,86)"/>
<path d="M0 0 C1.32 0.33 2.64 0.66 4 1 C4.33 2.98 4.66 4.96 5 7 C4.01 7 3.02 7 2 7 C0.5393715 4.35261084 0 3.10551666 0 0 Z " fill="#209BE5" transform="translate(104,76)"/>
<path d="M0 0 C4 4.5 4 4.5 4 9 C3.01 8.67 2.02 8.34 1 8 C0.67 5.36 0.34 2.72 0 0 Z " fill="#1E9BE4" transform="translate(104,56)"/>
<path d="M0 0 C0.33 0 0.66 0 1 0 C1 1.98 1 3.96 1 6 C0.01 6.33 -0.98 6.66 -2 7 C-3.66710346 8.49985609 -3.66710346 8.49985609 -5 10 C-3.66654496 6.40992874 -2.1056769 3.20429093 0 0 Z " fill="#9361E0" transform="translate(70,23)"/>
<path d="M0 0 C2.61500768 2.36595933 4.38999603 4.86049226 6 8 C5.67 8.66 5.34 9.32 5 10 C4.54625 9.525625 4.0925 9.05125 3.625 8.5625 C2.06741796 6.90972192 2.06741796 6.90972192 0 6 C0 4.02 0 2.04 0 0 Z " fill="#219BDF" transform="translate(116,76)"/>
<path d="M0 0 C2.50037734 2.17424117 3.43628586 3.73045798 4 7 C3.01 7.33 2.02 7.66 1 8 C0.40267181 5.23735711 0 2.83967231 0 0 Z " fill="#ECB081" transform="translate(104,95)"/>
<path d="M0 0 C0.33 0.66 0.66 1.32 1 2 C-0.30406884 4.01920337 -1.63823419 6.01924973 -3 8 C-3.33 8 -3.66 8 -4 8 C-4.25 5.6875 -4.25 5.6875 -4 3 C-2 1.1875 -2 1.1875 0 0 Z " fill="#8E60E4" transform="translate(54,72)"/>
<path d="M0 0 C2.50037734 2.17424117 3.43628586 3.73045798 4 7 C3.34 7 2.68 7 2 7 C2 6.01 2 5.02 2 4 C0.68 4 -0.64 4 -2 4 C-1.34 2.68 -0.68 1.36 0 0 Z " fill="#D3797E" transform="translate(89,70)"/>
<path d="M0 0 C0.6875 1.6875 0.6875 1.6875 1 4 C-0.3125 6.75 -0.3125 6.75 -2 9 C-2.66 9 -3.32 9 -4 9 C-2.94124926 5.59687262 -1.99097846 2.98646769 0 0 Z " fill="#2F93E3" transform="translate(75,54)"/>
</svg>
