<?xml version="1.0" encoding="UTF-8"?>
<svg version="1.1" xmlns="http://www.w3.org/2000/svg" width="661" height="377">
<path d="M0 0 C3.96 0 7.92 0 12 0 C12.33 11.55 12.66 23.1 13 35 C14.69125 32.36 16.3825 29.72 18.125 27 C23.18435555 19.70836606 23.18435555 19.70836606 26.94238281 18.2421875 C31.03872547 17.6091717 34.97775722 18.14319089 39 19 C38.45994624 23.16507217 37.16934899 25.54445439 34.5625 28.8125 C33.94503906 29.60269531 33.32757813 30.39289063 32.69140625 31.20703125 C32.13324219 31.79871094 31.57507813 32.39039063 31 33 C30.34 33 29.68 33 29 33 C28.896875 33.598125 28.79375 34.19625 28.6875 34.8125 C28 37 28 37 26.375 38.5 C25.92125 38.995 25.4675 39.49 25 40 C25.43812012 43.24906777 26.76848614 45.40222541 28.65234375 48.0390625 C29.18150391 48.78414062 29.71066406 49.52921875 30.25585938 50.296875 C31.08827148 51.44929688 31.08827148 51.44929688 31.9375 52.625 C32.48857422 53.40101563 33.03964844 54.17703125 33.60742188 54.9765625 C36.58268675 59.17223747 36.58268675 59.17223747 40 63 C43.22949709 56.39541373 45.76339484 49.85103186 47.83203125 42.80078125 C49.54547439 37.22492781 51.50338586 31.7401488 53.45068359 26.24243164 C53.73637207 25.43539795 54.02206055 24.62836426 54.31640625 23.796875 C54.59887207 23.00087891 54.88133789 22.20488281 55.17236328 21.38476562 C56.22745899 18.34459604 57.20838324 15.28233429 58.17163086 12.21191406 C59.23084584 9.38359467 60.64934631 6.70130738 62 4 C67.61 4 73.22 4 79 4 C80.2684375 7.58875 80.2684375 7.58875 81.5625 11.25 C81.85189453 12.06855469 82.14128906 12.88710937 82.43945312 13.73046875 C83.89703091 17.85844595 85.34599659 21.989204 86.78125 26.125 C89.34253848 33.49808735 91.90256646 40.85677625 94.75 48.125 C100 61.58787129 100 61.58787129 100 68 C95.05 68 90.1 68 85 68 C84.25130208 64.90755208 83.50260417 61.81510417 82.75390625 58.72265625 C82.27004275 56.10578746 82.27004275 56.10578746 81 55 C79.36743242 54.84285346 77.72864662 54.74914586 76.08984375 54.68359375 C75.10048828 54.64169922 74.11113281 54.59980469 73.09179688 54.55664062 C71.53041992 54.49766602 71.53041992 54.49766602 69.9375 54.4375 C68.37032227 54.37272461 68.37032227 54.37272461 66.77148438 54.30664062 C64.18113116 54.20018775 61.59067814 54.0981724 59 54 C58.80664062 54.59167969 58.61328125 55.18335938 58.4140625 55.79296875 C58.15367187 56.58316406 57.89328125 57.37335938 57.625 58.1875 C57.24214844 59.35345703 57.24214844 59.35345703 56.8515625 60.54296875 C55.97793078 63.06367679 55.00879602 65.53064278 54 68 C49.66810725 68.2923308 45.33875965 68.46860805 41 68.625 C39.77925781 68.70878906 38.55851562 68.79257813 37.30078125 68.87890625 C28.35496929 69.12068495 28.35496929 69.12068495 24.33984375 65.79980469 C19 59.25684799 19 59.25684799 19 56 C17.515 55.505 17.515 55.505 16 55 C14.515 52.525 14.515 52.525 13 50 C12.67 55.94 12.34 61.88 12 68 C7.71 68 3.42 68 -1 68 C-1.02255338 59.28155659 -1.04091645 50.56313241 -1.05181217 41.84466648 C-1.05704041 37.79674258 -1.06413699 33.74883959 -1.07543945 29.70092773 C-1.08627043 25.79764029 -1.09227728 21.89437301 -1.09487724 17.9910717 C-1.09673111 16.49866353 -1.100351 15.00625652 -1.10573006 13.51385689 C-1.11294331 11.43051861 -1.11399083 9.34726469 -1.11352539 7.26391602 C-1.115746 6.07588882 -1.11796661 4.88786163 -1.12025452 3.66383362 C-1 1 -1 1 0 0 Z M70 20 C66.60441946 26.82563399 64.7071977 33.57369001 63 41 C67.62 41 72.24 41 77 41 C76.24211578 37.21057889 75.48533093 34.51917088 74 31.0625 C72.47722414 27.37142374 71.42107227 24.00018654 71 20 C70.67 20 70.34 20 70 20 Z " fill="#E7E4E3" transform="translate(367,185)"/>
<path d="M0 0 C1.87109375 0.26171875 1.87109375 0.26171875 4 1 C5.16015625 2.70703125 5.16015625 2.70703125 6.0625 4.8125 C7.17549982 7.29908293 8.0294079 9.03447823 9.8125 11.125 C11 13 11 13 10.7734375 15.7890625 C9.94658826 19.22173963 8.78590796 21.33998561 6.8125 24.25 C4.44705591 27.81747588 2.12717358 31.3840801 -0.0625 35.0625 C-0.78373047 36.27292969 -0.78373047 36.27292969 -1.51953125 37.5078125 C-2.00808594 38.33023438 -2.49664062 39.15265625 -3 40 C-4.08221757 41.81316643 -5.16553276 43.62567822 -6.25 45.4375 C-6.96929687 46.64212891 -6.96929687 46.64212891 -7.703125 47.87109375 C-8.76046017 49.6067795 -9.87263921 51.30895881 -11 53 C-11.66 53 -12.32 53 -13 53 C-13.08894531 53.68578125 -13.17789063 54.3715625 -13.26953125 55.078125 C-14.16788246 58.67152983 -15.81815032 61.59278038 -17.6875 64.75 C-18.04618164 65.36762207 -18.40486328 65.98524414 -18.77441406 66.62158203 C-21.21149844 70.77851447 -23.78399273 74.81396625 -26.578125 78.7421875 C-28.64827001 82.02939579 -30.3062497 85.50730412 -32 89 C-30.68394775 88.92930298 -30.68394775 88.92930298 -29.34130859 88.85717773 C-26.0643967 88.70314598 -22.79135716 88.59071429 -19.51220703 88.50561523 C-18.09752509 88.4605277 -16.68325869 88.39923039 -15.27001953 88.32104492 C-3.53666284 87.68848552 -3.53666284 87.68848552 0.22949219 90.90283203 C1.79271028 93.22105121 2.93338861 95.42015725 4 98 C4.37463379 98.69536865 4.74926758 99.3907373 5.13525391 100.10717773 C6 102 6 102 6 105 C-16.44 105 -38.88 105 -62 105 C-61.07923076 101.31692304 -60.10109033 99.20328502 -58.1875 96 C-57.24777344 94.42025391 -57.24777344 94.42025391 -56.2890625 92.80859375 C-55.93102539 92.21288574 -55.57298828 91.61717773 -55.20410156 91.00341797 C-53.8473647 88.7460411 -52.49788958 86.4843951 -51.1484375 84.22265625 C-46.1269491 75.81895555 -41.07507354 67.43607743 -35.9140625 59.1171875 C-32.15932949 53.00233661 -28.48678807 46.83956913 -24.859375 40.6484375 C-23.82291667 38.890625 -22.78645833 37.1328125 -21.75 35.375 C-21.22148438 34.46621094 -20.69296875 33.55742187 -20.1484375 32.62109375 C-19.38660156 31.33525391 -19.38660156 31.33525391 -18.609375 30.0234375 C-17.9282666 28.86207275 -17.9282666 28.86207275 -17.23339844 27.67724609 C-16.82637695 27.12375488 -16.41935547 26.57026367 -16 26 C-15.34 26 -14.68 26 -14 26 C-13.855625 25.21625 -13.71125 24.4325 -13.5625 23.625 C-13 21 -13 21 -12 19 C-11.34 19 -10.68 19 -10 19 C-9.67 17.68 -9.34 16.36 -9 15 C-8.34 15 -7.68 15 -7 15 C-6.89816406 14.28457031 -6.79632813 13.56914062 -6.69140625 12.83203125 C-5.91567222 9.65458961 -4.67015917 7.45238165 -2.9375 4.6875 C-2.38964844 3.80449219 -1.84179688 2.92148438 -1.27734375 2.01171875 C-0.85582031 1.34785156 -0.43429688 0.68398437 0 0 Z " fill="#9554F7" transform="translate(118,121)"/>
<path d="M0 0 C3.05890801 2.73116786 4.97862571 5.54575524 6.9296875 9.140625 C8.03012886 11.05234064 9.25213399 12.78919031 10.5625 14.5625 C12.76023845 17.56607588 14.33358471 20.66716941 16 24 C17.56394351 26.34188448 19.16292194 28.65287544 20.79296875 30.94921875 C22 33 22 33 22 36 C22.66 36 23.32 36 24 36 C24.515625 37.093125 25.03125 38.18625 25.5625 39.3125 C27.84255974 43.88884766 30.56745386 48.12219039 33.34375 52.41015625 C34.95714514 54.93298874 36.44159642 57.49095493 37.890625 60.109375 C39.98476674 63.67826444 42.31898852 67.10167181 44.609375 70.546875 C46 73 46 73 46 76 C46.66 76 47.32 76 48 76 C49.296875 77.80078125 49.296875 77.80078125 50.75 80.3125 C51.27722656 81.21871094 51.80445313 82.12492187 52.34765625 83.05859375 C54.48508452 86.86351926 56.56431502 90.69730055 58.60546875 94.5546875 C59.93408817 97.02378173 59.93408817 97.02378173 61.67578125 99.1328125 C63 101 63 101 63 104 C56.73 104 50.46 104 44 104 C42.89322917 101.98177083 41.78645833 99.96354167 40.6796875 97.9453125 C38.19353686 93.58587626 35.59129268 89.29754227 33 85 C32.01149704 83.35690419 31.02321175 81.71367742 30.03515625 80.0703125 C29.54885742 79.26150635 29.06255859 78.4527002 28.56152344 77.61938477 C24.75601918 71.28700089 20.95299562 64.95548784 17.25 58.5625 C12.04228334 49.5823642 6.51684518 40.79247201 1 32 C0.01 32.33 -0.98 32.66 -2 33 C-2.71104891 34.9846546 -3.37077243 36.98790728 -4 39 C-5.08732863 40.88906974 -6.23502081 42.74455835 -7.4375 44.5625 C-10.07423096 48.53399081 -10.07423096 48.53399081 -12.1171875 52.8203125 C-14 55 -14 55 -16.01489258 55.39135742 C-18.59054425 55.49390819 -21.11284585 55.4349232 -23.6875 55.3125 C-24.58017578 55.28994141 -25.47285156 55.26738281 -26.39257812 55.24414062 C-28.59674272 55.18520574 -30.79752672 55.10300818 -33 55 C-32.69787598 54.39824951 -32.39575195 53.79649902 -32.08447266 53.17651367 C-31.25757075 51.51693905 -30.44883956 49.84829768 -29.6484375 48.17578125 C-27.84400754 44.69947424 -25.78008104 41.45103738 -23.625 38.1875 C-20.66933759 33.65422095 -17.87731508 29.10364034 -15.3046875 24.33984375 C-10.63858775 15.97159899 -5.39741334 7.91211728 0 0 Z " fill="#0F98F4" transform="translate(135,146)"/>
<path d="M0 0 C6.12997819 2.73294861 8.26452965 8.4241194 11.06640625 14.19140625 C12.16646503 16.32248246 13.53348743 18.1057546 15 20 C15.95541656 21.64726993 16.90843101 23.29607088 17.83984375 24.95703125 C19.64064766 28.12814385 21.53229876 31.24365073 23.4140625 34.3671875 C25.51978368 37.86289212 27.61095234 41.36726695 29.703125 44.87109375 C30.76046017 46.6067795 31.87263921 48.30895881 33 50 C33 50.99 33 51.98 33 53 C-8.25 53 -49.5 53 -92 53 C-91.01 50.36 -90.02 47.72 -89 45 C-88.34 45 -87.68 45 -87 45 C-86.5359375 43.5459375 -86.5359375 43.5459375 -86.0625 42.0625 C-85 39 -85 39 -84 38 C-81.2001028 37.90480632 -78.42493826 37.87446056 -75.62475586 37.88647461 C-74.74678848 37.88632858 -73.86882111 37.88618256 -72.96424866 37.8860321 C-70.04775565 37.88673156 -67.13132567 37.89452545 -64.21484375 37.90234375 C-62.19845108 37.90420782 -60.18205796 37.90563177 -58.16566467 37.90663147 C-52.84734862 37.91045756 -47.5290597 37.92028861 -42.21075439 37.93133545 C-36.78829312 37.94154762 -31.36582748 37.94612867 -25.94335938 37.95117188 C-15.29556097 37.9619108 -4.64778274 37.97898831 6 38 C5.04563047 36.23469043 4.08937553 34.47040007 3.13232422 32.70654297 C2.6000119 31.72394501 2.06769958 30.74134705 1.51925659 29.72897339 C-0.65334582 25.82642382 -3.14654089 22.18142338 -5.6796875 18.5078125 C-7.20800662 15.60491051 -7.52602408 14.23058188 -7 11 C-5.46875 8.10546875 -5.46875 8.10546875 -3.5 5.1875 C-2.8503125 4.21167969 -2.200625 3.23585937 -1.53125 2.23046875 C-0.77328125 1.12638672 -0.77328125 1.12638672 0 0 Z " fill="#F68471" transform="translate(134,197)"/>
<path d="M0 0 C4.52608384 6.3041882 5.87756211 14.82279485 4.75 22.4375 C2.75 24.4375 2.75 24.4375 -0.13916016 24.66455078 C-1.34362793 24.65407715 -2.5480957 24.64360352 -3.7890625 24.6328125 C-5.74199219 24.62314453 -5.74199219 24.62314453 -7.734375 24.61328125 C-9.11458595 24.59656929 -10.49479429 24.57963939 -11.875 24.5625 C-13.26301452 24.55247006 -14.65103589 24.54334423 -16.0390625 24.53515625 C-19.44288026 24.51151863 -22.84635506 24.47856867 -26.25 24.4375 C-24.43518718 28.632755 -24.43518718 28.632755 -21.34375 31.828125 C-18.92985905 32.53067535 -17.23853227 32.51135009 -14.75 32.1875 C-13.9971875 32.09984375 -13.244375 32.0121875 -12.46875 31.921875 C-10.1398416 31.41345134 -8.32770284 30.58968067 -6.25 29.4375 C-6.25 28.7775 -6.25 28.1175 -6.25 27.4375 C-2.25544473 28.05204696 0.49466336 30.14396737 3.75 32.4375 C2.68592985 38.0238683 0.13584875 40.09542827 -4.27734375 43.23828125 C-9.94506874 46.68380912 -16.86171193 45.95451223 -23.25 45.4375 C-26.28965729 44.52936709 -28.66466837 43.25472586 -31.25 41.4375 C-32.219375 40.798125 -33.18875 40.15875 -34.1875 39.5 C-36.55103717 37.13646283 -36.97618187 35.72331756 -37.25 32.4375 C-37.91 32.4375 -38.57 32.4375 -39.25 32.4375 C-41.04964262 22.83017707 -42.16039125 14.67405269 -37.9375 5.625 C-33.62553862 0.03542044 -29.37665725 -3.43704802 -22.5 -5.3125 C-14.18774413 -5.9519043 -6.92416918 -4.80845082 0 0 Z M-25.0625 9.9375 C-26.56035147 11.510664 -26.56035147 11.510664 -26.25 14.4375 C-20.64 14.4375 -15.03 14.4375 -9.25 14.4375 C-8.67155369 9.63219003 -8.67155369 9.63219003 -10.9375 7.6875 C-16.996589 4.41231676 -19.93531567 5.69431297 -25.0625 9.9375 Z " fill="#E8E5E4" transform="translate(616.25,208.5625)"/>
<path d="M0 0 C5.12797364 5.00290111 5.71139362 11.05885282 5.84443665 17.88552856 C5.86334885 21.94560975 5.81296581 26.00298756 5.75 30.0625 C5.73492858 31.7558475 5.72124451 33.44920794 5.70898438 35.14257812 C5.67616704 39.26204222 5.62452063 43.3808763 5.5625 47.5 C0.9425 47.5 -3.6775 47.5 -8.4375 47.5 C-8.7675 35.62 -9.0975 23.74 -9.4375 11.5 C-12.7375 11.5 -16.0375 11.5 -19.4375 11.5 C-23.6706873 15.7331873 -23.58313554 18.57366059 -23.75390625 24.35546875 C-23.77468735 25.01710526 -23.79546844 25.67874176 -23.81687927 26.36042786 C-23.88214727 28.46934852 -23.94115344 30.57839135 -24 32.6875 C-24.04320689 34.11915315 -24.08682188 35.55079404 -24.13085938 36.98242188 C-24.23857185 40.48815796 -24.33781308 43.99398975 -24.4375 47.5 C-29.0575 47.5 -33.6775 47.5 -38.4375 47.5 C-38.4375 31.33 -38.4375 15.16 -38.4375 -1.5 C-34.1475 -1.5 -29.8575 -1.5 -25.4375 -1.5 C-25.1075 0.15 -24.7775 1.8 -24.4375 3.5 C-23.921875 2.88125 -23.40625 2.2625 -22.875 1.625 C-16.34421362 -4.06850608 -7.50820939 -3.27630955 0 0 Z " fill="#E3E1E0" transform="translate(349.4375,205.5)"/>
<path d="M0 0 C2 3 2 3 1.9375 4.9375 C0.54181735 8.00800184 -1.1256235 9.2753741 -4 11 C-7.08675512 10.81842617 -9.24364365 10.37817818 -12 9 C-16.65275976 8.6947378 -16.65275976 8.6947378 -21 10 C-21 11.32 -21 12.64 -21 14 C-20.0821875 14.07476562 -19.164375 14.14953125 -18.21875 14.2265625 C-10.48433569 15.05524975 -4.34709009 15.99171059 1 22 C4.01794372 26.87437621 3.57977969 32.22994149 2.4375 37.6875 C-0.26849978 42.04063009 -4.13911088 45.37970363 -9 47 C-17.52985237 47.66879305 -24.54194257 47.41958959 -32 43 C-32 42.34 -32 41.68 -32 41 C-33.32 40.67 -34.64 40.34 -36 40 C-36 38.35 -36 36.7 -36 35 C-34.68 34.34 -33.36 33.68 -32 33 C-32 32.34 -32 31.68 -32 31 C-31.34 31 -30.68 31 -30 31 C-30 30.34 -30 29.68 -30 29 C-27 29 -27 29 -24.9375 30.9375 C-23.9784375 31.9584375 -23.9784375 31.9584375 -23 33 C-20.56612247 34.21693876 -18.58161154 34.31959896 -15.875 34.5625 C-14.96492187 34.64628906 -14.05484375 34.73007813 -13.1171875 34.81640625 C-12.41851563 34.87699219 -11.71984375 34.93757813 -11 35 C-11 32.69 -11 30.38 -11 28 C-12.27875 27.9175 -13.5575 27.835 -14.875 27.75 C-21.6987565 26.95353631 -28.64010398 25.29910864 -33.125 19.75 C-35.5704813 15.7088855 -35.59946205 12.64583089 -35 8 C-32.98746052 3.44530538 -29.78674729 -0.85945625 -25.0625 -2.79296875 C-16.60055988 -5.04444925 -7.66874727 -4.24228573 0 0 Z " fill="#E3E1E0" transform="translate(567,207)"/>
<path d="M0 0 C4.62 0 9.24 0 14 0 C14 17.16 14 34.32 14 52 C22.91 52 31.82 52 41 52 C41 55.96 41 59.92 41 64 C27.47 64 13.94 64 0 64 C0 42.88 0 21.76 0 0 Z " fill="#E6E3E2" transform="translate(237,189)"/>
<path d="M0 0 C4.29 0 8.58 0 13 0 C13.33 0.99 13.66 1.98 14 3 C14.639375 2.505 15.27875 2.01 15.9375 1.5 C19.99676339 -0.48821064 23.54701491 -0.45492186 28 0 C28.66 0.33 29.32 0.66 30 1 C30.13392857 9.03571429 30.13392857 9.03571429 29 13 C28.24074219 13.03738281 27.48148437 13.07476562 26.69921875 13.11328125 C25.70535156 13.17902344 24.71148437 13.24476563 23.6875 13.3125 C22.70136719 13.37050781 21.71523438 13.42851562 20.69921875 13.48828125 C18.03326266 13.81650594 18.03326266 13.81650594 16.20703125 15.16796875 C13.55553083 19.19241437 13.8460501 24.58541149 13.68359375 29.2734375 C13.64169922 30.42714844 13.59980469 31.58085937 13.55664062 32.76953125 C13.51732422 33.95933594 13.47800781 35.14914063 13.4375 36.375 C13.39431641 37.58800781 13.35113281 38.80101562 13.30664062 40.05078125 C13.20094549 43.03373284 13.10000567 46.01685225 13 49 C8.71 49 4.42 49 0 49 C0 32.83 0 16.66 0 0 Z " fill="#E1DEDE" transform="translate(474,204)"/>
<path d="M0 0 C4.62 0 9.24 0 14 0 C14 16.17 14 32.34 14 49 C9.38 49 4.76 49 0 49 C0 32.83 0 16.66 0 0 Z " fill="#DFDDDC" transform="translate(286,204)"/>
<path d="M0 0 C4.29 0 8.58 0 13 0 C14 1 14 1 14.12025452 2.94252014 C14.1169236 4.21826149 14.1169236 4.21826149 14.11352539 5.51977539 C14.11344986 6.48069595 14.11337433 7.44161652 14.11329651 8.43165588 C14.10813522 9.476436 14.10297394 10.52121613 14.09765625 11.59765625 C14.0962413 12.66165146 14.09482635 13.72564667 14.09336853 14.82188416 C14.08775064 18.23545083 14.07519511 21.648953 14.0625 25.0625 C14.05748731 27.37044176 14.052924 29.67838455 14.04882812 31.98632812 C14.03777539 37.65757711 14.02049877 43.3287776 14 49 C9.38 49 4.76 49 0 49 C0 32.83 0 16.66 0 0 Z " fill="#E1DEDE" transform="translate(510,204)"/>
<path d="M0 0 C2.74609375 -0.37890625 2.74609375 -0.37890625 6 0 C8.16015625 2.59765625 8.16015625 2.59765625 10.0625 6.0625 C13.21158467 11.65567804 13.21158467 11.65567804 16.9375 16.875 C19.35758427 20.54179435 19.73610414 22.689701 20 27 C19.37609375 27.07089844 18.7521875 27.14179688 18.109375 27.21484375 C15.80770679 27.80004532 15.80770679 27.80004532 14.953125 30.06640625 C14.72109375 30.89011719 14.4890625 31.71382812 14.25 32.5625 C14.00765625 33.38878906 13.7653125 34.21507812 13.515625 35.06640625 C13.34546875 35.70449219 13.1753125 36.34257812 13 37 C10 35 10 35 9 32 C8.319375 31.3503125 8.319375 31.3503125 7.625 30.6875 C4.23081622 27.16277069 3 23.83695175 3 19 C2.01 19 1.02 19 0 19 C-0.33 18.01 -0.66 17.02 -1 16 C-1.66 15.67 -2.32 15.34 -3 15 C-3 14.34 -3 13.68 -3 13 C-3.66 12.67 -4.32 12.34 -5 12 C-6.05047644 9.68895182 -7.05007438 7.35416349 -8 5 C-8.33 4.34 -8.66 3.68 -9 3 C-4.545 2.505 -4.545 2.505 0 2 C0 1.34 0 0.68 0 0 Z " fill="#0E99F3" transform="translate(154,185)"/>
<path d="M0 0 C3 0 3 0 5.0625 1.9375 C5.701875 2.618125 6.34125 3.29875 7 4 C9.70183055 5.35091528 12.11808206 5.33858058 15.125 5.5625 C16.76855469 5.68818359 16.76855469 5.68818359 18.4453125 5.81640625 C19.28835938 5.87699219 20.13140625 5.93757812 21 6 C21 6.99 21 7.98 21 9 C21.66 9.33 22.32 9.66 23 10 C23 9.01 23 8.02 23 7 C25.31 7.33 27.62 7.66 30 8 C29.70540991 11.53508103 29.25118587 12.76203444 26.625 15.25 C20.70773204 19.19484531 13.86685081 18.57223757 7 18 C3.76351486 17.00915094 0.90850495 15.72355849 -2 14 C-2 13.34 -2 12.68 -2 12 C-3.32 11.67 -4.64 11.34 -6 11 C-6 9.35 -6 7.7 -6 6 C-4.68 5.34 -3.36 4.68 -2 4 C-2 3.34 -2 2.68 -2 2 C-1.34 2 -0.68 2 0 2 C0 1.34 0 0.68 0 0 Z " fill="#DBD9D7" transform="translate(537,236)"/>
<path d="M0 0 C0.66 0 1.32 0 2 0 C0.125 5.75 0.125 5.75 -1 8 C-0.12263184 7.95286865 0.75473633 7.9057373 1.65869141 7.85717773 C4.9356033 7.70314598 8.20864284 7.59071429 11.48779297 7.50561523 C12.90247491 7.4605277 14.31674131 7.39923039 15.72998047 7.32104492 C27.46333716 6.68848552 27.46333716 6.68848552 31.22949219 9.90283203 C32.79271028 12.22105121 33.93338861 14.42015725 35 17 C35.37463379 17.69536865 35.74926758 18.3907373 36.13525391 19.10717773 C37 21 37 21 37 24 C14.56 24 -7.88 24 -31 24 C-30 20 -30 20 -28 17 C-26.68 17.33 -25.36 17.66 -24 18 C-24.33 18.66 -24.66 19.32 -25 20 C-6.19 20.33 12.62 20.66 32 21 C31.34 19.35 30.68 17.7 30 16 C29.34 14.35 28.68 12.7 28 11 C17.77 10.67 7.54 10.34 -3 10 C-4 6 -4 6 -3.1875 3.875 C-2 2 -2 2 0 0 Z " fill="#8F59E1" transform="translate(87,202)"/>
<path d="M0 0 C0.99 0.495 0.99 0.495 2 1 C1.67 1.99 1.34 2.98 1 4 C0.40952881 3.99476318 -0.18094238 3.98952637 -0.78930664 3.98413086 C-18.25234336 3.85561853 -35.71708453 4.02073284 -53.17843628 4.26345825 C-55.68238292 4.29612541 -58.1864012 4.32370159 -60.69046021 4.34616089 C-64.26143116 4.37949802 -67.83167516 4.43168943 -71.40234375 4.48828125 C-73.02268021 4.49787369 -73.02268021 4.49787369 -74.67575073 4.50765991 C-81.15394598 4.63484326 -85.66977259 5.33581808 -90.875 9.5 C-92.3 11.0875 -92.3 11.0875 -92 14 C-86.57155353 15.1202219 -81.28865785 15.17193189 -75.77197266 15.20532227 C-74.75672516 15.21522186 -73.74147766 15.22512146 -72.69546509 15.23532104 C-69.35168766 15.26681816 -66.00789604 15.29164679 -62.6640625 15.31640625 C-60.34092853 15.33698596 -58.01779822 15.3579827 -55.69467163 15.37937927 C-49.58899911 15.4344949 -43.48329339 15.48395046 -37.37756348 15.53222656 C-31.14360611 15.5825184 -24.90969679 15.63816433 -18.67578125 15.69335938 C-6.45056191 15.80081239 5.77469921 15.90228581 18 16 C18 16.33 18 16.66 18 17 C-20.28 17 -58.56 17 -98 17 C-97.01 14.36 -96.02 11.72 -95 9 C-94.34 9 -93.68 9 -93 9 C-92.5359375 7.5459375 -92.5359375 7.5459375 -92.0625 6.0625 C-91 3 -91 3 -90 2 C-87.2001028 1.90480632 -84.42493826 1.87446056 -81.62475586 1.88647461 C-80.74678848 1.88632858 -79.86882111 1.88618256 -78.96424866 1.8860321 C-76.04775565 1.88673156 -73.13132567 1.89452545 -70.21484375 1.90234375 C-68.19845108 1.90420782 -66.18205796 1.90563177 -64.16566467 1.90663147 C-58.84734862 1.91045756 -53.5290597 1.92028861 -48.21075439 1.93133545 C-42.78829312 1.94154762 -37.36582748 1.94612867 -31.94335938 1.95117188 C-21.29556097 1.9619108 -10.64778274 1.97898831 0 2 C0 1.34 0 0.68 0 0 Z " fill="#B05C56" transform="translate(140,233)"/>
<path d="M0 0 C0.625 1.8125 0.625 1.8125 1 4 C0.01 5.485 0.01 5.485 -1 7 C-1.66 7 -2.32 7 -3 7 C-3 9.64 -3 12.28 -3 15 C-2.01 15 -1.02 15 0 15 C0 14.34 0 13.68 0 13 C2.76264289 12.40267181 5.16032769 12 8 12 C8.75 14.0625 8.75 14.0625 9 17 C7.68 19.31 6.36 21.62 5 24 C-1.27 24 -7.54 24 -14 24 C-13.34 22.68 -12.68 21.36 -12 20 C-11.56042969 19.07960937 -11.12085937 18.15921875 -10.66796875 17.2109375 C-8.75470623 13.52779514 -6.58330923 10.09459368 -4.3125 6.625 C-3.89677734 5.98433594 -3.48105469 5.34367188 -3.05273438 4.68359375 C-2.03794357 3.12058262 -1.01936376 1.56003259 0 0 Z " fill="#1588DD" transform="translate(116,177)"/>
<path d="M0 0 C-2.98646769 1.99097846 -5.59687262 2.94124926 -9 4 C-8.67 5.98 -8.34 7.96 -8 10 C-6.88625 9.95875 -5.7725 9.9175 -4.625 9.875 C-1 10 -1 10 1 12 C-0.2375 12.0825 -1.475 12.165 -2.75 12.25 C-5.84503187 12.63345528 -6.88411781 12.91085986 -9.4375 14.875 C-11.17320248 17.00757127 -11.17320248 17.00757127 -12 20 C-6.06 19.67 -0.12 19.34 6 19 C6 19.66 6 20.32 6 21 C2.87517438 21.08687496 -0.24934246 21.14034568 -3.375 21.1875 C-4.26445313 21.21263672 -5.15390625 21.23777344 -6.0703125 21.26367188 C-7.34648438 21.27817383 -7.34648438 21.27817383 -8.6484375 21.29296875 C-9.82672119 21.31653442 -9.82672119 21.31653442 -11.02880859 21.34057617 C-11.67930176 21.22818604 -12.32979492 21.1157959 -13 21 C-13.66 20.01 -14.32 19.02 -15 18 C-17.05003955 16.80767387 -17.05003955 16.80767387 -19 16 C-18.34 15.34 -17.68 14.68 -17 14 C-19.97 13.505 -19.97 13.505 -23 13 C-22.17574953 9.06191444 -21.0868057 6.69216993 -17.9375 4.25 C-12.59121654 0.77882222 -6.32813642 -0.40826687 0 0 Z " fill="#C5C2C2" transform="translate(602,203)"/>
<path d="M0 0 C3 2 3 2 5 5 C5.27998332 8.0506516 4.80142672 9.94456065 4 13 C-0.00293643 15.66862428 -3.29491478 15.82233021 -8 15 C-10.625 12.875 -10.625 12.875 -12 10 C-12 6.4051801 -11.39994536 4.58453553 -9.375 1.625 C-6.00735985 -0.67917484 -3.99807408 -0.63127485 0 0 Z " fill="#D4D2D2" transform="translate(296,185)"/>
<path d="M0 0 C1.87109375 0.26171875 1.87109375 0.26171875 4 1 C5.16015625 2.70703125 5.16015625 2.70703125 6.0625 4.8125 C7.17549982 7.29908293 8.0294079 9.03447823 9.8125 11.125 C11 13 11 13 10.7734375 15.7890625 C9.94658826 19.22173963 8.78590796 21.33998561 6.8125 24.25 C4.37875147 27.91059717 2.03249198 31.58062596 -0.1875 35.375 C-2.22931362 38.81269157 -4.37326297 41.96914958 -7 45 C-7 43.02 -7 41.04 -7 39 C-6.34 39 -5.68 39 -5 39 C-5 38.34 -5 37.68 -5 37 C-4.34 37 -3.68 37 -3 37 C-3.061875 36.21625 -3.12375 35.4325 -3.1875 34.625 C-3.125625 33.75875 -3.06375 32.8925 -3 32 C-2.01 31.34 -1.02 30.68 0 30 C0.72382467 27.94074861 0.72382467 27.94074861 1 26 C1.66 26 2.32 26 3 26 C3.12375 25.21625 3.2475 24.4325 3.375 23.625 C4 21 4 21 6 19 C6.02168637 16.09324817 6.02168637 16.09324817 5.625 12.875 C5.51414062 11.77929688 5.40328125 10.68359375 5.2890625 9.5546875 C5.19367188 8.71164063 5.09828125 7.86859375 5 7 C4.21625 7.495 3.4325 7.99 2.625 8.5 C0 10 0 10 -2 10 C-3.22542253 11.62233057 -3.22542253 11.62233057 -4.375 13.6875 C-6.37406389 17.00747926 -8.38653404 20.11617549 -11 23 C-11.66 23 -12.32 23 -13 23 C-12.67 21.68 -12.34 20.36 -12 19 C-11.34 19 -10.68 19 -10 19 C-9.67 17.68 -9.34 16.36 -9 15 C-8.34 15 -7.68 15 -7 15 C-6.89816406 14.28457031 -6.79632813 13.56914062 -6.69140625 12.83203125 C-5.91567222 9.65458961 -4.67015917 7.45238165 -2.9375 4.6875 C-2.38964844 3.80449219 -1.84179688 2.92148438 -1.27734375 2.01171875 C-0.85582031 1.34785156 -0.43429688 0.68398437 0 0 Z " fill="#784AC1" transform="translate(118,121)"/>
<path d="M0 0 C2.9375 1.5 2.9375 1.5 5 4 C5.69044625 7.01010339 5.45338908 8.82627645 5 12 C3.5625 14 3.5625 14 1 15 C-2.01845245 15.22339665 -4.98014438 15.17422244 -8 15 C-8 14.34 -8 13.68 -8 13 C-8.99 12.67 -9.98 12.34 -11 12 C-11.48192771 4.77108434 -11.48192771 4.77108434 -9.4375 1.5 C-6.03618625 -0.59311615 -3.92927257 -0.55147685 0 0 Z " fill="#DAD8D7" transform="translate(520,185)"/>
<path d="M0 0 C3.63671875 0.41015625 3.63671875 0.41015625 6.3125 0.9375 C5.77244624 5.10257217 4.48184899 7.48195439 1.875 10.75 C1.25753906 11.54019531 0.64007813 12.33039063 0.00390625 13.14453125 C-0.55425781 13.73621094 -1.11242187 14.32789063 -1.6875 14.9375 C-2.3475 14.9375 -3.0075 14.9375 -3.6875 14.9375 C-4.0175 16.2575 -4.3475 17.5775 -4.6875 18.9375 C-5.84560065 16.62129869 -6.19262238 14.47374783 -6.6875 11.9375 C-7.0175 10.9475 -7.3475 9.9575 -7.6875 8.9375 C-9.3375 9.2675 -10.9875 9.5975 -12.6875 9.9375 C-12.81125 10.535625 -12.935 11.13375 -13.0625 11.75 C-13.6875 13.9375 -13.6875 13.9375 -15.6875 16.9375 C-16.6775 16.6075 -17.6675 16.2775 -18.6875 15.9375 C-9.30777351 -0.14203113 -9.30777351 -0.14203113 0 0 Z " fill="#C9C7C7" transform="translate(399.6875,203.0625)"/>
<path d="M0 0 C5.99190745 2.65195069 8.37502449 8.22505388 11 14 C11 14.66 11 15.32 11 16 C9.35 15.34 7.7 14.68 6 14 C5.67 14.33 5.34 14.66 5 15 C2.32941149 15.14115161 -0.32432238 15.04247107 -3 15 C-3.66 16.32 -4.32 17.64 -5 19 C-7.20085176 15.69872235 -7.49164472 14.82700719 -7 11 C-5.46875 8.10546875 -5.46875 8.10546875 -3.5 5.1875 C-2.8503125 4.21167969 -2.200625 3.23585937 -1.53125 2.23046875 C-1.0259375 1.49441406 -0.520625 0.75835937 0 0 Z " fill="#CF6067" transform="translate(134,197)"/>
<path d="M0 0 C3.36267063 1.27236186 3.91619871 1.87429807 6 5 C5.90059613 8.08152011 4.95220117 9.0505302 2.8125 11.3125 C0 13 0 13 -3.1875 12.875 C-6 12 -6 12 -8 10 C-7.01 9.34 -6.02 8.68 -5 8 C-5.33 6.35 -5.66 4.7 -6 3 C-6.99 2.67 -7.98 2.34 -9 2 C-9 1.34 -9 0.68 -9 0 C-5.88094953 -1.55952523 -3.35318513 -0.6359489 0 0 Z " fill="#D1CFCF" transform="translate(563,205)"/>
<path d="M0 0 C0 1.32 0 2.64 0 4 C-0.928125 3.979375 -1.85625 3.95875 -2.8125 3.9375 C-6.02286011 3.84230396 -6.02286011 3.84230396 -9 5 C-9.66 4.67 -10.32 4.34 -11 4 C-10.34 5.32 -9.68 6.64 -9 8 C-11.97 7.67 -14.94 7.34 -18 7 C-19.125 1.25 -19.125 1.25 -18 -1 C-12.02102556 -2.81181044 -5.61341434 -2.80670717 0 0 Z " fill="#DEDBDA" transform="translate(612,206)"/>
<path d="M0 0 C0.99 0.495 0.99 0.495 2 1 C1.67 1.99 1.34 2.98 1 4 C-0.11055756 3.99333817 -1.22111511 3.98667633 -2.36532593 3.97981262 C-12.81313469 3.91909128 -23.26090782 3.87407063 -33.70885277 3.84456348 C-39.08071603 3.82888377 -44.45243725 3.80760353 -49.82421875 3.77368164 C-55.0048424 3.74117029 -60.18532914 3.72316437 -65.36604691 3.71536827 C-67.34608746 3.70980994 -69.32612023 3.6989564 -71.30610275 3.68280983 C-74.07191116 3.66114475 -76.83714823 3.65802847 -79.60302734 3.65942383 C-80.42805252 3.648638 -81.2530777 3.63785217 -82.10310364 3.6267395 C-84.60916812 3.60491081 -84.60916812 3.60491081 -88 4 C-88.99 5.485 -88.99 5.485 -90 7 C-90.66 7 -91.32 7 -92 7 C-91.34 5.35 -90.68 3.7 -90 2 C-60.3 2 -30.6 2 0 2 C0 1.34 0 0.68 0 0 Z " fill="#C77E72" transform="translate(140,233)"/>
<path d="M0 0 C2.65269897 2.47585238 4.68010103 4.59026101 6 8 C6 8.99 6 9.98 6 11 C-16.44 11 -38.88 11 -62 11 C-61.67 9.68 -61.34 8.36 -61 7 C-60.67 7.66 -60.34 8.32 -60 9 C-39.54 9 -19.08 9 2 9 C1.34 6.03 0.68 3.06 0 0 Z " fill="#4B317D" transform="translate(118,215)"/>
<path d="M0 0 C1.32 0.33 2.64 0.66 4 1 C4.25 3.8125 4.25 3.8125 4 7 C2.125 8.875 2.125 8.875 0 10 C-0.66 10 -1.32 10 -2 10 C-3.22542253 11.62233057 -3.22542253 11.62233057 -4.375 13.6875 C-6.37406389 17.00747926 -8.38653404 20.11617549 -11 23 C-11.66 23 -12.32 23 -13 23 C-12.67 21.68 -12.34 20.36 -12 19 C-11.34 19 -10.68 19 -10 19 C-9.67 17.68 -9.34 16.36 -9 15 C-8.34 15 -7.68 15 -7 15 C-6.89816406 14.28457031 -6.79632813 13.56914062 -6.69140625 12.83203125 C-5.91567222 9.65458961 -4.67015917 7.45238165 -2.9375 4.6875 C-2.38964844 3.80449219 -1.84179688 2.92148438 -1.27734375 2.01171875 C-0.85582031 1.34785156 -0.43429688 0.68398437 0 0 Z " fill="#9356F4" transform="translate(118,121)"/>
<path d="M0 0 C0.66 0 1.32 0 2 0 C0.125 5.75 0.125 5.75 -1 8 C8.9 8 18.8 8 29 8 C29.66 9.32 30.32 10.64 31 12 C30.01 11.67 29.02 11.34 28 11 C25.6444552 10.84820986 23.28524877 10.75100711 20.92578125 10.68359375 C20.2419487 10.66281265 19.55811615 10.64203156 18.8535614 10.62062073 C16.6733079 10.55533846 14.49293595 10.49633983 12.3125 10.4375 C10.83267014 10.39429447 9.35285217 10.35067953 7.87304688 10.30664062 C4.24882378 10.19967917 0.62446811 10.09835177 -3 10 C-4.1015625 6.265625 -4.1015625 6.265625 -3.1875 3.875 C-2 2 -2 2 0 0 Z " fill="#4B2C81" transform="translate(87,202)"/>
<path d="M0 0 C0.25 3.0625 0.25 3.0625 0 6 C-1 7 -1 7 -3.94140625 7.09765625 C-5.73384766 7.08025391 -5.73384766 7.08025391 -7.5625 7.0625 C-9.35880859 7.04896484 -9.35880859 7.04896484 -11.19140625 7.03515625 C-12.11824219 7.02355469 -13.04507812 7.01195312 -14 7 C-13.39816251 4.97954558 -12.72693904 2.97888961 -12 1 C-11.34 0.67 -10.68 0.34 -10 0 C-9.34 0.33 -8.68 0.66 -8 1 C-7.67 0.34 -7.34 -0.32 -7 -1 C-3.58234953 -2.36706019 -3.25800204 -2.17200136 0 0 Z " fill="#F7F5F5" transform="translate(422,245)"/>
<path d="M0 0 C-0.474375 0.598125 -0.94875 1.19625 -1.4375 1.8125 C-3.16465744 4.00382924 -3.16465744 4.00382924 -4 7 C-4.99 6.34 -5.98 5.68 -7 5 C-7.226875 5.61875 -7.45375 6.2375 -7.6875 6.875 C-9.42695928 9.69126741 -10.81226664 10.24101587 -14 11 C-16.3125 10.125 -16.3125 10.125 -18 9 C-18 7.02 -18 5.04 -18 3 C-17.01 4.485 -17.01 4.485 -16 6 C-15.484375 5.38125 -14.96875 4.7625 -14.4375 4.125 C-10.25820432 0.48151146 -5.44321384 -0.32989175 0 0 Z " fill="#E2DFDF" transform="translate(341,203)"/>
<path d="M0 0 C3 0 3 0 5.0625 1.875 C5.701875 2.57625 6.34125 3.2775 7 4 C7.66 4.66 8.32 5.32 9 6 C6 7 6 7 2 7 C-0.66812465 8.97638863 -1.44295272 10.76912579 -2 14 C-2 13.34 -2 12.68 -2 12 C-3.32 11.67 -4.64 11.34 -6 11 C-6 9.35 -6 7.7 -6 6 C-4.68 5.34 -3.36 4.68 -2 4 C-2 3.34 -2 2.68 -2 2 C-1.34 2 -0.68 2 0 2 C0 1.34 0 0.68 0 0 Z " fill="#C6C5C4" transform="translate(537,236)"/>
<path d="M0 0 C3.63 0.66 7.26 1.32 11 2 C11.33 3.32 11.66 4.64 12 6 C11.34 6 10.68 6 10 6 C9.38125 6.165 8.7625 6.33 8.125 6.5 C6 7 6 7 2 7 C1.34 8.32 0.68 9.64 0 11 C-2.1642235 7.75366476 -2.37569856 6.75698557 -2 3 C-1.34 2.01 -0.68 1.02 0 0 Z " fill="#F97574" transform="translate(129,205)"/>
<path d="M0 0 C0.66 0 1.32 0 2 0 C2 0.66 2 1.32 2 2 C2.99 2.33 3.98 2.66 5 3 C5 3.99 5 4.98 5 6 C5.99 6 6.98 6 8 6 C8.6708712 7.6232687 9.33657029 9.24867578 10 10.875 C10.37125 11.77992188 10.7425 12.68484375 11.125 13.6171875 C12 16 12 16 12 18 C12.99 18.33 13.98 18.66 15 19 C18.18404569 25.02694363 18.18404569 25.02694363 17.578125 28.23046875 C17.29195312 29.10638672 17.29195312 29.10638672 17 30 C14.10208413 25.07879076 11.20641598 20.15627121 8.31298828 15.23242188 C7.13639677 13.23191001 5.95726779 11.2329222 4.77734375 9.234375 C4.14957031 8.16703125 3.52179688 7.0996875 2.875 6 C2.03582031 4.576875 2.03582031 4.576875 1.1796875 3.125 C0 1 0 1 0 0 Z " fill="#146CA7" transform="translate(149,198)"/>
<path d="M0 0 C6.24337265 5.57443986 9.37100024 13.60814393 13 21 C12.01 21.33 11.02 21.66 10 22 C9.34 22.66 8.68 23.32 8 24 C7.87625 23.34 7.7525 22.68 7.625 22 C6.85479462 18.30301417 5.93049337 14.65994058 5 11 C3.68 11 2.36 11 1 11 C1.020625 10.113125 1.04125 9.22625 1.0625 8.3125 C1.00713781 5.37830369 0.6694266 2.84506304 0 0 Z " fill="#CD885E" transform="translate(145,213)"/>
<path d="M0 0 C1.11375 0.556875 1.11375 0.556875 2.25 1.125 C2 2.9375 2 2.9375 1.25 5.125 C-0.75 6.625 -0.75 6.625 -2.75 8.125 C-3.54623822 10.21915804 -3.54623822 10.21915804 -3.75 12.125 C-3.09 12.455 -2.43 12.785 -1.75 13.125 C-3.4 13.455 -5.05 13.785 -6.75 14.125 C-6.4715625 13.1659375 -6.4715625 13.1659375 -6.1875 12.1875 C-6.043125 11.506875 -5.89875 10.82625 -5.75 10.125 C-6.08 9.795 -6.41 9.465 -6.75 9.125 C-6.89115161 6.45441149 -6.79247107 3.80067762 -6.75 1.125 C-4.02098495 -0.69434337 -3.21400584 -1.02263822 0 0 Z " fill="#FBFAF8" transform="translate(583.75,215.875)"/>
<path d="M0 0 C3.74051161 3.43722689 5.81419326 6.45352199 8 11 C9.56039098 13.3446081 11.16276687 15.65265697 12.79296875 17.94921875 C14 20 14 20 14 23 C14.66 23 15.32 23 16 23 C16 23.99 16 24.98 16 26 C15.01 25.67 14.02 25.34 13 25 C12.67 23.35 12.34 21.7 12 20 C11.34 20 10.68 20 10 20 C9.7525 19.030625 9.505 18.06125 9.25 17.0625 C8.63125 15.5465625 8.63125 15.5465625 8 14 C5.96756452 13.03122943 5.96756452 13.03122943 4 13 C3.67 13.66 3.34 14.32 3 15 C3.0928125 13.39125 3.0928125 13.39125 3.1875 11.75 C2.9865365 7.73073003 2.4436925 6.9527951 0 4 C0 2.68 0 1.36 0 0 Z " fill="#1782C6" transform="translate(143,159)"/>
<path d="M0 0 C1.0725 0.2475 2.145 0.495 3.25 0.75 C2.92 1.41 2.59 2.07 2.25 2.75 C1.59 2.75 0.93 2.75 0.25 2.75 C0.45625 3.69875 0.6625 4.6475 0.875 5.625 C0.99875 6.65625 1.1225 7.6875 1.25 8.75 C0.59 9.41 -0.07 10.07 -0.75 10.75 C-3.375 10.375 -3.375 10.375 -5.75 9.75 C-6.41 7.77 -7.07 5.79 -7.75 3.75 C-5.15187156 0.32047046 -4.43092205 -0.2953948 0 0 Z " fill="#ECEAEB" transform="translate(542.75,241.25)"/>
<path d="M0 0 C1.26175847 3.78527542 0.72938114 4.46262949 -1 8 C-2.26076682 10.03506412 -3.55005664 12.04385342 -4.87890625 14.03515625 C-6.09649055 15.95897432 -6.09649055 15.95897432 -6.53125 18.18359375 C-6.6859375 18.78300781 -6.840625 19.38242188 -7 20 C-8.32467746 20.6837045 -9.65863633 21.34964186 -11 22 C-12.26804566 24.0335948 -12.26804566 24.0335948 -13 26 C-13.66 26 -14.32 26 -15 26 C-13.63435633 22.27125725 -11.92557265 19.1297583 -9.75 15.8125 C-6.37847489 10.6103145 -3.15853883 5.33364983 0 0 Z " fill="#5F3B9B" transform="translate(84,177)"/>
<path d="M0 0 C1.27116208 3.81348624 0.3614221 5.2939065 -1 9 C-1.1546875 10.0209375 -1.1546875 10.0209375 -1.3125 11.0625 C-2.42222904 14.18991821 -4.52455301 15.86996422 -7 18 C-9.3125 18.8125 -9.3125 18.8125 -11 19 C-9.33412075 15.54330055 -7.43682456 12.24897759 -5.5 8.9375 C-4.8915625 7.89464844 -4.283125 6.85179687 -3.65625 5.77734375 C-2.48896532 3.81993948 -1.26417927 1.8962689 0 0 Z " fill="#147ECB" transform="translate(128,157)"/>
<path d="M0 0 C2 1 4 2 6 3 C6.6328125 5.06640625 6.6328125 5.06640625 7.125 7.5625 C7.29257813 8.38878906 7.46015625 9.21507812 7.6328125 10.06640625 C7.75398437 10.70449219 7.87515625 11.34257812 8 12 C8.66 12 9.32 12 10 12 C12.39731331 15.19641774 14.38479725 18.00118212 15 22 C14.34 22.33 13.68 22.66 13 23 C12.484375 22.0925 11.96875 21.185 11.4375 20.25 C11.0765625 19.62480469 10.715625 18.99960938 10.34375 18.35546875 C9.30508997 16.53479434 8.28850267 14.70151737 7.28125 12.86328125 C6.36859375 11.22939453 6.36859375 11.22939453 5.4375 9.5625 C4.85871094 8.51191406 4.27992188 7.46132812 3.68359375 6.37890625 C3.12800781 5.59386719 2.57242188 4.80882812 2 4 C1.01 4 0.02 4 -1 4 C-0.67 2.68 -0.34 1.36 0 0 Z " fill="#136AA3" transform="translate(135,175)"/>
<path d="M0 0 C0.66 0 1.32 0 2 0 C0.52930277 5.34798992 -2.0081922 9.41426611 -5 14 C-6.33223018 16.17461528 -7.6599754 18.35185825 -8.984375 20.53125 C-9.48710938 21.25828125 -9.48710938 21.25828125 -10 22 C-10.33 22 -10.66 22 -11 22 C-11 20.02 -11 18.04 -11 16 C-10.34 16 -9.68 16 -9 16 C-9 15.34 -9 14.68 -9 14 C-8.34 14 -7.68 14 -7 14 C-7.061875 13.21625 -7.12375 12.4325 -7.1875 11.625 C-7.125625 10.75875 -7.06375 9.8925 -7 9 C-6.01 8.34 -5.02 7.68 -4 7 C-3.27617533 4.94074861 -3.27617533 4.94074861 -3 3 C-2.34 3 -1.68 3 -1 3 C-0.67 2.01 -0.34 1.02 0 0 Z " fill="#6B44AC" transform="translate(122,144)"/>
<path d="M0 0 C3.67758005 3.28355362 5.81389118 6.62778237 8 11 C7.67 11.66 7.34 12.32 7 13 C6.67 12.01 6.34 11.02 6 10 C5.01 10 4.02 10 3 10 C2.67 8.02 2.34 6.04 2 4 C0.68 4.33 -0.64 4.66 -2 5 C-2 5.99 -2 6.98 -2 8 C-1.34 8.66 -0.68 9.32 0 10 C-1.98 10.33 -3.96 10.66 -6 11 C-4.74194623 6.49197399 -3.09592835 3.5087188 0 0 Z " fill="#1C75B3" transform="translate(135,146)"/>
<path d="M0 0 C3.60239038 3.13756581 3.9957244 3.97862202 5 9 C-1.27 9 -7.54 9 -14 9 C-14 8.01 -14 7.02 -14 6 C-8.72 6.33 -3.44 6.66 2 7 C2 6.01 2 5.02 2 4 C1.34 4 0.68 4 0 4 C0 2.68 0 1.36 0 0 Z " fill="#1771AD" transform="translate(193,241)"/>
<path d="M0 0 C2.31 0.66 4.62 1.32 7 2 C7 2.66 7 3.32 7 4 C6.05125 4.0825 5.1025 4.165 4.125 4.25 C0.93674268 4.62788694 0.93674268 4.62788694 -0.125 6.8125 C-0.558125 7.8953125 -0.558125 7.8953125 -1 9 C-2.29470975 10.37086915 -3.62150897 11.71340837 -5 13 C-4.54177532 9.53058454 -4.10868317 6.32604951 -3 3 C-2.34 3 -1.68 3 -1 3 C-0.67 2.01 -0.34 1.02 0 0 Z " fill="#FCF9F8" transform="translate(422,217)"/>
<path d="M0 0 C12.87 0 25.74 0 39 0 C39 0.33 39 0.66 39 1 C37.88963379 1.01458252 36.77926758 1.02916504 35.63525391 1.04418945 C31.52375746 1.10207125 27.41281457 1.17930364 23.30175781 1.26245117 C21.52092458 1.2957484 19.73998459 1.32376531 17.95898438 1.34643555 C15.40188001 1.37989432 12.84575824 1.43220301 10.2890625 1.48828125 C9.49005524 1.49467117 8.69104797 1.5010611 7.86782837 1.50764465 C5.3870923 1.53954217 5.3870923 1.53954217 2 2 C1.01 3.485 1.01 3.485 0 5 C-0.66 5 -1.32 5 -2 5 C-1.34 3.35 -0.68 1.7 0 0 Z " fill="#BF6A75" transform="translate(50,235)"/>
<path d="M0 0 C3.53586014 3.17320782 5.58578031 5.16743695 6 10 C3.36 9.67 0.72 9.34 -2 9 C-1.34 6.03 -0.68 3.06 0 0 Z " fill="#C19653" transform="translate(161,240)"/>
<path d="M0 0 C7.75 0.875 7.75 0.875 10 2 C10 2.99 10 3.98 10 5 C9.13375 4.979375 8.2675 4.95875 7.375 4.9375 C4.14096352 4.99738956 1.17200103 5.39580933 -2 6 C-2.33 5.01 -2.66 4.02 -3 3 C-2.01 3 -1.02 3 0 3 C0 2.01 0 1.02 0 0 Z " fill="#FBF9F8" transform="translate(602,205)"/>
<path d="M0 0 C0.625 1.8125 0.625 1.8125 1 4 C0.01 5.485 0.01 5.485 -1 7 C-1.66 7 -2.32 7 -3 7 C-3.4021875 8.7015625 -3.4021875 8.7015625 -3.8125 10.4375 C-4.204375 11.613125 -4.59625 12.78875 -5 14 C-5.99 14.33 -6.98 14.66 -8 15 C-8.73323796 17.01508358 -8.73323796 17.01508358 -9 19 C-9.66 19 -10.32 19 -11 19 C-9.41467191 14.44435939 -7.00996919 10.68524231 -4.375 6.6875 C-3.95476562 6.04232422 -3.53453125 5.39714844 -3.1015625 4.73242188 C-2.07161759 3.15239276 -1.03634372 1.57583953 0 0 Z " fill="#1968A2" transform="translate(116,177)"/>
<path d="M0 0 C0.33 0 0.66 0 1 0 C0.85437243 6.84449556 -2.25375843 11.16606805 -7 16 C-7.66 16 -8.32 16 -9 16 C-8.67 14.68 -8.34 13.36 -8 12 C-7.34 12 -6.68 12 -6 12 C-5.67 10.68 -5.34 9.36 -5 8 C-4.34 8 -3.68 8 -3 8 C-2.814375 6.8553125 -2.814375 6.8553125 -2.625 5.6875 C-2 3 -2 3 0 0 Z " fill="#6A44AD" transform="translate(114,128)"/>
<path d="M0 0 C1.13583456 3.71727674 0.66670026 5.47051709 -1 9 C-1.66 9 -2.32 9 -3 9 C-3.33 10.98 -3.66 12.96 -4 15 C-5.32 15.33 -6.64 15.66 -8 16 C-6.42986223 10.03347646 -3.24970218 5.17090975 0 0 Z " fill="#623995" transform="translate(68,203)"/>
<path d="M0 0 C1.43775857 2.87551714 0.53571789 5.02831146 -0.25390625 8.0234375 C-1.26128955 10.69221211 -2.79457863 12.23566291 -5 14 C-5.99 13.67 -6.98 13.34 -8 13 C-7.59007813 12.39671875 -7.18015625 11.7934375 -6.7578125 11.171875 C-6.21898438 10.37265625 -5.68015625 9.5734375 -5.125 8.75 C-4.59132813 7.96109375 -4.05765625 7.1721875 -3.5078125 6.359375 C-2.18177985 4.28444308 -1.05071825 2.22385028 0 0 Z " fill="#6E44B5" transform="translate(93,162)"/>
<path d="M0 0 C0.66 0.33 1.32 0.66 2 1 C1.67 1.66 1.34 2.32 1 3 C0.34 3 -0.32 3 -1 3 C-1.0825 3.680625 -1.165 4.36125 -1.25 5.0625 C-2.22332528 8.8746907 -3.95807455 11.64070329 -6 15 C-6.33 15 -6.66 15 -7 15 C-7 13.35 -7 11.7 -7 10 C-6.34 10 -5.68 10 -5 10 C-5.33 8.35 -5.66 6.7 -6 5 C-5.34 5 -4.68 5 -4 5 C-3.34 4.01 -2.68 3.02 -2 2 C-1.34 2 -0.68 2 0 2 C0 1.34 0 0.68 0 0 Z " fill="#6942B0" transform="translate(106,171)"/>
<path d="M0 0 C1.11375 0.556875 1.11375 0.556875 2.25 1.125 C1.92 1.785 1.59 2.445 1.25 3.125 C-1.3125 3.75 -1.3125 3.75 -3.75 4.125 C-3.75 5.115 -3.75 6.105 -3.75 7.125 C-4.74 6.795 -5.73 6.465 -6.75 6.125 C-6.75 4.475 -6.75 2.825 -6.75 1.125 C-4.02098495 -0.69434337 -3.21400584 -1.02263822 0 0 Z " fill="#E1DFDE" transform="translate(583.75,215.875)"/>
<path d="M0 0 C2.9555377 2.75170751 5.11563315 5.41970299 7 9 C7 9.66 7 10.32 7 11 C5.02 11 3.04 11 1 11 C1.020625 10.113125 1.04125 9.22625 1.0625 8.3125 C1.00713781 5.37830369 0.6694266 2.84506304 0 0 Z " fill="#C9735D" transform="translate(145,213)"/>
<path d="M0 0 C0.68707555 2.49064888 1 4.37886292 1 7 C3.97 7.495 3.97 7.495 7 8 C7 8.33 7 8.66 7 9 C3.37 9 -0.26 9 -4 9 C-3 5 -3 5 -2 2 C-1.34 2 -0.68 2 0 2 C0 1.34 0 0.68 0 0 Z " fill="#C75A6E" transform="translate(47,240)"/>
<path d="M0 0 C3.33511388 2.9901021 5.21521119 5.89498574 7 10 C7 10.66 7 11.32 7 12 C5.125 11.8125 5.125 11.8125 3 11 C1.24391676 7.58025895 0 3.86767087 0 0 Z " fill="#BC615F" transform="translate(138,201)"/>
<path d="M0 0 C1.32 0.33 2.64 0.66 4 1 C4.33 2.98 4.66 4.96 5 7 C5.99 7.33 6.98 7.66 8 8 C8 9.65 8 11.3 8 13 C4.03309308 9.62812912 1.6260436 4.87813081 0 0 Z " fill="#1679B6" transform="translate(171,234)"/>
<path d="M0 0 C-1.23398981 3.70196942 -2.89426616 4.31217164 -6.2109375 6.1328125 C-8 7 -8 7 -11 8 C-11 6.02 -11 4.04 -11 2 C-10.01 3.485 -10.01 3.485 -9 5 C-8.401875 4.360625 -7.80375 3.72125 -7.1875 3.0625 C-4.82036705 0.83063179 -3.27954537 0 0 0 Z " fill="#AFAEAE" transform="translate(334,204)"/>
<path d="M0 0 C0.33 0 0.66 0 1 0 C1.25 5.625 1.25 5.625 -1 9 C-1.99 9 -2.98 9 -4 9 C-4 9.66 -4 10.32 -4 11 C-4.66 11 -5.32 11 -6 11 C-4.87548273 8.0280615 -3.77706209 5.66559313 -2 3 C-1.34 3 -0.68 3 0 3 C0 2.01 0 1.02 0 0 Z " fill="#623E9D" transform="translate(104,144)"/>
<path d="M0 0 C5.61 0 11.22 0 17 0 C17.33 1.98 17.66 3.96 18 6 C17.01 5.67 16.02 5.34 15 5 C15.33 3.68 15.66 2.36 16 1 C10.72 1 5.44 1 0 1 C0 0.67 0 0.34 0 0 Z " fill="#AAA7A9" transform="translate(429,189)"/>
<path d="M0 0 C2.0245738 1.93254772 3.42105792 3.63158688 5 6 C5 6.99 5 7.98 5 9 C5.66 9 6.32 9 7 9 C7 9.99 7 10.98 7 12 C6.01 11.67 5.02 11.34 4 11 C3.67 9.35 3.34 7.7 3 6 C2.34 6 1.68 6 1 6 C0.67 4.02 0.34 2.04 0 0 Z " fill="#10659B" transform="translate(152,173)"/>
<path d="M0 0 C1 3 1 3 0.109375 5.2265625 C-0.33921875 6.01804688 -0.7878125 6.80953125 -1.25 7.625 C-1.68828125 8.42164063 -2.1265625 9.21828125 -2.578125 10.0390625 C-4 12 -4 12 -7 13 C-5.35821735 8.22390502 -2.73453298 4.20617096 0 0 Z " fill="#1869A6" transform="translate(128,157)"/>
<path d="M0 0 C4.26086957 6.39130435 4.26086957 6.39130435 3.625 10.3125 C3.41875 10.869375 3.2125 11.42625 3 12 C3 11.34 3 10.68 3 10 C2.01 10 1.02 10 0 10 C-0.66 8.68 -1.32 7.36 -2 6 C-1.34 5.34 -0.68 4.68 0 4 C0 2.68 0 1.36 0 0 Z " fill="#C5C2C2" transform="translate(450,203)"/>
<path d="M0 0 C1 2 1 2 0.8125 4 C-0.25832872 6.63588608 -1.49986865 6.7878151 -4 8 C-5.26804566 10.0335948 -5.26804566 10.0335948 -6 12 C-6.66 12 -7.32 12 -8 12 C-6.49087042 7.01987239 -3.44338151 3.75740058 0 0 Z " fill="#6846AB" transform="translate(77,191)"/>
<path d="M0 0 C-0.25 1.875 -0.25 1.875 -1 4 C-3.58152302 5.72101535 -4.84918025 6 -8 6 C-7.8125 4.125 -7.8125 4.125 -7 2 C-4.55683729 0.74709605 -2.75474605 0 0 0 Z " fill="#079FFC" transform="translate(155,183)"/>
<path d="M0 0 C2.78637633 4.1795645 1.79562512 6.14668677 1 11 C-1.25424122 9.21539237 -1.94902388 8.40780894 -2.3125 5.5 C-2 3 -2 3 0 0 Z " fill="#AB5358" transform="translate(129,205)"/>
<path d="M0 0 C4.83256305 0.41421969 6.82679218 2.46413986 10 6 C9.67 6.66 9.34 7.32 9 8 C8.34 7.67 7.68 7.34 7 7 C7 6.01 7 5.02 7 4 C5.68 4.33 4.36 4.66 3 5 C2.87625 4.360625 2.7525 3.72125 2.625 3.0625 C2.315625 2.0415625 2.315625 2.0415625 2 1 C1.34 0.67 0.68 0.34 0 0 Z " fill="#959293" transform="translate(343,204)"/>
<path d="M0 0 C3.48331435 3.01887244 4.79157144 5.56909529 6 10 C4.68 9.67 3.36 9.34 2 9 C1.34 6.03 0.68 3.06 0 0 Z " fill="#156CB2" transform="translate(187,231)"/>
<path d="M0 0 C0.66 0.33 1.32 0.66 2 1 C1 5 1 5 0 9 C-2.475 8.01 -2.475 8.01 -5 7 C-4.67 6.34 -4.34 5.68 -4 5 C-3.34 5.33 -2.68 5.66 -2 6 C-1.34 4.02 -0.68 2.04 0 0 Z " fill="#FCFAF9" transform="translate(334,206)"/>
<path d="M0 0 C1.55078125 1.671875 1.55078125 1.671875 3 4 C2.85546875 6.578125 2.85546875 6.578125 2.1875 9.25 C1.86845703 10.58804688 1.86845703 10.58804688 1.54296875 11.953125 C1.36378906 12.62859375 1.18460938 13.3040625 1 14 C0.67 14 0.34 14 0 14 C-1.33257403 4.58997722 -1.33257403 4.58997722 0 0 Z " fill="#82817F" transform="translate(576,222)"/>
<path d="M0 0 C3.67230705 3.07999946 4.56802365 5.2482602 5 10 C4.01 9.67 3.02 9.34 2 9 C1.26953125 6.93359375 1.26953125 6.93359375 0.8125 4.4375 C0.65394531 3.61121094 0.49539062 2.78492188 0.33203125 1.93359375 C0.16767578 0.97646484 0.16767578 0.97646484 0 0 Z " fill="#65439A" transform="translate(118,215)"/>
<path d="M0 0 C0.66 0 1.32 0 2 0 C2 0.99 2 1.98 2 3 C2.99 3 3.98 3 5 3 C5.66 4.65 6.32 6.3 7 8 C6.01 8 5.02 8 4 8 C0 2.74285714 0 2.74285714 0 0 Z " fill="#994F4A" transform="translate(130,216)"/>
<path d="M0 0 C0.99 0.33 1.98 0.66 3 1 C2.19185349 2.33597652 1.37836819 3.668725 0.5625 5 C0.11003906 5.7425 -0.34242187 6.485 -0.80859375 7.25 C-1.20175781 7.8275 -1.59492187 8.405 -2 9 C-2.33 9 -2.66 9 -3 9 C-3 7.35 -3 5.7 -3 4 C-2.01 3.67 -1.02 3.34 0 3 C0 2.01 0 1.02 0 0 Z " fill="#6844A7" transform="translate(92,193)"/>
<path d="M0 0 C3.375 -0.125 3.375 -0.125 7 0 C7.66 0.66 8.32 1.32 9 2 C8.01 2 7.02 2 6 2 C6 2.66 6 3.32 6 4 C4.68 3.67 3.36 3.34 2 3 C2 2.34 2 1.68 2 1 C1.34 0.67 0.68 0.34 0 0 Z " fill="#A09D9E" transform="translate(513,185)"/>
<path d="M0 0 C1.32 0.33 2.64 0.66 4 1 C3.39816251 3.02045442 2.72693904 5.02111039 2 7 C1.01 7.495 1.01 7.495 0 8 C0 5.36 0 2.72 0 0 Z " fill="#137ABD" transform="translate(129,178)"/>
<path d="M0 0 C2.00993705 2.00993705 2.89940919 3.59211232 4.125 6.125 C4.47820312 6.84945312 4.83140625 7.57390625 5.1953125 8.3203125 C5.46085937 8.87460938 5.72640625 9.42890625 6 10 C4.68 10 3.36 10 2 10 C0.68373308 6.38026598 0 3.90432869 0 0 Z " fill="#6B44A9" transform="translate(122,124)"/>
<path d="M0 0 C2.0625 0.4375 2.0625 0.4375 4 1 C4 1.66 4 2.32 4 3 C3.01 3 2.02 3 1 3 C1 3.66 1 4.32 1 5 C-0.98 5.99 -0.98 5.99 -3 7 C-1.125 1.125 -1.125 1.125 0 0 Z " fill="#65429B" transform="translate(118,121)"/>
<path d="M0 0 C0.33 0.66 0.66 1.32 1 2 C0.22265625 3.7265625 0.22265625 3.7265625 -0.9375 5.625 C-1.618125 6.73875 -2.29875 7.8525 -3 9 C-3.99 8.67 -4.98 8.34 -6 8 C-4.02 5.36 -2.04 2.72 0 0 Z " fill="#A9A8A8" transform="translate(387,211)"/>
<path d="M0 0 C-1.47692308 5.66153846 -1.47692308 5.66153846 -4.125 7.375 C-5.053125 7.684375 -5.053125 7.684375 -6 8 C-5.6875 5.125 -5.6875 5.125 -5 2 C-2 0 -2 0 0 0 Z " fill="#7B50C5" transform="translate(89,202)"/>
<path d="M0 0 C1.98 0 3.96 0 6 0 C3.35149008 2.64850992 0.33793553 4.33103223 -3 6 C-3 5.01 -3 4.02 -3 3 C-2.34 3 -1.68 3 -1 3 C-0.67 2.01 -0.34 1.02 0 0 Z " fill="#F56680" transform="translate(51,237)"/>
<path d="M0 0 C0.99 0 1.98 0 3 0 C3 1.32 3 2.64 3 4 C1.02 4.33 -0.96 4.66 -3 5 C-3 4.34 -3 3.68 -3 3 C-2.34 3 -1.68 3 -1 3 C-0.67 2.01 -0.34 1.02 0 0 Z " fill="#F7A568" transform="translate(155,234)"/>
<path d="M0 0 C1.98 0.495 1.98 0.495 4 1 C2.25 5.875 2.25 5.875 0 7 C-1.125 2.25 -1.125 2.25 0 0 Z " fill="#FDFAF9" transform="translate(594,205)"/>
<path d="M0 0 C1.9375 0.5625 1.9375 0.5625 4 2 C4.75 5.625 4.75 5.625 5 9 C0.57142857 3.85714286 0.57142857 3.85714286 0 0 Z " fill="#125F8F" transform="translate(162,219)"/>
<path d="M0 0 C1.24546405 2.49092811 0.7767578 3.41080733 0 6 C-1.32 6.33 -2.64 6.66 -4 7 C-3.39816251 4.97954558 -2.72693904 2.97888961 -2 1 C-1.34 0.67 -0.68 0.34 0 0 Z " fill="#6340A4" transform="translate(64,212)"/>
<path d="M0 0 C2.475 0.495 2.475 0.495 5 1 C5.33 1.99 5.66 2.98 6 4 C4.02 4.99 4.02 4.99 2 6 C2 5.01 2 4.02 2 3 C1.34 3 0.68 3 0 3 C0 2.01 0 1.02 0 0 Z " fill="#EF7771" transform="translate(130,213)"/>
<path d="M0 0 C0.33 0.66 0.66 1.32 1 2 C2.89533342 2.46523063 2.89533342 2.46523063 5.0625 2.625 C6.361875 2.74875 7.66125 2.8725 9 3 C9 3.33 9 3.66 9 4 C5.7 4 2.4 4 -1 4 C-1 1 -1 1 0 0 Z " fill="#6A44A3" transform="translate(85,208)"/>
<path d="M0 0 C2.31 0.33 4.62 0.66 7 1 C5.75 2.5 5.75 2.5 4 4 C2.68 4 1.36 4 0 4 C0 2.68 0 1.36 0 0 Z " fill="#FBF8F8" transform="translate(539,241)"/>
<path d="M0 0 C0.33 0.99 0.66 1.98 1 3 C0.01 3.66 -0.98 4.32 -2 5 C-2.33 4.34 -2.66 3.68 -3 3 C-5.52733235 2.34444881 -5.52733235 2.34444881 -8 2 C-8 1.67 -8 1.34 -8 1 C-2.25 0 -2.25 0 0 0 Z " fill="#9E9B9C" transform="translate(605,241)"/>
<path d="M0 0 C2.97 0.495 2.97 0.495 6 1 C5.01 1.33 4.02 1.66 3 2 C2.26676204 4.01508358 2.26676204 4.01508358 2 6 C1.34 6 0.68 6 0 6 C0 4.02 0 2.04 0 0 Z " fill="#EF7071" transform="translate(130,205)"/>
<path d="M0 0 C4 4.75 4 4.75 4 7 C2.68 6.67 1.36 6.34 0 6 C0 4.02 0 2.04 0 0 Z " fill="#1276B4" transform="translate(163,191)"/>
</svg>
