<?xml version="1.0" encoding="UTF-8"?>
<svg version="1.1" xmlns="http://www.w3.org/2000/svg" width="414" height="387">
<path d="M0 0 C0.99 0 1.98 0 3 0 C4.40698242 1.81323242 4.40698242 1.81323242 5.85546875 4.35546875 C6.39212158 5.28278809 6.92877441 6.21010742 7.48168945 7.16552734 C8.04460693 8.16277832 8.60752441 9.1600293 9.1875 10.1875 C10.35066137 12.2049469 11.51472195 14.22187563 12.6796875 16.23828125 C13.52805176 17.71675537 13.52805176 17.71675537 14.39355469 19.22509766 C16.47140798 22.81428922 18.62217384 26.35364411 20.8125 29.875 C21.38339355 30.79321533 21.95428711 31.71143066 22.54248047 32.6574707 C23.26395264 33.81702271 23.26395264 33.81702271 24 35 C18.73968322 44.3084736 13.32710548 53.5020299 7.75 62.625 C6.24904286 65.0866569 4.74946723 67.54915409 3.25 70.01171875 C2.88291931 70.61421951 2.51583862 71.21672028 2.13763428 71.83747864 C-1.01863682 77.02143279 -4.13900752 82.22629729 -7.25 87.4375 C-11.38353557 94.36014118 -15.61007071 101.22011203 -19.875 108.0625 C-23.63245864 114.09202471 -27.27605726 120.12466207 -30.57861328 126.41894531 C-32.0217271 129.0394536 -33.583934 131.5328768 -35.2109375 134.04296875 C-39.03325055 140.00979745 -42.65532919 146.08156562 -46.25 152.1875 C-46.93555833 153.34836336 -47.62135609 154.50908534 -48.30737305 155.66967773 C-49.76921603 158.14300205 -51.23033409 160.61675224 -52.69091797 163.09082031 C-56.72337918 169.91949174 -60.76640891 176.74189762 -64.8125 183.5625 C-65.21551331 184.24204742 -65.61852661 184.92159485 -66.03375244 185.62173462 C-71.67112973 195.12376216 -77.36401943 204.58828016 -83.1640625 213.9921875 C-84.93151266 216.79279513 -84.93151266 216.79279513 -86 219 C-85.02360565 218.97779388 -84.0472113 218.95558777 -83.04122925 218.93270874 C-73.8312145 218.72982785 -64.62165388 218.58001469 -55.4099102 218.48187828 C-50.67401764 218.42972611 -45.93993107 218.35902369 -41.20507812 218.24560547 C-36.63375308 218.13679209 -32.06416225 218.07712895 -27.491642 218.05122757 C-25.7491029 218.03277601 -24.00665693 217.99673927 -22.26485825 217.94269943 C-8.62056016 217.53629167 -8.62056016 217.53629167 -4.68411255 221.09173584 C-3.11299507 223.67836008 -2.02750542 226.15913369 -1 229 C-0.38141113 230.03060547 0.23717773 231.06121094 0.87451172 232.12304688 C2.54587584 234.91267691 4.21072894 237.70613319 5.875 240.5 C6.46796875 241.48742187 7.0609375 242.47484375 7.671875 243.4921875 C8.23132813 244.43320312 8.79078125 245.37421875 9.3671875 246.34375 C9.87362793 247.19130859 10.38006836 248.03886719 10.90185547 248.91210938 C12 251 12 251 12 253 C-41.79 253 -95.58 253 -151 253 C-151 249.1899471 -149.7753378 247.58743284 -147.81640625 244.328125 C-147.1404541 243.19616699 -146.46450195 242.06420898 -145.76806641 240.89794922 C-145.03300473 239.68188929 -144.29781339 238.46590774 -143.5625 237.25 C-142.81890064 236.00963569 -142.07590058 234.76891189 -141.33349609 233.52783203 C-139.22951611 230.01419935 -137.11523016 226.5068707 -135 223 C-134.0944968 221.4925209 -133.1894394 219.98477378 -132.28515625 218.4765625 C-131.21755775 216.69606794 -130.14957731 214.91582643 -129.07885742 213.13720703 C-126.48007523 208.81758467 -123.92396559 204.47407964 -121.375 200.125 C-111.62293046 183.50403137 -101.63508538 167.02320605 -91.62106323 150.55917358 C-86.04669152 141.39301764 -80.51240461 132.20353999 -75 123 C-67.43640074 110.37343247 -59.816514 97.78202034 -52.16636658 85.20773315 C-49.67981485 81.12008207 -47.19815317 77.02949043 -44.71875 72.9375 C-32.282188 52.41617259 -19.72111791 31.97295871 -7.07128906 11.58227539 C-6.57725586 10.7855542 -6.08322266 9.98883301 -5.57421875 9.16796875 C-5.11966309 8.44013184 -4.66510742 7.71229492 -4.19677734 6.96240234 C-3.19113596 5.31341306 -2.25312715 3.62344511 -1.33203125 1.92578125 C-0.89246094 1.29027344 -0.45289063 0.65476562 0 0 Z " fill="#9957FB" transform="translate(206,28)"/>
<path d="M0 0 C3.8443922 3.40503309 6.12454229 6.7552729 8.5234375 11.2734375 C10.21890329 14.40421825 12.03422225 17.45355446 13.875 20.5 C14.25172852 21.12479248 14.62845703 21.74958496 15.01660156 22.39331055 C15.86462771 23.79964873 16.71295485 25.20580546 17.56152344 26.61181641 C19.15229811 29.25284795 20.73677666 31.89759066 22.3203125 34.54296875 C34.10294591 54.22267703 45.99578454 73.83479319 57.96533203 93.40136719 C65.89005729 106.35599574 73.81294102 119.31181875 81.59375 132.35351562 C84.87701666 137.83572287 88.25213146 143.2601092 91.625 148.6875 C96.2058309 156.06028759 100.6683917 163.47790601 105 171 C109.34557448 178.43860103 113.95349552 185.70699706 118.59838867 192.96118164 C121.43885664 197.42332046 124.10540974 201.93346881 126.64428711 206.57299805 C129.39291947 211.4936093 132.33981971 216.29885294 135.25 221.125 C135.90806641 222.22142822 136.56613281 223.31785645 137.24414062 224.44750977 C140.14478096 229.2777591 143.05343476 234.10173985 146.015625 238.89453125 C146.44327148 239.5911084 146.87091797 240.28768555 147.31152344 241.00537109 C148.0840083 242.2612144 148.86297126 243.51310396 149.64941406 244.76025391 C150.49407131 246.1378399 151.2575518 247.56474403 152 249 C151.67 249.66 151.34 250.32 151 251 C117.62118701 255.89584169 117.62118701 255.89584169 108.10699463 249.78393555 C100.55919615 243.0017336 96.83963318 232.55449596 92.97851562 223.4140625 C90.23670155 217.07305476 86.56329396 211.32851497 82.86523438 205.51184082 C81.11924514 202.75353711 79.42818652 199.96242948 77.734375 197.171875 C76.79972412 195.63575562 76.79972412 195.63575562 75.84619141 194.06860352 C73.38293828 189.97436541 70.98466286 185.84368944 68.5859375 181.71142578 C66.48872913 178.12589682 64.31310214 174.59296097 62.125 171.0625 C56.78430188 162.39078727 51.65452802 153.59930492 46.52557373 144.80166626 C41.22002063 135.70822245 35.80667247 126.69486452 30.19775391 117.78393555 C27.45191549 113.41047553 24.86210199 108.99208886 22.37988281 104.46435547 C19.53699158 99.38718913 16.50182365 94.4217161 13.5 89.4375 C12.84902344 88.35275391 12.19804687 87.26800781 11.52734375 86.15039062 C8.07055399 80.39954948 4.57782121 74.67635096 1 69 C-2.38545079 72.98696596 -4.97312391 77.17130358 -7.5625 81.6875 C-8.45186468 83.21818089 -9.34253255 84.74810519 -10.234375 86.27734375 C-10.69134766 87.06093262 -11.14832031 87.84452148 -11.61914062 88.65185547 C-15.64381001 95.49578583 -19.83542032 102.24069975 -24 109 C-24.57314941 109.93150879 -25.14629883 110.86301758 -25.73681641 111.82275391 C-27.53089689 114.73722921 -29.32744402 117.65016719 -31.125 120.5625 C-31.97831909 121.94743652 -31.97831909 121.94743652 -32.84887695 123.36035156 C-33.37570068 124.21209961 -33.90252441 125.06384766 -34.4453125 125.94140625 C-34.91469238 126.70138916 -35.38407227 127.46137207 -35.86767578 128.24438477 C-37 130 -37 130 -38 131 C-41.02977804 131.08871273 -44.03667022 131.1151935 -47.06640625 131.09765625 C-47.97502914 131.0962413 -48.88365204 131.09482635 -49.81980896 131.09336853 C-52.73407221 131.08775193 -55.64825981 131.07519665 -58.5625 131.0625 C-60.53320202 131.05748714 -62.50390524 131.05292386 -64.47460938 131.04882812 C-69.31643559 131.03777711 -74.15820495 131.02050138 -79 131 C-77.3628185 126.75182356 -75.30303283 122.94209505 -72.9375 119.0625 C-72.54336914 118.41007324 -72.14923828 117.75764648 -71.74316406 117.08544922 C-68.32177578 111.4541317 -64.75825133 105.9208937 -61.140625 100.4140625 C-59.56248186 97.9555773 -58.12196718 95.44890016 -56.71875 92.88671875 C-53.4169016 86.87417154 -49.82370447 81.04088403 -46.25 75.1875 C-45.49786261 73.95258617 -44.74591342 72.71755769 -43.99414062 71.48242188 C-42.43627101 68.92322341 -40.87760298 66.36451389 -39.31835938 63.80615234 C-36.05450423 58.44952798 -32.80064596 53.0868419 -29.54656982 47.72427368 C-28.50103942 46.00171249 -27.45495582 44.2794885 -26.40869141 42.55737305 C-23.08504884 37.08625971 -19.76462094 31.61325608 -16.45355225 26.13452148 C-14.88879955 23.54574275 -13.32251196 20.95789431 -11.75610352 18.37011719 C-11.00940349 17.13555595 -10.26345687 15.90053868 -9.51831055 14.66503906 C-8.48546693 12.95262515 -7.44982367 11.24190079 -6.4140625 9.53125 C-5.8257666 8.55736328 -5.2374707 7.58347656 -4.63134766 6.58007812 C-3.18417267 4.29128057 -1.66149435 2.1362971 0 0 Z " fill="#119DFB" transform="translate(246,90)"/>
<path d="M0 0 C3.69317895 1.23105965 3.95512279 2.15448847 5.828125 5.46875 C6.37339844 6.42056152 6.91867188 7.37237305 7.48046875 8.35302734 C8.06441406 9.39152832 8.64835938 10.4300293 9.25 11.5 C10.50368913 13.69097416 11.75895025 15.88104943 13.015625 18.0703125 C13.66724609 19.20887695 14.31886719 20.34744141 14.99023438 21.52050781 C18.2487486 27.18498569 21.6272999 32.7780405 25 38.375 C25.61004883 39.38884766 26.22009766 40.40269531 26.84863281 41.44726562 C28.01160953 43.37937977 29.17508322 45.31119488 30.33911133 47.24267578 C33.55446178 52.58063961 36.75937254 57.92485865 39.95703125 63.2734375 C43.93248047 69.91871473 47.93653525 76.54582507 51.96298218 83.16035461 C55.98479967 89.76783707 59.99543103 96.38205149 64 103 C65.01054443 104.66869141 65.01054443 104.66869141 66.04150391 106.37109375 C67.8895647 109.43033659 69.72784562 112.49520332 71.5625 115.5625 C72.11647461 116.47781494 72.67044922 117.39312988 73.24121094 118.33618164 C73.74040039 119.17528076 74.23958984 120.01437988 74.75390625 120.87890625 C75.19033447 121.6066626 75.6267627 122.33441895 76.07641602 123.08422852 C77 125 77 125 77 128 C-22.66 128 -122.32 128 -225 128 C-223.40965892 123.22897677 -222.57796268 121.06400906 -219.75 117.3125 C-216.6160282 112.98865924 -214.01663073 108.57044372 -211.5546875 103.8359375 C-211.04164063 102.90007812 -210.52859375 101.96421875 -210 101 C-209.69371369 100.34226861 -209.38742737 99.68453721 -209.07185966 99.00687456 C-206.18414717 93.45470165 -206.18414717 93.45470165 -203.08258951 92.26373196 C-200.67976265 91.98834716 -198.3886869 91.97161576 -195.9707489 92.03796387 C-195.05992815 92.03112847 -194.1491074 92.02429307 -193.21068603 92.01725054 C-190.15700069 92.00406667 -187.10682819 92.04807182 -184.0534668 92.09179688 C-181.86556583 92.09405335 -179.6776588 92.09278704 -177.48976135 92.08825684 C-171.5475688 92.08595869 -165.60666455 92.13303659 -159.6647718 92.1888485 C-153.4561716 92.23881319 -147.24754281 92.24355473 -141.03877258 92.25305176 C-129.94921258 92.27651543 -118.86018634 92.33430629 -107.77087001 92.4101935 C-97.7052676 92.47871007 -87.63976018 92.52866832 -77.57397461 92.56054688 C-76.58127551 92.56369956 -76.58127551 92.56369956 -75.56852188 92.56691593 C-72.24841204 92.57735636 -68.92830125 92.58744795 -65.60818994 92.59741116 C-38.07179708 92.68106242 -10.53593181 92.8218026 17 93 C14.67489654 88.9955487 12.34522635 84.99380213 10.01147461 80.99438477 C9.21988077 79.6363766 8.4294913 78.2776656 7.64038086 76.91821289 C6.49917399 74.95268076 5.35351088 72.98980391 4.20703125 71.02734375 C3.68795952 70.13002785 3.68795952 70.13002785 3.15840149 69.21458435 C0.6645233 64.95947418 -2.11021988 60.99674259 -5 57 C-5.97408244 55.31225819 -6.91509877 53.6047341 -7.8125 51.875 C-9.48972052 48.68343865 -11.22457435 45.60637866 -13.23046875 42.61328125 C-13.79447388 41.75790771 -13.79447388 41.75790771 -14.36987305 40.88525391 C-15.45080942 39.26139745 -16.55305895 37.65178904 -17.65625 36.04296875 C-19 33 -19 33 -18.41796875 29.9375 C-17.03642307 27.07545495 -15.56478781 24.46298567 -13.8125 21.8125 C-13.19503906 20.86761719 -12.57757813 19.92273438 -11.94140625 18.94921875 C-11.30074219 17.97597656 -10.66007813 17.00273437 -10 16 C-8.7463979 14.04397055 -7.49627765 12.08570433 -6.25 10.125 C-5.69828125 9.26132813 -5.1465625 8.39765625 -4.578125 7.5078125 C-3.01611501 5.02560851 -1.49955373 2.52033427 0 0 Z " fill="#FB8774" transform="translate(245,213)"/>
<path d="M0 0 C1.66573986 0.00225717 3.33148767 0.0009888 4.9972229 -0.00354004 C9.51607557 -0.00583562 14.03322966 0.04119703 18.55168748 0.09705162 C23.27482379 0.14706105 27.99799904 0.15176131 32.72135925 0.16125488 C41.66410011 0.18612047 50.60605861 0.25176991 59.54845494 0.3320508 C69.72964496 0.42146897 79.91087234 0.46545561 90.09235728 0.50561428 C111.03490859 0.58923618 131.9767556 0.72995043 152.91870117 0.90820312 C152.91870117 1.23820312 152.91870117 1.56820313 152.91870117 1.90820312 C114.63870117 2.23820312 76.35870117 2.56820313 36.91870117 2.90820312 C36.91870117 3.56820313 36.91870117 4.22820312 36.91870117 4.90820312 C34.93870117 4.90820312 32.95870117 4.90820312 30.91870117 4.90820312 C30.91870117 4.24820312 30.91870117 3.58820313 30.91870117 2.90820312 C29.59870117 2.90820312 28.27870117 2.90820312 26.91870117 2.90820312 C26.58870117 3.56820313 26.25870117 4.22820312 25.91870117 4.90820312 C20.91870117 4.90820312 20.91870117 4.90820312 18.66870117 4.34570312 C15.25040887 3.80188389 12.32111219 4.38475528 8.91870117 4.90820312 C8.42370117 4.41320312 8.42370117 4.41320312 7.91870117 3.90820312 C5.17927543 3.80729253 2.47043889 3.76954109 -0.26879883 3.78320312 C-1.40285156 3.77740234 -1.40285156 3.77740234 -2.55981445 3.77148438 C-6.84433391 3.77891633 -10.86210064 4.06032598 -15.08129883 4.90820312 C-15.74129883 6.88820313 -16.40129883 8.86820312 -17.08129883 10.90820312 C-17.74129883 10.90820312 -18.40129883 10.90820312 -19.08129883 10.90820312 C-19.08129883 11.89820313 -19.08129883 12.88820313 -19.08129883 13.90820312 C-19.88567383 14.69195312 -20.69004883 15.47570312 -21.51879883 16.28320312 C-24.20077673 19.03059512 -24.88360411 20.15200344 -25.08129883 23.90820312 C-24.75129883 24.89820313 -24.42129883 25.88820313 -24.08129883 26.90820312 C-25.01879883 29.59570312 -25.01879883 29.59570312 -26.08129883 31.90820312 C-11.83977262 32.92310868 2.33364163 32.99914563 16.60620117 32.90820312 C20.86010555 32.88123294 25.11396071 32.86143846 29.36791992 32.84570312 C30.30584885 32.83740479 31.24377777 32.82910645 32.21012878 32.82055664 C37.33063625 32.80220728 42.3777914 32.99747106 47.48287964 33.401474 C57.2509772 34.10142241 67.0184596 34.0843107 76.80712891 34.11352539 C78.86843045 34.1231257 80.92973011 34.13313696 82.99102783 34.14352417 C88.54160329 34.17034638 94.09218705 34.19147741 99.64279056 34.21152616 C105.46036682 34.23352718 111.27791816 34.26084622 117.09547424 34.2875824 C128.09161885 34.33731977 139.08777743 34.38232821 150.08394915 34.42560476 C162.61128193 34.47514006 175.13858969 34.52999731 187.6658982 34.58528435 C213.41680913 34.69881308 239.16774411 34.80571449 264.91870117 34.90820312 C265.24870117 34.24820313 265.57870117 33.58820313 265.91870117 32.90820312 C265.91870117 33.89820313 265.91870117 34.88820313 265.91870117 35.90820312 C166.25870117 35.90820312 66.59870117 35.90820312 -36.08129883 35.90820312 C-34.49095775 31.1371799 -33.65926151 28.97221218 -30.83129883 25.22070312 C-27.69732703 20.89686237 -25.09792956 16.47864684 -22.63598633 11.74414062 C-22.12293945 10.80828125 -21.60989258 9.87242187 -21.08129883 8.90820312 C-20.85682729 8.24984718 -20.63235575 7.59149124 -20.40108204 6.91318512 C-16.66092275 -1.80470131 -8.12325473 -0.15323898 0 0 Z " fill="#E08B85" transform="translate(56.081298828125,305.091796875)"/>
<path d="M0 0 C0.33 0.66 0.66 1.32 1 2 C0.22265625 3.7265625 0.22265625 3.7265625 -0.9375 5.625 C-1.618125 6.73875 -2.29875 7.8525 -3 9 C16.76656341 8.89283796 36.53308739 8.78009048 56.29958057 8.66066074 C65.4771325 8.60534048 74.65468831 8.55186043 83.83227539 8.50268555 C91.82978287 8.45982906 99.82726186 8.41354735 107.82472533 8.36312145 C112.06081763 8.33653233 116.29690432 8.31167952 120.53302956 8.29092598 C124.51793974 8.27134913 128.50279576 8.24720217 132.48765755 8.21950912 C133.95220202 8.21014426 135.41675837 8.20246694 136.88132095 8.19658089 C138.87714734 8.18831026 140.87294319 8.1734446 142.86872864 8.15821838 C144.54593097 8.14853956 144.54593097 8.14853956 146.25701618 8.1386652 C149.09211646 8.11814292 149.09211646 8.11814292 152 7 C152.33 5.35 152.66 3.7 153 2 C155.71595986 5.1540179 156.96846241 6.87384964 158 11 C104.21 11 50.42 11 -5 11 C-5 7.58678765 -4.33132534 6.60527115 -2.5 3.8125 C-2.0359375 3.09707031 -1.571875 2.38164062 -1.09375 1.64453125 C-0.7328125 1.10183594 -0.371875 0.55914062 0 0 Z " fill="#9C64EB" transform="translate(60,270)"/>
<path d="M0 0 C2.82598879 2.53712673 4.59923389 5.40332454 6.5546875 8.64453125 C6.89277435 9.20252914 7.23086121 9.76052704 7.57919312 10.33543396 C8.68211826 12.15855171 9.7786559 13.98541847 10.875 15.8125 C11.63742263 17.07601094 12.40012039 18.33935589 13.16308594 19.60253906 C18.42963518 28.33407708 23.64233295 37.09764937 28.80029297 45.89379883 C29.28385254 46.71775146 29.76741211 47.5417041 30.265625 48.390625 C30.72001953 49.16728516 31.17441406 49.94394531 31.64257812 50.74414062 C33.37504827 53.62328165 35.2232526 56.42085822 37.10839844 59.20214844 C38 61 38 61 38 65 C24.47 65 10.94 65 -3 65 C-2.67 64.34 -2.34 63.68 -2 63 C10.21 63 22.42 63 35 63 C35.495 62.01 35.495 62.01 36 61 C33.69 60.67 31.38 60.34 29 60 C29 56.7 29 53.4 29 50 C28.01 50 27.02 50 26 50 C25.34 48.35 24.68 46.7 24 45 C23.34 45.99 22.68 46.98 22 48 C20.95994298 44.61981469 20.91995518 41.5219721 21 38 C19.68 37.34 18.36 36.68 17 36 C17 34.68 17 33.36 17 32 C16.01 31.67 15.02 31.34 14 31 C14.33 30.01 14.66 29.02 15 28 C14.34 27.34 13.68 26.68 13 26 C12.28072705 23.68234271 11.6090107 21.34904126 11 19 C9.02 19.99 9.02 19.99 7 21 C4.875 15.375 4.875 15.375 6 12 C4.14402692 10.05395145 4.14402692 10.05395145 2.4375 8.8125 C0.29194959 6.10724078 0.31750194 3.36552054 0 0 Z " fill="#F5BB72" transform="translate(283,275)"/>
<path d="M0 0 C3.32624874 1.10874958 3.57359199 1.45665697 5.26171875 4.30859375 C5.65810547 4.97310547 6.05449219 5.63761719 6.46289062 6.32226562 C7.06907227 7.36930664 7.06907227 7.36930664 7.6875 8.4375 C8.10322266 9.13166016 8.51894531 9.82582031 8.94726562 10.54101562 C12 15.71913485 12 15.71913485 12 18 C9.13275314 17.42655063 8.1385485 17.1385485 6 15 C6.375 12.875 6.375 12.875 7 11 C6.01 11.33 5.02 11.66 4 12 C3.67 11.34 3.34 10.68 3 10 C0.98330173 8.86649466 0.98330173 8.86649466 -1 8 C-4.71458287 11.95423338 -5.30192258 14.7145567 -6 20 C-6.99 20.66 -7.98 21.32 -9 22 C-9.144375 22.66 -9.28875 23.32 -9.4375 24 C-10 26 -10 26 -12.0625 27.25 C-12.701875 27.4975 -13.34125 27.745 -14 28 C-13.24242772 34.18684031 -12.3218432 40.60200479 -9 46 C-8.34 46.33 -7.68 46.66 -7 47 C-7.66 47.66 -8.32 48.32 -9 49 C-10.73461389 46.47310572 -12.43647719 43.93241784 -14.125 41.375 C-14.61871094 40.66214844 -15.11242187 39.94929688 -15.62109375 39.21484375 C-19.12869551 33.82993401 -19.12869551 33.82993401 -18.50390625 29.80078125 C-17.02896066 27.05393452 -15.53226206 24.4137877 -13.8125 21.8125 C-13.19503906 20.86761719 -12.57757813 19.92273438 -11.94140625 18.94921875 C-11.30074219 17.97597656 -10.66007813 17.00273437 -10 16 C-8.7463979 14.04397055 -7.49627765 12.08570433 -6.25 10.125 C-5.69828125 9.26132813 -5.1465625 8.39765625 -4.578125 7.5078125 C-3.01611501 5.02560851 -1.49955373 2.52033427 0 0 Z " fill="#EE7380" transform="translate(245,213)"/>
<path d="M0 0 C0.33 0.66 0.66 1.32 1 2 C2.52216125 1.75650314 2.52216125 1.75650314 4.07507324 1.50808716 C7.7074156 1.03787545 11.1403596 0.87314259 14.79882812 0.87060547 C16.76752869 0.86587723 16.76752869 0.86587723 18.77600098 0.86105347 C20.19441766 0.86284509 21.61283404 0.86489649 23.03125 0.8671875 C24.50988786 0.86651233 25.98852561 0.86554054 27.46716309 0.86428833 C30.56373147 0.86281769 33.66027093 0.86494305 36.75683594 0.86962891 C40.6820536 0.87528571 44.60720225 0.87206903 48.5324173 0.86605644 C51.58862809 0.86239924 54.64482322 0.86361344 57.70103455 0.86618423 C59.14558419 0.86684143 60.59013536 0.86606844 62.03468323 0.86370468 C71.73292673 0.85132966 81.3338296 1.23793903 91 2 C91 2.33 91 2.66 91 3 C79.58744453 3.85902199 68.25462596 4.13581578 56.8125 4.09765625 C55.13142947 4.09578485 53.45035839 4.09436437 51.76928711 4.09336853 C47.40306011 4.0896001 43.03686783 4.07982028 38.6706543 4.06866455 C34.19189931 4.05832644 29.71313855 4.0538447 25.234375 4.04882812 C16.48956762 4.03819127 7.74478816 4.02118557 -1 4 C-0.67 2.68 -0.34 1.36 0 0 Z " fill="#E37D88" transform="translate(21,337)"/>
<path d="M0 0 C0.81027649 -0.00014603 1.62055298 -0.00029205 2.4553833 -0.0004425 C5.12287104 0.00025192 7.79028819 0.00802227 10.45776367 0.01586914 C12.31149762 0.01773499 14.16523206 0.01915811 16.01896667 0.02015686 C20.8900591 0.02396888 25.76112154 0.03378793 30.63220215 0.04486084 C35.60595291 0.05510324 40.57970852 0.05966054 45.5534668 0.06469727 C55.30673515 0.07541139 65.05998129 0.09247201 74.81323242 0.11352539 C74.48323242 0.77352539 74.15323242 1.43352539 73.81323242 2.11352539 C72.86061523 2.10192383 71.90799805 2.09032227 70.92651367 2.07836914 C69.67225586 2.0693457 68.41799805 2.06032227 67.12573242 2.05102539 C65.26368164 2.03362305 65.26368164 2.03362305 63.36401367 2.01586914 C60.34386663 2.09893149 57.74840628 2.48418181 54.81323242 3.11352539 C53.47989909 2.78019206 52.14656576 2.44685872 50.81323242 2.11352539 C48.33294715 2.49510774 45.979856 3.06724106 43.56323242 3.73852539 C40.21038668 4.19573163 37.23881038 3.81765621 33.89916992 3.36743164 C31.66711817 3.05310989 31.66711817 3.05310989 28.81323242 3.11352539 C28.81323242 2.45352539 28.81323242 1.79352539 28.81323242 1.11352539 C26.17323242 1.11352539 23.53323242 1.11352539 20.81323242 1.11352539 C20.81323242 1.77352539 20.81323242 2.43352539 20.81323242 3.11352539 C20.25635742 2.90727539 19.69948242 2.70102539 19.12573242 2.48852539 C16.15369442 2.00657328 14.49343301 2.84787511 11.81323242 4.11352539 C11.81323242 3.12352539 11.81323242 2.13352539 11.81323242 1.11352539 C10.82323242 1.11352539 9.83323242 1.11352539 8.81323242 1.11352539 C8.81323242 2.43352539 8.81323242 3.75352539 8.81323242 5.11352539 C8.15323242 5.11352539 7.49323242 5.11352539 6.81323242 5.11352539 C6.81323242 4.45352539 6.81323242 3.79352539 6.81323242 3.11352539 C5.82323242 3.44352539 4.83323242 3.77352539 3.81323242 4.11352539 C3.81323242 3.12352539 3.81323242 2.13352539 3.81323242 1.11352539 C-1.00871401 1.43856798 -1.00871401 1.43856798 -5.12426758 3.67602539 C-5.47489258 4.15040039 -5.82551758 4.62477539 -6.18676758 5.11352539 C-6.78489258 4.78352539 -7.38301758 4.45352539 -7.99926758 4.11352539 C-10.24063229 2.90564551 -10.24063229 2.90564551 -13.18676758 3.11352539 C-13.18676758 2.45352539 -13.18676758 1.79352539 -13.18676758 1.11352539 C-8.78842268 0.02317924 -4.50177852 -0.02134862 0 0 Z " fill="#F87477" transform="translate(108.186767578125,306.886474609375)"/>
<path d="M0 0 C0.99 1.98 0.99 1.98 2 4 C-51.79 4 -105.58 4 -161 4 C-161 3.67 -161 3.34 -161 3 C-81.8 2.505 -81.8 2.505 -1 2 C-0.67 1.34 -0.34 0.68 0 0 Z " fill="#9375CF" transform="translate(216,277)"/>
<path d="M0 0 C2.95774115 2.62598909 4.7700624 5.69264436 6.80078125 9.06640625 C7.15963913 9.65993393 7.51849701 10.25346161 7.88822937 10.86497498 C9.033729 12.7617268 10.17318299 14.66202945 11.3125 16.5625 C12.06666253 17.81338913 12.82121623 19.06404251 13.57617188 20.31445312 C15.04129352 22.74180622 16.50026484 25.17270615 17.95556641 27.60595703 C19.25820631 29.76851972 20.57660845 31.92172102 21.91552734 34.06201172 C22.47320801 34.95807129 23.03088867 35.85413086 23.60546875 36.77734375 C24.0955542 37.55198975 24.58563965 38.32663574 25.09057617 39.12475586 C25.39068604 39.74358643 25.6907959 40.36241699 26 41 C25.67 41.66 25.34 42.32 25 43 C24.67 42.01 24.34 41.02 24 40 C23.34 40 22.68 40 22 40 C21.67 39.34 21.34 38.68 21 38 C18.98330173 36.86649466 18.98330173 36.86649466 17 36 C17 34.68 17 33.36 17 32 C16.01 31.67 15.02 31.34 14 31 C14.33 30.01 14.66 29.02 15 28 C14.34 27.34 13.68 26.68 13 26 C12.28072705 23.68234271 11.6090107 21.34904126 11 19 C9.02 19.99 9.02 19.99 7 21 C4.875 15.375 4.875 15.375 6 12 C4.14402692 10.05395145 4.14402692 10.05395145 2.4375 8.8125 C0.29194959 6.10724078 0.31750194 3.36552054 0 0 Z " fill="#F6A474" transform="translate(283,275)"/>
<path d="M0 0 C5.83163777 5.16516489 9.40234138 11.67932572 12 19 C8.73991357 15.83047153 5.77762123 12.60062011 3 9 C2.608125 9.515625 2.21625 10.03125 1.8125 10.5625 C1.214375 11.036875 0.61625 11.51125 0 12 C-2.6875 11.6875 -2.6875 11.6875 -5 11 C-5.103125 11.5775 -5.20625 12.155 -5.3125 12.75 C-6.10896465 15.35661158 -7.19065277 16.9735311 -9 19 C-9.66 19 -10.32 19 -11 19 C-9.47730437 14.75877447 -7.32369719 11.04913327 -4.9375 7.25 C-4.57333984 6.66089844 -4.20917969 6.07179688 -3.83398438 5.46484375 C-1.15223689 1.15223689 -1.15223689 1.15223689 0 0 Z " fill="#129CF8" transform="translate(246,90)"/>
<path d="M0 0 C2.95749791 3.46741134 5.07848152 6.86873527 7 11 C6 12 6 12 2.12280273 12.11352539 C0.39305833 12.11336621 -1.33669081 12.10766849 -3.06640625 12.09765625 C-3.97502914 12.0962413 -4.88365204 12.09482635 -5.81980896 12.09336853 C-8.73407221 12.08775193 -11.64825981 12.07519665 -14.5625 12.0625 C-16.53320202 12.05748714 -18.50390524 12.05292386 -20.47460938 12.04882812 C-25.31643559 12.03777711 -30.15820495 12.02050138 -35 12 C-35.33 11.01 -35.66 10.02 -36 9 C-24.12 9 -12.24 9 0 9 C0.66 7.35 1.32 5.7 2 4 C1.34 4 0.68 4 0 4 C0 2.68 0 1.36 0 0 Z " fill="#369FDE" transform="translate(391,329)"/>
<path d="M0 0 C20.13 0 40.26 0 61 0 C61 0.33 61 0.66 61 1 C58.69 1 56.38 1 54 1 C54 1.66 54 2.32 54 3 C52.02 3 50.04 3 48 3 C48 2.34 48 1.68 48 1 C46.68 1 45.36 1 44 1 C43.67 1.66 43.34 2.32 43 3 C38 3 38 3 35.75 2.4375 C32.33170769 1.89368077 29.40241102 2.47655215 26 3 C25.67 2.67 25.34 2.34 25 2 C22.47142013 1.95234714 19.9647802 1.95716474 17.4375 2 C11.85813524 2.05445698 6.51877345 1.91979557 1 1 C0.67 1.66 0.34 2.32 0 3 C0 2.01 0 1.02 0 0 Z " fill="#F5677E" transform="translate(39,307)"/>
<path d="M0 0 C0.33 0.66 0.66 1.32 1 2 C0.67 2.66 0.34 3.32 0 4 C12.54 3.67 25.08 3.34 38 3 C38.33 2.01 38.66 1.02 39 0 C39.66 0 40.32 0 41 0 C39.125 4.875 39.125 4.875 38 6 C34.97022196 6.08871273 31.96332978 6.1151935 28.93359375 6.09765625 C28.02497086 6.0962413 27.11634796 6.09482635 26.18019104 6.09336853 C23.26592779 6.08775193 20.35174019 6.07519665 17.4375 6.0625 C15.46679798 6.05748714 13.49609476 6.05292386 11.52539062 6.04882812 C6.68356441 6.03777711 1.84179505 6.02050138 -3 6 C-1.125 1.125 -1.125 1.125 0 0 Z " fill="#3494DC" transform="translate(170,215)"/>
<path d="M0 0 C1.90164544 3.80329087 0.93549548 8.00288295 0 12 C-2.22155251 15.27386686 -5.30821016 15.93348294 -9 17 C-9.144375 17.78375 -9.28875 18.5675 -9.4375 19.375 C-10 22 -10 22 -11 24 C-11.66 24 -12.32 24 -13 24 C-13.33 25.32 -13.66 26.64 -14 28 C-14.66 28 -15.32 28 -16 28 C-14.60181429 24.21649746 -12.85257589 20.91464622 -10.7421875 17.48046875 C-9.80439453 15.9480957 -9.80439453 15.9480957 -8.84765625 14.38476562 C-7.87119141 12.80211914 -7.87119141 12.80211914 -6.875 11.1875 C-6.21628906 10.11306641 -5.55757812 9.03863281 -4.87890625 7.93164062 C-3.25602252 5.28563454 -1.62961877 2.64186151 0 0 Z " fill="#965EED" transform="translate(121,168)"/>
<path d="M0 0 C1.04528847 3.23408044 1.06464549 3.84300381 -0.3125 7.1875 C-2 10 -2 10 -4 11 C-4.73250071 12.66477433 -5.45978035 14.33224085 -6.1484375 16.015625 C-7.52104179 19.21417078 -9.12085011 22.0638283 -11 25 C-11.99 25.33 -12.98 25.66 -14 26 C-14 26.66 -14 27.32 -14 28 C-14.66 28 -15.32 28 -16 28 C-14.40729833 23.5455456 -12.14368413 19.70180546 -9.6875 15.6875 C-9.28668213 15.02613037 -8.88586426 14.36476074 -8.47290039 13.68334961 C-5.68801331 9.09743747 -2.86852106 4.53411394 0 0 Z " fill="#2999E9" transform="translate(197,170)"/>
<path d="M0 0 C3.73787208 4.39488522 6.69406992 9.15010282 9.6875 14.0625 C10.18572266 14.86494141 10.68394531 15.66738281 11.19726562 16.49414062 C11.67228516 17.27080078 12.14730469 18.04746094 12.63671875 18.84765625 C13.06686279 19.54898682 13.49700684 20.25031738 13.94018555 20.97290039 C14.99147048 22.98368565 15.55141644 24.78381691 16 27 C14 27 14 27 12.4375 25.9375 C10.35943153 23.13662511 10.32189473 20.41208416 10 17 C9.34 17 8.68 17 8 17 C7.67 15.35 7.34 13.7 7 12 C5.35 11.67 3.7 11.34 2 11 C2 9.02 2 7.04 2 5 C1.34 5 0.68 5 0 5 C0 3.35 0 1.7 0 0 Z " fill="#28A2E4" transform="translate(313,200)"/>
<path d="M0 0 C3.37102834 4.00648656 6.11912879 8.21589658 8.8125 12.6875 C9.44188477 13.70166992 9.44188477 13.70166992 10.08398438 14.73632812 C11.12098434 16.45327206 12.0686627 18.22352139 13 20 C12.67 20.66 12.34 21.32 12 22 C11.67 21.01 11.34 20.02 11 19 C10.34 19 9.68 19 9 19 C8.67 18.34 8.34 17.68 8 17 C5.98330173 15.86649466 5.98330173 15.86649466 4 15 C4 13.68 4 12.36 4 11 C3.01 10.67 2.02 10.34 1 10 C1.33 9.01 1.66 8.02 2 7 C1.34 6.34 0.68 5.68 0 5 C-0.125 2.375 -0.125 2.375 0 0 Z " fill="#F0B076" transform="translate(296,296)"/>
<path d="M0 0 C1.32 1.32 2.64 2.64 4 4 C2 6 2 6 -0.0625 6.4375 C-0.701875 6.623125 -1.34125 6.80875 -2 7 C-2.33 7.99 -2.66 8.98 -3 10 C-3.66 10 -4.32 10 -5 10 C-5.103125 10.7425 -5.20625 11.485 -5.3125 12.25 C-6.04933797 15.1973519 -6.94799142 16.78383074 -9 19 C-9.66 19 -10.32 19 -11 19 C-9.47730437 14.75877447 -7.32369719 11.04913327 -4.9375 7.25 C-4.57333984 6.66089844 -4.20917969 6.07179688 -3.83398438 5.46484375 C-1.15223689 1.15223689 -1.15223689 1.15223689 0 0 Z " fill="#3096DB" transform="translate(246,90)"/>
<path d="M0 0 C1.09658936 3.28976808 0.79953138 4.71303767 0 8 C-1.32 8.33 -2.64 8.66 -4 9 C-4 10.98 -4 12.96 -4 15 C-4.598125 15.20625 -5.19625 15.4125 -5.8125 15.625 C-8.81018767 17.50926082 -9.61361776 19.81132084 -11 23 C-11.66 23 -12.32 23 -13 23 C-11.73294681 19.63584449 -10.28886807 16.62968211 -8.3984375 13.57421875 C-7.90859375 12.77822266 -7.41875 11.98222656 -6.9140625 11.16210938 C-6.40617188 10.34548828 -5.89828125 9.52886719 -5.375 8.6875 C-4.859375 7.85154297 -4.34375 7.01558594 -3.8125 6.15429688 C-2.54512996 4.10068801 -1.27421427 2.04936659 0 0 Z " fill="#9366E1" transform="translate(171,85)"/>
<path d="M0 0 C1.140625 1.734375 1.140625 1.734375 2 4 C1.171875 6.140625 1.171875 6.140625 -0.25 8.25 C-0.70890625 8.95640625 -1.1678125 9.6628125 -1.640625 10.390625 C-2.08921875 10.92171875 -2.5378125 11.4528125 -3 12 C-3.66 12 -4.32 12 -5 12 C-5.66 13.32 -6.32 14.64 -7 16 C-7.66 15.67 -8.32 15.34 -9 15 C-7.68944504 12.68637791 -6.3766597 10.37407322 -5.0625 8.0625 C-4.50272461 7.0734668 -4.50272461 7.0734668 -3.93164062 6.06445312 C-1.11328125 1.11328125 -1.11328125 1.11328125 0 0 Z " fill="#9662E9" transform="translate(150,120)"/>
<path d="M0 0 C0.66 0 1.32 0 2 0 C2 0.99 2 1.98 2 3 C2.66 3 3.32 3 4 3 C4.66 4.98 5.32 6.96 6 9 C6.66 9 7.32 9 8 9 C8 10.32 8 11.64 8 13 C8.66 13 9.32 13 10 13 C10 13.99 10 14.98 10 16 C10.66 16 11.32 16 12 16 C12 16.66 12 17.32 12 18 C12.66 18 13.32 18 14 18 C14 19.98 14 21.96 14 24 C10.35517927 19.73351592 7.56729274 15.14038974 4.75 10.3125 C4.29109375 9.54099609 3.8321875 8.76949219 3.359375 7.97460938 C2.92625 7.23662109 2.493125 6.49863281 2.046875 5.73828125 C1.45664551 4.73341675 1.45664551 4.73341675 0.85449219 3.70825195 C0 2 0 2 0 0 Z " fill="#319EE0" transform="translate(341,314)"/>
<path d="M0 0 C0.66 0.33 1.32 0.66 2 1 C1.6875 4.375 1.6875 4.375 1 8 C0.01 8.66 -0.98 9.32 -2 10 C-2.72382467 12.05925139 -2.72382467 12.05925139 -3 14 C-4.32 14.33 -5.64 14.66 -7 15 C-5.34292168 9.35086937 -3.52237988 4.73699363 0 0 Z " fill="#F2717A" transform="translate(238,225)"/>
<path d="M0 0 C1.32 0 2.64 0 4 0 C2.62712658 3.69876091 0.93644547 6.9514476 -1.125 10.3125 C-1.66382813 11.19550781 -2.20265625 12.07851562 -2.7578125 12.98828125 C-3.37269531 13.98408203 -3.37269531 13.98408203 -4 15 C-4.33 13.68 -4.66 12.36 -5 11 C-4.34 11 -3.68 11 -3 11 C-3 10.01 -3 9.02 -3 8 C-3.66 7.67 -4.32 7.34 -5 7 C-4.01 6.67 -3.02 6.34 -2 6 C-2 5.01 -2 4.02 -2 3 C-1.01 3 -0.02 3 1 3 C0.67 2.01 0.34 1.02 0 0 Z " fill="#2397EF" transform="translate(230,177)"/>
<path d="M0 0 C2.94537436 2.75452937 5.04736782 5.4499779 7.0625 8.9375 C7.79146484 10.18853516 7.79146484 10.18853516 8.53515625 11.46484375 C9.01855469 12.30144531 9.50195312 13.13804687 10 14 C10.57621094 14.88816406 11.15242188 15.77632812 11.74609375 16.69140625 C12.15988281 17.45324219 12.57367188 18.21507812 13 19 C12.67 19.66 12.34 20.32 12 21 C9.02753198 18.45217026 7.58464712 15.54659117 6 12 C6 11.34 6 10.68 6 10 C4.68 9.67 3.36 9.34 2 9 C1.34 6.03 0.68 3.06 0 0 Z " fill="#2E9CE0" transform="translate(336,238)"/>
<path d="M0 0 C3.37244652 3.99697365 6.71374722 8.27090179 9 13 C8.67 13.66 8.34 14.32 8 15 C7.01 14.34 6.02 13.68 5 13 C5 12.34 5 11.68 5 11 C4.01 11 3.02 11 2 11 C-0.32590854 7.36576791 -0.16265833 4.22911669 0 0 Z " fill="#F0837E" transform="translate(257,231)"/>
<path d="M0 0 C1.48048438 2.96096876 0.5590922 5.06563364 -0.26171875 8.17578125 C-1 10 -1 10 -3 11.1875 C-3.66 11.455625 -4.32 11.72375 -5 12 C-5.68753301 13.65816784 -6.35561283 15.32459336 -7 17 C-7.99 17.33 -8.98 17.66 -10 18 C-8.47146065 13.72813475 -6.28490519 10.00673137 -3.875 6.1875 C-3.50246094 5.59001953 -3.12992187 4.99253906 -2.74609375 4.37695312 C-1.8342952 2.91573749 -0.91764024 1.45755415 0 0 Z " fill="#9662E8" transform="translate(101,201)"/>
<path d="M0 0 C2.125 0.9375 2.125 0.9375 4 2 C3.04801289 3.64951226 2.08820855 5.29451508 1.125 6.9375 C0.59132812 7.85402344 0.05765625 8.77054688 -0.4921875 9.71484375 C-2 12 -2 12 -4 13 C-2.88767123 3.46575342 -2.88767123 3.46575342 -2 1 C-1.34 0.67 -0.68 0.34 0 0 Z " fill="#945EE9" transform="translate(169,156)"/>
<path d="M0 0 C1.65 0.33 3.3 0.66 5 1 C4.6875 2.875 4.6875 2.875 4 5 C0.77208445 7.1519437 -0.28400809 7.20086443 -4 7 C-2.79618552 4.50638429 -1.54571278 2.31856917 0 0 Z " fill="#FB6983" transform="translate(26,332)"/>
<path d="M0 0 C0.95787834 3.05077691 1.07626949 3.80085189 -0.125 6.9375 C-2.43504318 10.71057052 -4.98199975 13.99099988 -9 16 C-7.56691865 12.04093183 -5.66858051 8.71281819 -3.375 5.1875 C-2.74335937 4.21167969 -2.11171875 3.23585937 -1.4609375 2.23046875 C-0.73777344 1.12638672 -0.73777344 1.12638672 0 0 Z " fill="#9561E6" transform="translate(84,230)"/>
<path d="M0 0 C1.14852438 3.44557313 1.11227953 4.58371287 0 8 C-1.51256314 10.25026938 -3.11045035 12.01827719 -5 14 C-5.66 14 -6.32 14 -7 14 C-7 14.99 -7 15.98 -7 17 C-7.66 17 -8.32 17 -9 17 C-7.51481201 12.95698825 -5.57122002 9.38853744 -3.375 5.6875 C-2.74335938 4.61886719 -2.11171875 3.55023438 -1.4609375 2.44921875 C-0.97882813 1.64097656 -0.49671875 0.83273438 0 0 Z " fill="#9564E4" transform="translate(140,136)"/>
<path d="M0 0 C0.33 0 0.66 0 1 0 C1 1.98 1 3.96 1 6 C0.01 6 -0.98 6 -2 6 C-2 6.99 -2 7.98 -2 9 C-2.66 9 -3.32 9 -4 9 C-3.67 10.32 -3.34 11.64 -3 13 C-4.65 14.32 -6.3 15.64 -8 17 C-8.33 16.34 -8.66 15.68 -9 15 C-7.61511707 12.37756211 -6.18421246 9.8901582 -4.625 7.375 C-4.19960937 6.66859375 -3.77421875 5.9621875 -3.3359375 5.234375 C-2.25843265 3.46808541 -1.1330578 1.73117753 0 0 Z " fill="#2E96DE" transform="translate(223,127)"/>
<path d="M0 0 C1.32 0 2.64 0 4 0 C2.6744419 3.62276315 1.05653045 6.63505348 -1.125 9.8125 C-1.66382813 10.60269531 -2.20265625 11.39289063 -2.7578125 12.20703125 C-3.37269531 13.09455078 -3.37269531 13.09455078 -4 14 C-4.87840996 10.90279155 -4.99435406 9.09354597 -4 6 C-2.68 6 -1.36 6 0 6 C0 4.02 0 2.04 0 0 Z " fill="#9163E1" transform="translate(161,170)"/>
<path d="M0 0 C0.33 1.32 0.66 2.64 1 4 C0.34 4 -0.32 4 -1 4 C-0.979375 4.7425 -0.95875 5.485 -0.9375 6.25 C-0.99328688 8.70462279 -1.3069904 10.66109261 -2 13 C-2.66 12.67 -3.32 12.34 -4 12 C-4.99 12.99 -5.98 13.98 -7 15 C-7 11.06025045 -5.52210525 9.17063907 -3.5 5.8125 C-2.8503125 4.72582031 -2.200625 3.63914063 -1.53125 2.51953125 C-1.0259375 1.68808594 -0.520625 0.85664063 0 0 Z M-1 9 C-0.34 9.66 0.32 10.32 1 11 C0.34 11 -0.32 11 -1 11 C-1 10.34 -1 9.68 -1 9 Z " fill="#2596E7" transform="translate(206,155)"/>
<path d="M0 0 C0.33 1.32 0.66 2.64 1 4 C0.34 4 -0.32 4 -1 4 C-1 4.99 -1 5.98 -1 7 C-1.66 7 -2.32 7 -3 7 C-3.33 9.64 -3.66 12.28 -4 15 C-5.65 15.66 -7.3 16.32 -9 17 C-6.84901218 10.93812525 -3.55762971 5.33644457 0 0 Z " fill="#2998E5" transform="translate(180,198)"/>
<path d="M0 0 C5.09888149 4.90160333 9.08519019 10.55673621 12 17 C12.33 17.66 12.66 18.32 13 19 C12.01 19 11.02 19 10 19 C8.74145508 17.47119141 8.74145508 17.47119141 7.51953125 15.3515625 C7.07802734 14.59359375 6.63652344 13.835625 6.18164062 13.0546875 C5.72982422 12.25289063 5.27800781 11.45109375 4.8125 10.625 C4.34908203 9.8309375 3.88566406 9.036875 3.40820312 8.21875 C0 2.29580495 0 2.29580495 0 0 Z " fill="#EC9987" transform="translate(252,287)"/>
<path d="M0 0 C2.59906228 1.29953114 3.03119513 2.6325589 4.375 5.1875 C6.40179653 8.95240987 8.56735677 12.486182 11 16 C10.67 16.66 10.34 17.32 10 18 C6.5156291 15.01339637 4.80063207 11.90221073 2.9296875 7.8046875 C2.02336415 5.82018034 2.02336415 5.82018034 0 4 C0 2.68 0 1.36 0 0 Z " fill="#319CDD" transform="translate(353,266)"/>
<path d="M0 0 C2.99381354 2.80466193 5.1993621 5.61184269 7.3125 9.125 C8.11107422 10.42824219 8.11107422 10.42824219 8.92578125 11.7578125 C9.28027344 12.49773437 9.63476562 13.23765625 10 14 C9.67 14.66 9.34 15.32 9 16 C5.86253389 13.90835593 5.51453987 13.21839722 4 10 C3.2265625 9.071875 3.2265625 9.071875 2.4375 8.125 C0.63615871 5.46214766 0.35927759 3.16164275 0 0 Z " fill="#279BE4" transform="translate(265,121)"/>
<path d="M0 0 C2.9156164 3.54039134 5.50127818 7.1626772 8 11 C7.67 11.66 7.34 12.32 7 13 C4.41608882 11.20049043 2.06581634 9.38682039 0 7 C-0.4375 3.125 -0.4375 3.125 0 0 Z " fill="#269EE5" transform="translate(364,284)"/>
<path d="M0 0 C0.33 1.32 0.66 2.64 1 4 C0.34 4 -0.32 4 -1 4 C-0.67 4.99 -0.34 5.98 0 7 C0 7.99 0 8.98 0 10 C-2.375 11.75 -2.375 11.75 -5 13 C-5.66 12.67 -6.32 12.34 -7 12 C-4.69 8.04 -2.38 4.08 0 0 Z " fill="#9561E5" transform="translate(70,253)"/>
<path d="M0 0 C1.32 0 2.64 0 4 0 C2.35821735 4.77609498 -0.26546702 8.79382904 -3 13 C-3.66 11.68 -4.32 10.36 -5 9 C-4.34 8.608125 -3.68 8.21625 -3 7.8125 C-0.70704279 6.15416901 -0.70704279 6.15416901 -0.8125 3.375 C-0.9053125 2.199375 -0.9053125 2.199375 -1 1 C-0.67 0.67 -0.34 0.34 0 0 Z " fill="#9064DE" transform="translate(209,90)"/>
<path d="M0 0 C0.66 0 1.32 0 2 0 C2 0.66 2 1.32 2 2 C2.66 2 3.32 2 4 2 C4.33 2.99 4.66 3.98 5 5 C5.99 5.66 6.98 6.32 8 7 C8.6875 10.625 8.6875 10.625 9 14 C4.4434473 10.28725335 2.42599607 5.20992598 0 0 Z " fill="#E88982" transform="translate(237,263)"/>
<path d="M0 0 C-1.485 2.475 -1.485 2.475 -3 5 C-5.86724686 4.42655063 -6.8614515 4.1385485 -9 2 C-8 0 -8 0 -6.1875 -0.6875 C-3.81180233 -1.02688538 -2.26664171 -0.72856341 0 0 Z " fill="#FA946E" transform="translate(265,307)"/>
<path d="M0 0 C2.30874711 2.16614803 4.05290181 4.39206608 5.75 7.0625 C6.19859375 7.75472656 6.6471875 8.44695312 7.109375 9.16015625 C7.40328125 9.76730469 7.6971875 10.37445313 8 11 C7.67 11.66 7.34 12.32 7 13 C6 12 5 11 4 10 C3.46375 9.5875 2.9275 9.175 2.375 8.75 C0.27758682 6.08056505 0.31190569 3.30620026 0 0 Z " fill="#F1A07F" transform="translate(283,275)"/>
<path d="M0 0 C1.37562854 1.28965176 2.70766393 2.62689293 4 4 C4 4.66 4 5.32 4 6 C4.99 6.33 5.98 6.66 7 7 C7.3721042 8.32303717 7.70630173 9.65737935 8 11 C8.66 11.33 9.32 11.66 10 12 C9.67 13.32 9.34 14.64 9 16 C7.49445366 13.71180854 5.99542957 11.41978831 4.5 9.125 C4.07074219 8.47402344 3.64148438 7.82304687 3.19921875 7.15234375 C0 2.2265625 0 2.2265625 0 0 Z " fill="#339ADD" transform="translate(253,167)"/>
<path d="M0 0 C0.33 1.32 0.66 2.64 1 4 C0.34 4 -0.32 4 -1 4 C-1 5.32 -1 6.64 -1 8 C-2.375 9.5 -2.375 9.5 -4 11 C-5.17574711 13.09989652 -5.17574711 13.09989652 -6 15 C-6.66 15 -7.32 15 -8 15 C-6.62712658 11.30123909 -4.93644547 8.0485524 -2.875 4.6875 C-2.33617188 3.80449219 -1.79734375 2.92148438 -1.2421875 2.01171875 C-0.83226562 1.34785156 -0.42234375 0.68398437 0 0 Z " fill="#9067DD" transform="translate(130,153)"/>
<path d="M0 0 C0.66 0 1.32 0 2 0 C0.35821735 4.77609498 -2.26546702 8.79382904 -5 13 C-6.60031344 9.79937313 -5.03173691 7.27728194 -4 4 C-2.68 3.67 -1.36 3.34 0 3 C0 2.01 0 1.02 0 0 Z " fill="#9164E4" transform="translate(185,133)"/>
<path d="M0 0 C0.66 0.33 1.32 0.66 2 1 C-0.64 5.29 -3.28 9.58 -6 14 C-6.33 12.68 -6.66 11.36 -7 10 C-6.34 10 -5.68 10 -5 10 C-4.9175 9.46375 -4.835 8.9275 -4.75 8.375 C-3.73623902 5.1647569 -1.92839451 2.73707608 0 0 Z " fill="#9166DD" transform="translate(198,112)"/>
<path d="M0 0 C3 2 3 2 3.6875 4.125 C3.8421875 5.053125 3.8421875 5.053125 4 6 C1.69 6.33 -0.62 6.66 -3 7 C-3 6.34 -3 5.68 -3 5 C-3.66 4.67 -4.32 4.34 -5 4 C-4.360625 3.525625 -3.72125 3.05125 -3.0625 2.5625 C-1.11706694 1.16261274 -1.11706694 1.16261274 0 0 Z " fill="#F7957A" transform="translate(277,265)"/>
<path d="M0 0 C0.97674523 3.09748658 1.05539128 3.84921262 -0.125 7.0625 C-2.12690348 10.19881545 -3.69432714 11.39183483 -7 13 C-5.35821735 8.22390502 -2.73453298 4.20617096 0 0 Z " fill="#2F96DE" transform="translate(197,170)"/>
<path d="M0 0 C0.66 0 1.32 0 2 0 C3.75 2.25 3.75 2.25 5 5 C4.1875 7.3125 4.1875 7.3125 3 9 C2.01 8.67 1.02 8.34 0 8 C0 5.36 0 2.72 0 0 Z " fill="#FBBF60" transform="translate(312,327)"/>
<path d="M0 0 C1 3 1 3 0.22265625 5.04296875 C-0.16019531 5.75066406 -0.54304688 6.45835937 -0.9375 7.1875 C-1.31777344 7.90292969 -1.69804688 8.61835938 -2.08984375 9.35546875 C-2.39019531 9.89816406 -2.69054687 10.44085938 -3 11 C-3.66 11 -4.32 11 -5 11 C-5.33 12.32 -5.66 13.64 -6 15 C-6.66 15 -7.32 15 -8 15 C-6.62712658 11.30123909 -4.93644547 8.0485524 -2.875 4.6875 C-2.33617188 3.80449219 -1.79734375 2.92148438 -1.2421875 2.01171875 C-0.83226563 1.34785156 -0.42234375 0.68398437 0 0 Z " fill="#9466DB" transform="translate(113,181)"/>
<path d="M0 0 C0.33 0.66 0.66 1.32 1 2 C2.64363134 2.72159424 4.31050386 3.39351421 6 4 C6 4.99 6 5.98 6 7 C5.34 6.67 4.68 6.34 4 6 C3.01 7.32 2.02 8.64 1 10 C1 7.69 1 5.38 1 3 C0.01 2.67 -0.98 2.34 -2 2 C-1.34 1.34 -0.68 0.68 0 0 Z " fill="#239AE8" transform="translate(242,153)"/>
<path d="M0 0 C2.63978826 3.18595135 5.10498388 6.30970546 7 10 C6.67 10.66 6.34 11.32 6 12 C5.34 11.67 4.68 11.34 4 11 C4 10.01 4 9.02 4 8 C2.68 7.67 1.36 7.34 0 7 C0 4.69 0 2.38 0 0 Z " fill="#249FE7" transform="translate(275,137)"/>
<path d="M0 0 C0.33 0.66 0.66 1.32 1 2 C-0.43359375 4.6015625 -0.43359375 4.6015625 -2.4375 7.625 C-3.42556641 9.12933594 -3.42556641 9.12933594 -4.43359375 10.6640625 C-4.95050781 11.43492188 -5.46742188 12.20578125 -6 13 C-7.43088528 10.13822943 -6.59991697 8.06624227 -6 5 C-5.01 4.67 -4.02 4.34 -3 4 C-3 3.34 -3 2.68 -3 2 C-2.01 1.34 -1.02 0.68 0 0 Z " fill="#9364DF" transform="translate(224,70)"/>
<path d="M0 0 C0.99 0 1.98 0 3 0 C3.66 1.65 4.32 3.3 5 5 C2.03 4.505 2.03 4.505 -1 4 C-1.144375 4.61875 -1.28875 5.2375 -1.4375 5.875 C-2 8 -2 8 -3 10 C-3.66 10 -4.32 10 -5 10 C-3.66786942 6.4134946 -2.23083941 3.12317517 0 0 Z " fill="#9268DB" transform="translate(206,28)"/>
<path d="M0 0 C2.61724095 2.36797991 4.32861729 4.89600354 6 8 C6 8.66 6 9.32 6 10 C3.5625 9.625 3.5625 9.625 1 9 C-0.4783226 6.04335481 -0.06032783 3.25770263 0 0 Z " fill="#269BE4" transform="translate(282,149)"/>
<path d="M0 0 C3.22269618 3.79817765 5.74520378 7.57391854 8 12 C7.67 12.66 7.34 13.32 7 14 C2.50664023 9.47915791 0.26327654 6.45027515 0 0 Z " fill="#309BE0" transform="translate(250,95)"/>
<path d="M0 0 C1.51413749 3.02827499 0.97636076 4.81055486 0 8 C-3.0625 9.875 -3.0625 9.875 -6 11 C-4.54955729 6.89041233 -2.48889248 3.56741255 0 0 Z " fill="#9466DF" transform="translate(181,69)"/>
<path d="M0 0 C0.66 0 1.32 0 2 0 C1.67 1.65 1.34 3.3 1 5 C-0.65 5.33 -2.3 5.66 -4 6 C-4 6.66 -4 7.32 -4 8 C-4.99 8.33 -5.98 8.66 -7 9 C-6.34 7.35 -5.68 5.7 -5 4 C-4.01 4 -3.02 4 -2 4 C-1.34 2.68 -0.68 1.36 0 0 Z " fill="#965EED" transform="translate(205,34)"/>
<path d="M0 0 C3.28465896 2.79196011 5.01321958 6.23196817 7 10 C7 10.66 7 11.32 7 12 C6.01 11.67 5.02 11.34 4 11 C4 9.68 4 8.36 4 7 C3.34 7 2.68 7 2 7 C0 4 0 4 0 0 Z " fill="#309CE0" transform="translate(379,309)"/>
<path d="M0 0 C0.66 0 1.32 0 2 0 C1.67 1.65 1.34 3.3 1 5 C0.34 5 -0.32 5 -1 5 C-1.33 6.65 -1.66 8.3 -2 10 C-2.99 10 -3.98 10 -5 10 C-3.66749209 6.4124787 -2.169283 3.1635377 0 0 Z " fill="#2A98E1" transform="translate(229,117)"/>
<path d="M0 0 C0.6875 1.6875 0.6875 1.6875 1 4 C-0.67292823 7.69805188 -2.18712958 9.55373881 -6 11 C-4.54955729 6.89041233 -2.48889248 3.56741255 0 0 Z " fill="#9862E2" transform="translate(194,48)"/>
<path d="M0 0 C0.68707555 2.49064888 1 4.37886292 1 7 C0.01 7 -0.98 7 -2 7 C-4.18777466 8.9375006 -4.18777466 8.9375006 -6 11 C-4.54955729 6.89041233 -2.48889248 3.56741255 0 0 Z " fill="#E3708C" transform="translate(28,326)"/>
<path d="M0 0 C3.64775386 3.88309282 4.58525633 6.71201818 5 12 C4.01 11.67 3.02 11.34 2 11 C2 9.02 2 7.04 2 5 C1.34 5 0.68 5 0 5 C0 3.35 0 1.7 0 0 Z " fill="#1D9BE7" transform="translate(313,200)"/>
<path d="M0 0 C2.94721162 2.74395564 5.19168608 5.38337216 7 9 C6.67 9.66 6.34 10.32 6 11 C5.34 10.67 4.68 10.34 4 10 C4 9.34 4 8.68 4 8 C3.34 8 2.68 8 2 8 C1.34 5.36 0.68 2.72 0 0 Z " fill="#2F9BDF" transform="translate(329,227)"/>
<path d="M0 0 C0.33 0.99 0.66 1.98 1 3 C1.66 3.33 2.32 3.66 3 4 C2.195625 4.61875 1.39125 5.2375 0.5625 5.875 C-2.03874519 7.74164041 -2.03874519 7.74164041 -3 10 C-3.66 10 -4.32 10 -5 10 C-3.66511872 6.40608886 -2.03977277 3.24509304 0 0 Z " fill="#9665E1" transform="translate(90,219)"/>
<path d="M0 0 C3.48331435 3.01887244 4.79157144 5.56909529 6 10 C4.68 9.67 3.36 9.34 2 9 C2 7.35 2 5.7 2 4 C1.34 4 0.68 4 0 4 C0 2.68 0 1.36 0 0 Z " fill="#299DE0" transform="translate(305,187)"/>
<path d="M0 0 C1.32 1.32 2.64 2.64 4 4 C3.34 4.66 2.68 5.32 2 6 C0.68 6 -0.64 6 -2 6 C-1.125 1.125 -1.125 1.125 0 0 Z " fill="#2C9CE6" transform="translate(246,90)"/>
<path d="M0 0 C1.32 0 2.64 0 4 0 C2.7508258 3.45925163 1.32472205 6.14693203 -1 9 C-1 7.02 -1 5.04 -1 3 C-0.34 3 0.32 3 1 3 C0.67 2.01 0.34 1.02 0 0 Z " fill="#2998E5" transform="translate(230,177)"/>
<path d="M0 0 C0.66 0 1.32 0 2 0 C2.66 1.65 3.32 3.3 4 5 C2.02 5.33 0.04 5.66 -2 6 C-1.49396008 3.83125748 -1.00016187 2.00032373 0 0 Z " fill="#945FED" transform="translate(210,33)"/>
<path d="M0 0 C0.99 0 1.98 0 3 0 C6 4.22222222 6 4.22222222 6 7 C6.66 7.33 7.32 7.66 8 8 C7.34 8.66 6.68 9.32 6 10 C4.02 6.7 2.04 3.4 0 0 Z " fill="#EC8186" transform="translate(230,252)"/>
<path d="M0 0 C0.66 0 1.32 0 2 0 C2.33 2.31 2.66 4.62 3 7 C1.35 7 -0.3 7 -2 7 C-2 5.68 -2 4.36 -2 3 C-1.34 3 -0.68 3 0 3 C0 2.01 0 1.02 0 0 Z " fill="#FB7373" transform="translate(250,224)"/>
<path d="M0 0 C0.99 0.33 1.98 0.66 3 1 C3.6875 3.0625 3.6875 3.0625 4 5 C2.02 5 0.04 5 -2 5 C-1.125 1.125 -1.125 1.125 0 0 Z " fill="#E5878D" transform="translate(245,213)"/>
<path d="M0 0 C0 4.24645065 -1.81750806 6.38524772 -4 10 C-4.98726527 7.33438378 -5.0275526 6.09873015 -4.25 3.3125 C-3 1 -3 1 0 0 Z " fill="#3098E0" transform="translate(218,202)"/>
<path d="M0 0 C0 4.24645065 -1.81750806 6.38524772 -4 10 C-5 7 -5 7 -4.25 4.4375 C-3 2 -3 2 0 0 Z " fill="#9065DD" transform="translate(155,185)"/>
<path d="M0 0 C1 3 1 3 -0.25 6 C-1.69149811 8.47113961 -2.85630917 10.16255071 -5 12 C-5 8.55639368 -4.20408468 7.25204608 -2.5 4.3125 C-2.0359375 3.50425781 -1.571875 2.69601563 -1.09375 1.86328125 C-0.7328125 1.24839844 -0.371875 0.63351563 0 0 Z " fill="#9466DA" transform="translate(97,207)"/>
<path d="M0 0 C2.61500768 2.36595933 4.38999603 4.86049226 6 8 C5.67 8.66 5.34 9.32 5 10 C4.67 9.01 4.34 8.02 4 7 C3.34 7 2.68 7 2 7 C0 4 0 4 0 0 Z " fill="#E9BA7F" transform="translate(303,308)"/>
<path d="M0 0 C2.74277578 3.19990508 4.6302836 6.00499382 6 10 C5.01 9.67 4.02 9.34 3 9 C3 8.01 3 7.02 3 6 C2.34 6 1.68 6 1 6 C0.67 4.02 0.34 2.04 0 0 Z " fill="#309ADC" transform="translate(372,297)"/>
<path d="M0 0 C0.928125 0.2784375 0.928125 0.2784375 1.875 0.5625 C4.04160178 1.23686176 4.04160178 1.23686176 6 0 C5.34 1.65 4.68 3.3 4 5 C3.34 4.34 2.68 3.68 2 3 C1.01 3.33 0.02 3.66 -1 4 C-0.67 2.68 -0.34 1.36 0 0 Z " fill="#995DEF" transform="translate(119,236)"/>
<path d="M0 0 C0.66 0 1.32 0 2 0 C2.33 0.99 2.66 1.98 3 3 C1.35 4.32 -0.3 5.64 -2 7 C-2.33 6.34 -2.66 5.68 -3 5 C-1.6875 2.375 -1.6875 2.375 0 0 Z " fill="#289AEA" transform="translate(217,137)"/>
<path d="M0 0 C2.74277578 3.19990508 4.6302836 6.00499382 6 10 C5.34 10 4.68 10 4 10 C2 7 2 7 2 4 C1.34 4 0.68 4 0 4 C0 2.68 0 1.36 0 0 Z " fill="#8F66DF" transform="translate(218,45)"/>
<path d="M0 0 C4.42857143 5.14285714 4.42857143 5.14285714 5 9 C4.34 9 3.68 9 3 9 C3 8.01 3 7.02 3 6 C1.68 5.34 0.36 4.68 -1 4 C-0.67 2.68 -0.34 1.36 0 0 Z " fill="#EF9185" transform="translate(266,246)"/>
<path d="M0 0 C1.1875 1.6875 1.1875 1.6875 2 4 C0.625 6.75 0.625 6.75 -1 9 C-2.25640898 6.48718205 -2.20872719 4.78302919 -2 2 C-1.34 1.34 -0.68 0.68 0 0 Z " fill="#9063EB" transform="translate(189,124)"/>
<path d="M0 0 C0.66 0 1.32 0 2 0 C1.67 1.98 1.34 3.96 1 6 C-0.32 6.33 -1.64 6.66 -3 7 C-1.125 2.25 -1.125 2.25 0 0 Z " fill="#F96C75" transform="translate(234,233)"/>
<path d="M0 0 C0.33 0.66 0.66 1.32 1 2 C0.22265625 3.7265625 0.22265625 3.7265625 -0.9375 5.625 C-1.618125 6.73875 -2.29875 7.8525 -3 9 C-3.33 9 -3.66 9 -4 9 C-4 7.35 -4 5.7 -4 4 C-3.01 3.67 -2.02 3.34 -1 3 C-0.67 2.01 -0.34 1.02 0 0 Z " fill="#9164E0" transform="translate(133,221)"/>
<path d="M0 0 C0.33 0.99 0.66 1.98 1 3 C1.66 3 2.32 3 3 3 C2.34 4.65 1.68 6.3 1 8 C-0.42944945 5.64561267 -1.08661261 4.51967567 -0.625 1.75 C-0.41875 1.1725 -0.2125 0.595 0 0 Z " fill="#9260ED" transform="translate(173,148)"/>
</svg>
