<?xml version="1.0" encoding="UTF-8"?>
<svg version="1.1" xmlns="http://www.w3.org/2000/svg" width="500" height="168">
<path d="M0 0 C2 2 2 2 2.22705078 4.70556641 C2.21134033 6.38658447 2.21134033 6.38658447 2.1953125 8.1015625 C2.18564453 9.91914062 2.18564453 9.91914062 2.17578125 11.7734375 C2.15902344 13.04445313 2.14226562 14.31546875 2.125 15.625 C2.11597656 16.90375 2.10695313 18.1825 2.09765625 19.5 C2.07402303 22.66685167 2.04107629 25.83333424 2 29 C5.68107473 25.38217397 9.05650813 21.63786805 12.3515625 17.671875 C14.97689325 15.00921727 16.99934863 15.00001104 20.6875 14.9375 C21.780625 14.958125 22.87375 14.97875 24 15 C24.495 16.485 24.495 16.485 25 18 C23.671875 19.9375 23.671875 19.9375 21.75 22 C21.12609375 22.680625 20.5021875 23.36125 19.859375 24.0625 C18.70349037 25.26695121 17.51384007 26.44096139 16.27734375 27.5625 C14.68722556 29.05461048 14.68722556 29.05461048 14.8125 32 C16.10492798 38.95237118 22.08648977 45.18598181 27 50 C27.14187744 49.47970215 27.28375488 48.9594043 27.42993164 48.42333984 C29.71171054 40.43586225 32.61049737 32.6978486 35.56079102 24.93896484 C36.44212621 22.6127897 37.30795507 20.2811862 38.17382812 17.94921875 C38.73863856 16.45797516 39.3043614 14.96707675 39.87109375 13.4765625 C40.12539658 12.78486969 40.3796994 12.09317688 40.64170837 11.38052368 C42.1576955 7.4547865 43.63060878 4.58508379 47 2 C50.5 1.6875 50.5 1.6875 54 3 C55.08770752 4.77626038 55.08770752 4.77626038 55.98925781 7.01196289 C56.49181091 8.23207565 56.49181091 8.23207565 57.0045166 9.47683716 C57.33302612 10.3094809 57.66153564 11.14212463 58 12 C58.30562866 12.74603485 58.61125732 13.4920697 58.92614746 14.26071167 C59.85690019 16.5416083 60.76693904 18.82983917 61.671875 21.12109375 C61.99915588 21.94706558 62.32643677 22.77303741 62.66363525 23.6240387 C63.34690033 25.35044728 64.02916234 27.07725317 64.71044922 28.80444336 C65.75749247 31.45647752 66.81025665 34.10619539 67.86328125 36.75585938 C68.52899329 38.43996686 69.1943702 40.12420687 69.859375 41.80859375 C70.17493347 42.6012413 70.49049194 43.39388885 70.81561279 44.21055603 C73 49.77099182 73 49.77099182 73 52 C69.80148001 53.59925999 66.47169762 53.49188324 63 53 C59.11182186 49.88945749 59.2593019 46.0372076 58 41 C52.39 41 46.78 41 41 41 C40.566875 42.60875 40.13375 44.2175 39.6875 45.875 C38.375 50.75 38.375 50.75 35 53 C32.15862728 53.27487822 29.46752275 53.41589299 26.625 53.4375 C25.86960937 53.47037109 25.11421875 53.50324219 24.3359375 53.53710938 C20.2010244 53.57686815 18.50975967 53.39982523 15.15625 50.76953125 C12.67683718 47.58492312 10.53514712 44.32764556 8.4296875 40.890625 C7.05688932 38.70454442 7.05688932 38.70454442 4 38 C3.87882812 38.91523437 3.75765625 39.83046875 3.6328125 40.7734375 C3.46523438 41.96195313 3.29765625 43.15046875 3.125 44.375 C2.96257812 45.55835938 2.80015625 46.74171875 2.6328125 47.9609375 C2 51 2 51 0 53 C-2.68839385 53.26991906 -5.29141936 53.08737357 -8 53 C-9.2107496 50.5785008 -9.13965127 49.01230155 -9.16113281 46.30664062 C-9.17074036 45.33223022 -9.1803479 44.35781982 -9.19024658 43.35388184 C-9.19449646 42.29866333 -9.19874634 41.24344482 -9.203125 40.15625 C-9.20882507 39.07621704 -9.21452515 37.99618408 -9.22039795 36.88342285 C-9.22985444 34.59693382 -9.2363845 32.31043112 -9.24023438 30.02392578 C-9.24996007 26.51440925 -9.280986 23.00547323 -9.3125 19.49609375 C-9.31902778 17.27864933 -9.32427914 15.0612007 -9.328125 12.84375 C-9.3466452 11.26092224 -9.3466452 11.26092224 -9.36553955 9.64611816 C-9.36253845 8.67170776 -9.35953735 7.69729736 -9.35644531 6.69335938 C-9.36191376 5.40335022 -9.36191376 5.40335022 -9.36749268 4.08728027 C-9.24622009 3.39847778 -9.12494751 2.70967529 -9 2 C-5.54754176 -0.30163882 -4.05261287 -0.34490322 0 0 Z M49 17 C48.1319092 18.91040052 47.28098217 20.82860737 46.4375 22.75 C45.96183594 23.81734375 45.48617187 24.8846875 44.99609375 25.984375 C43.65609179 29.13900055 43.65609179 29.13900055 45 33 C49.455 32.505 49.455 32.505 54 32 C53.43179252 26.54520815 52.05362055 22.08940744 50 17 C49.67 17 49.34 17 49 17 Z " fill="#E3E1E2" transform="translate(267,71)"/>
<path d="M0 0 C2.1892074 1.86082629 3.73389911 3.95871421 5.25 6.375 C5.78367187 7.22191406 5.78367187 7.22191406 6.328125 8.0859375 C7.26907584 10.76655326 6.74915147 12.25851187 6 15 C4.92819814 17.10434039 3.77480553 19.1679127 2.5703125 21.19921875 C2.22388199 21.78761032 1.87745148 22.37600189 1.52052307 22.98222351 C0.39570978 24.88824371 -0.73938719 26.78789801 -1.875 28.6875 C-2.65178812 29.99856319 -3.42807168 31.30992546 -4.20385742 32.62158203 C-9.3239899 41.26179304 -14.51730929 49.85707497 -19.80078125 58.3984375 C-21.95092699 61.88664056 -23.98545915 65.43191163 -26 69 C-25.30438965 68.94763184 -24.6087793 68.89526367 -23.89208984 68.84130859 C-20.72065712 68.63262695 -17.55066236 68.5031986 -14.375 68.375 C-13.28058594 68.29121094 -12.18617187 68.20742187 -11.05859375 68.12109375 C-7.76093333 68.02116465 -5.16620383 68.05272949 -2 69 C0.59545697 71.74664864 4 75.99058467 4 80 C-13.16 80 -30.32 80 -48 80 C-41.20812552 67.54823012 -34.23431198 55.30758411 -26.875 43.1875 C-26.28912109 42.22102539 -25.70324219 41.25455078 -25.09960938 40.25878906 C-22.39702911 35.82710587 -19.65493727 31.44156096 -16.75390625 27.13671875 C-14.67016719 24.04452992 -12.78192972 20.93842992 -11.0625 17.625 C-3.54545455 3.54545455 -3.54545455 3.54545455 0 0 Z " fill="#9657F6" transform="translate(77,41)"/>
<path d="M0 0 C3.08280661 3.08280661 4.72443359 4.90696873 6.734375 8.52734375 C7.22260742 9.39625244 7.71083984 10.26516113 8.21386719 11.16040039 C8.97425293 12.5350647 8.97425293 12.5350647 9.75 13.9375 C13.85669244 21.27295017 18.07367477 28.46641687 22.671875 35.50390625 C24 38 24 38 24 42 C12.64713748 42.04638823 1.2942976 42.08190221 -10.05864048 42.10362434 C-15.33055029 42.11405109 -20.60239515 42.12819012 -25.87426758 42.15087891 C-30.96413243 42.17264671 -36.05393488 42.18457697 -41.1438427 42.18975449 C-43.08345458 42.19344316 -45.02306314 42.20064621 -46.96264839 42.21146011 C-49.68423913 42.2260273 -52.40557367 42.22797575 -55.12719727 42.22705078 C-55.92489532 42.23424133 -56.72259338 42.24143188 -57.54446411 42.24884033 C-62.40144129 42.23103738 -66.38872712 41.54334179 -71 40 C-70.02262231 38.35310365 -69.0430468 36.70751146 -68.0625 35.0625 C-67.51722656 34.14597656 -66.97195312 33.22945312 -66.41015625 32.28515625 C-65 30 -65 30 -64 29 C-61.9145818 28.8761366 -59.82499859 28.82200933 -57.73608398 28.79467773 C-56.7556311 28.77982834 -56.7556311 28.77982834 -55.75537109 28.76467896 C-53.58564936 28.73298366 -51.4159057 28.70827508 -49.24609375 28.68359375 C-47.74536048 28.66303113 -46.2446331 28.64203485 -44.74391174 28.62062073 C-40.78688307 28.56532845 -36.82980151 28.51595089 -32.87268066 28.46777344 C-28.8375984 28.4176105 -24.80259328 28.36189732 -20.76757812 28.30664062 C-12.84511723 28.1989716 -4.92259196 28.09754621 3 28 C2.4861248 27.07502464 2.4861248 27.07502464 1.96186829 26.13136292 C-1.02542114 20.75424194 -4.01271057 15.37712097 -7 10 C-3.535 5.05 -3.535 5.05 0 0 Z " fill="#F78577" transform="translate(89,99)"/>
<path d="M0 0 C3.01585769 2.81589321 5.15431575 5.60833795 7.25 9.15625 C8.15298828 10.67412109 8.15298828 10.67412109 9.07421875 12.22265625 C9.70972656 13.30417969 10.34523437 14.38570312 11 15.5 C12.01334848 17.20720799 13.02670038 18.91441401 14.04052734 20.62133789 C15.05884548 22.33759074 16.07435014 24.05551189 17.08984375 25.7734375 C19.70694756 30.19414863 22.35241132 34.59750841 25 39 C25.95579087 40.59501511 26.91151866 42.19006802 27.8671875 43.78515625 C30.23729352 47.73662301 32.62097684 51.67971146 35.0078125 55.62109375 C35.69807782 56.76357453 36.38818228 57.9061525 37.078125 59.04882812 C38.41627532 61.26418195 39.75730304 63.47780095 41.1015625 65.68945312 C41.71 66.69814453 42.3184375 67.70683594 42.9453125 68.74609375 C43.48687988 69.63997803 44.02844727 70.5338623 44.58642578 71.45483398 C45.95403508 73.91723933 47.0176287 76.36324902 48 79 C43.10773614 79.84741386 38.86477304 80.11377869 34 79 C29.91971117 75.11863768 27.65722856 70.41432042 25.1875 65.4375 C24.46846832 64.08970787 23.74399287 62.7448061 23.01416016 61.40283203 C21.59695824 58.78373571 20.20594084 56.15364372 18.83837891 53.50830078 C16.66669398 49.36392994 14.32919893 45.35623171 11.875 41.375 C11.21371094 40.27800781 10.55242187 39.18101563 9.87109375 38.05078125 C6.97467592 33.32822942 4.00796156 28.65218492 1 24 C-2.0869436 26.69986604 -3.99476277 30.07535132 -6.0625 33.5625 C-9.74493243 39.74493243 -9.74493243 39.74493243 -12 42 C-14.8203125 42.1953125 -14.8203125 42.1953125 -18.125 42.125 C-19.22070312 42.10695312 -20.31640625 42.08890625 -21.4453125 42.0703125 C-22.28835937 42.04710937 -23.13140625 42.02390625 -24 42 C-23.43331287 38.40600024 -22.52298621 35.79833454 -20.62890625 32.69921875 C-20.14139893 31.89395752 -19.6538916 31.08869629 -19.15161133 30.2590332 C-18.36500122 28.98612427 -18.36500122 28.98612427 -17.5625 27.6875 C-17.02842529 26.8111792 -16.49435059 25.9348584 -15.9440918 25.03198242 C-14.30491379 22.3490948 -12.65428158 19.6735964 -11 17 C-10.49533203 16.18176758 -9.99066406 15.36353516 -9.47070312 14.52050781 C-1.3187974 1.3187974 -1.3187974 1.3187974 0 0 Z " fill="#129DF6" transform="translate(89,61)"/>
<path d="M0 0 C5.24652853 3.87243773 9.36798161 8.37307063 10.625 14.9375 C10.10416667 20.45833333 10.10416667 20.45833333 8.625 21.9375 C6.95882885 21.97813832 5.29111905 21.980221 3.625 21.9375 C5.605 24.9075 5.605 24.9075 7.625 27.9375 C6.11864535 32.15529303 3.38487578 33.7122674 -0.375 35.9375 C-6.1940608 37.87718693 -12.84172482 37.70226232 -18.6875 35.9375 C-23.26248557 32.53285958 -27.5485727 28.41678189 -29.375 22.9375 C-29.87513742 15.56047312 -28.83458142 9.9288828 -24.0625 4.125 C-16.80677067 -1.7808262 -8.95142221 -2.81804033 0 0 Z M-15.875 9.3125 C-17.54037965 11.72302327 -17.54037965 11.72302327 -17.375 13.9375 C-12.095 13.9375 -6.815 13.9375 -1.375 13.9375 C-2.28871164 9.55227667 -2.28871164 9.55227667 -5.375 6.9375 C-11.26105073 6.08184607 -11.26105073 6.08184607 -15.875 9.3125 Z M-16.375 21.9375 C-16.10465366 24.37467258 -16.10465366 24.37467258 -15.375 26.9375 C-11.62452518 29.43781654 -9.81643734 29.47353554 -5.375 28.9375 C-2.39380459 26.70773837 -2.39380459 26.70773837 -0.375 23.9375 C-0.375 23.2775 -0.375 22.6175 -0.375 21.9375 C-5.95210648 20.86954344 -10.76936958 21.11127329 -16.375 21.9375 Z " fill="#E2E1E2" transform="translate(448.375,87.0625)"/>
<path d="M0 0 C2 2 2 2 2.22705078 4.70556641 C2.21134033 6.38658447 2.21134033 6.38658447 2.1953125 8.1015625 C2.18564453 9.91914062 2.18564453 9.91914062 2.17578125 11.7734375 C2.15902344 13.04445313 2.14226562 14.31546875 2.125 15.625 C2.11597656 16.90375 2.10695313 18.1825 2.09765625 19.5 C2.07402303 22.66685167 2.04107629 25.83333424 2 29 C5.68107473 25.38217397 9.05650813 21.63786805 12.3515625 17.671875 C14.97689325 15.00921727 16.99934863 15.00001104 20.6875 14.9375 C21.780625 14.958125 22.87375 14.97875 24 15 C24.495 16.485 24.495 16.485 25 18 C23.671875 19.9375 23.671875 19.9375 21.75 22 C21.12609375 22.680625 20.5021875 23.36125 19.859375 24.0625 C18 26 18 26 16.26953125 27.55078125 C14.65616843 29.07863786 14.65616843 29.07863786 14.9375 32.1875 C16.11900963 36.42703456 17.83621266 38.58796084 20.56640625 41.93359375 C22.78963903 45.13819904 23.31967391 48.19017392 24 52 C21.3125 52.8125 21.3125 52.8125 18 53 C13.71125121 49.78343841 11.20789625 45.42586306 8.4296875 40.890625 C7.05688932 38.70454442 7.05688932 38.70454442 4 38 C3.87882812 38.91523437 3.75765625 39.83046875 3.6328125 40.7734375 C3.46523438 41.96195313 3.29765625 43.15046875 3.125 44.375 C2.96257812 45.55835938 2.80015625 46.74171875 2.6328125 47.9609375 C2 51 2 51 0 53 C-2.68839385 53.26991906 -5.29141936 53.08737357 -8 53 C-9.2107496 50.5785008 -9.13965127 49.01230155 -9.16113281 46.30664062 C-9.17074036 45.33223022 -9.1803479 44.35781982 -9.19024658 43.35388184 C-9.19449646 42.29866333 -9.19874634 41.24344482 -9.203125 40.15625 C-9.20882507 39.07621704 -9.21452515 37.99618408 -9.22039795 36.88342285 C-9.22985444 34.59693382 -9.2363845 32.31043112 -9.24023438 30.02392578 C-9.24996007 26.51440925 -9.280986 23.00547323 -9.3125 19.49609375 C-9.31902778 17.27864933 -9.32427914 15.0612007 -9.328125 12.84375 C-9.3466452 11.26092224 -9.3466452 11.26092224 -9.36553955 9.64611816 C-9.36253845 8.67170776 -9.35953735 7.69729736 -9.35644531 6.69335938 C-9.36191376 5.40335022 -9.36191376 5.40335022 -9.36749268 4.08728027 C-9.24622009 3.39847778 -9.12494751 2.70967529 -9 2 C-5.54754176 -0.30163882 -4.05261287 -0.34490322 0 0 Z " fill="#F5F5F5" transform="translate(267,71)"/>
<path d="M0 0 C3.81564299 3.92466136 4.44099458 7.71212656 4.453125 13.06640625 C4.45699219 14.70706055 4.45699219 14.70706055 4.4609375 16.38085938 C4.45320313 17.51330078 4.44546875 18.64574219 4.4375 19.8125 C4.44910156 21.51696289 4.44910156 21.51696289 4.4609375 23.25585938 C4.45835937 24.34833984 4.45578125 25.44082031 4.453125 26.56640625 C4.45086914 27.56099854 4.44861328 28.55559082 4.44628906 29.58032227 C4.18395002 32.28662176 3.5714022 33.93536516 2.1875 36.25 C-3.96484375 36.34765625 -3.96484375 36.34765625 -5.8125 36.25 C-7.61644875 34.44605125 -7.04955789 31.68322201 -7.12890625 29.24609375 C-7.17080078 28.03115234 -7.21269531 26.81621094 -7.25585938 25.56445312 C-7.29517578 24.28505859 -7.33449219 23.00566406 -7.375 21.6875 C-7.41818359 20.40423828 -7.46136719 19.12097656 -7.50585938 17.79882812 C-7.612348 14.61600147 -7.71435962 11.43309326 -7.8125 8.25 C-12.50807739 8.01251971 -12.50807739 8.01251971 -16.64453125 10.1171875 C-19.68551568 14.51154699 -19.5187475 18.14819692 -19.5 23.375 C-19.51659085 25.16936468 -19.54099405 26.96367873 -19.57421875 28.7578125 C-19.57381592 29.54816895 -19.57341309 30.33852539 -19.57299805 31.15283203 C-19.8125 33.25 -19.8125 33.25 -21.8125 36.25 C-24.5552508 36.72114738 -27.00808897 36.42805784 -29.8125 36.25 C-31.60080448 34.46169552 -30.94098711 32.05418848 -30.95144653 29.67358398 C-30.9494223 28.89442627 -30.94739807 28.11526855 -30.9453125 27.3125 C-30.94626923 26.517229 -30.94722595 25.72195801 -30.94821167 24.90258789 C-30.94889343 23.2179354 -30.94703943 21.53328029 -30.94287109 19.84863281 C-30.93752275 17.26100803 -30.94281619 14.67355684 -30.94921875 12.0859375 C-30.94855797 10.45312461 -30.9472768 8.82031184 -30.9453125 7.1875 C-30.94733673 6.40834229 -30.94936096 5.62918457 -30.95144653 4.82641602 C-30.92745105 -0.63504895 -30.92745105 -0.63504895 -29.8125 -1.75 C-26.52930956 -1.87627656 -23.57023812 -1.94429183 -20.375 -1.125 C-17.71183303 -0.73526825 -16.47538383 -1.01932327 -13.9375 -1.75 C-8.71027318 -3.18724127 -4.68555348 -2.9154555 0 0 Z " fill="#F5F5F5" transform="translate(247.8125,87.75)"/>
<path d="M0 0 C1 1 1 1 1.11352539 4.78540039 C1.11336622 6.47282729 1.10766917 8.16025905 1.09765625 9.84765625 C1.0962413 10.7340831 1.09482635 11.62050995 1.09336853 12.53379822 C1.08775215 15.37673254 1.07519691 18.21958931 1.0625 21.0625 C1.05748711 22.98502491 1.05292384 24.90755104 1.04882812 26.83007812 C1.03777741 31.55341549 1.02050183 36.27669458 1 41 C2.31355469 40.90460938 3.62710938 40.80921875 4.98046875 40.7109375 C6.71610684 40.59835557 8.45178628 40.48640978 10.1875 40.375 C11.05181641 40.31054688 11.91613281 40.24609375 12.80664062 40.1796875 C21.08665396 39.67210048 21.08665396 39.67210048 25 42 C26.4375 44.4375 26.4375 44.4375 27 47 C25 50 25 50 22.30810547 50.69506836 C18.84528001 51.01426164 15.54491979 51.01727557 12.0703125 50.87890625 C10.78125 50.83056641 9.4921875 50.78222656 8.1640625 50.73242188 C6.81770275 50.67591408 5.47134864 50.61927179 4.125 50.5625 C2.75522999 50.50920597 1.3854383 50.45646622 0.015625 50.40429688 C-3.32317023 50.27497734 -6.66163941 50.14002445 -10 50 C-10.83642977 47.0955669 -11.11238471 44.5565469 -11.06933594 41.53857422 C-11.05892273 40.66441864 -11.04850952 39.79026306 -11.03778076 38.88961792 C-11.02015686 37.95409088 -11.00253296 37.01856384 -10.984375 36.0546875 C-10.96787903 35.08846466 -10.95138306 34.12224182 -10.93438721 33.1267395 C-10.89694024 31.08752777 -10.85640062 29.0483708 -10.81298828 27.00927734 C-10.75009942 23.87994707 -10.70876723 20.75077986 -10.66796875 17.62109375 C-10.62893336 15.64059836 -10.58861289 13.66012778 -10.546875 11.6796875 C-10.53734802 10.740112 -10.52782104 9.8005365 -10.51800537 8.83248901 C-10.49498352 7.96463776 -10.47196167 7.0967865 -10.44824219 6.20263672 C-10.42706329 5.05491287 -10.42706329 5.05491287 -10.40545654 3.88400269 C-9.31311407 -1.19169825 -4.05893764 -0.22549654 0 0 Z " fill="#F5F5F5" transform="translate(170,73)"/>
<path d="M0 0 C2.25 1.75 2.25 1.75 3.3125 3.6875 C3.22819367 6.46960897 1.9525862 7.6206559 0.25 9.75 C-0.58144531 9.5334375 -1.41289062 9.316875 -2.26953125 9.09375 C-3.35621094 8.8153125 -4.44289063 8.536875 -5.5625 8.25 C-6.64144531 7.9715625 -7.72039062 7.693125 -8.83203125 7.40625 C-11.73933975 6.64029052 -11.73933975 6.64029052 -14.75 6.75 C-14.42 8.4 -14.09 10.05 -13.75 11.75 C-12.55503906 12.11351563 -12.55503906 12.11351563 -11.3359375 12.484375 C-0.47340426 15.92021277 -0.47340426 15.92021277 4.25 19.75 C6.01376342 23.27752684 5.30703449 27.04076988 4.25 30.75 C1.82718557 33.85673201 -1.01227048 35.50409016 -4.75 36.75 C-12.08159101 37.42151209 -19.66074502 37.43626749 -25.75 32.75 C-26.578125 30.75 -26.578125 30.75 -26.75 28.75 C-25.3125 26.5 -25.3125 26.5 -23.75 24.75 C-20.37537285 25.29723683 -18.66765 25.8049 -15.75 27.75 C-13.46351152 27.99107326 -13.46351152 27.99107326 -11.0625 27.875 C-10.25425781 27.85695313 -9.44601562 27.83890625 -8.61328125 27.8203125 C-7.99839844 27.79710938 -7.38351562 27.77390625 -6.75 27.75 C-6.42 26.43 -6.09 25.11 -5.75 23.75 C-6.45125 23.57984375 -7.1525 23.4096875 -7.875 23.234375 C-13.96222344 21.6794864 -19.29208491 19.88324755 -24.75 16.75 C-26.3492715 13.551457 -26.11127908 10.22898371 -25.75 6.75 C-24.4355912 3.46397801 -23.17770592 2.07640715 -20.375 -0.0625 C-13.69988226 -2.2491765 -6.65871335 -2.21957112 0 0 Z " fill="#E1E1E1" transform="translate(411.75,87.25)"/>
<path d="M0 0 C3.5 0.25 3.5 0.25 5.5 2.25 C5.73046875 4.2734375 5.73046875 4.2734375 5.6875 6.625 C5.67783203 7.78128906 5.67783203 7.78128906 5.66796875 8.9609375 C5.5 11.25 5.5 11.25 4.92578125 13.4765625 C4.78527344 14.06179687 4.64476562 14.64703125 4.5 15.25 C4.83 15.58 5.16 15.91 5.5 16.25 C5.61332093 18.82019485 5.66417485 21.36251477 5.66796875 23.93359375 C5.67129715 24.70429703 5.67462555 25.47500031 5.67805481 26.26905823 C5.6831271 27.90242921 5.68546304 29.5358106 5.68530273 31.16918945 C5.6874878 33.67351299 5.70563595 36.17739521 5.72460938 38.68164062 C5.72754347 40.26562349 5.72952816 41.84960845 5.73046875 43.43359375 C5.73765427 44.1857164 5.74483978 44.93783905 5.75224304 45.7127533 C5.72882279 51.02117721 5.72882279 51.02117721 3.5 53.25 C-0.55261287 53.59490322 -2.04754176 53.55163882 -5.5 51.25 C-5.77996774 48.68254244 -5.87227696 46.35945423 -5.828125 43.79296875 C-5.82625183 43.05299149 -5.82437866 42.31301422 -5.82244873 41.5506134 C-5.81572046 39.98283393 -5.80179053 38.41507146 -5.78125 36.84741211 C-5.75025752 34.45735926 -5.74029447 32.06796775 -5.734375 29.67773438 C-5.72519774 28.15363787 -5.71481968 26.62954802 -5.703125 25.10546875 C-5.69887512 24.39384079 -5.69462524 23.68221283 -5.69024658 22.94902039 C-5.64868208 20.03368891 -5.51176401 17.30733706 -4.92480469 14.4465332 C-4.28201217 12.08627985 -4.28201217 12.08627985 -5.5 9.25 C-5.6875 5.6875 -5.6875 5.6875 -5.5 2.25 C-3.5 0.25 -3.5 0.25 0 0 Z " fill="#F5F5F5" transform="translate(204.5,70.75)"/>
<path d="M0 0 C3.3 0 6.6 0 10 0 C11.03713245 4.45966953 10.95103969 6.86838654 9 11 C8.8630446 13.09412282 8.8630446 13.09412282 9.98120117 15.17724609 C11.85725663 20.37517401 11.33249259 25.98532627 11.31567383 31.45703125 C11.31249926 33.6255046 11.33605248 35.7926311 11.36132812 37.9609375 C11.36359995 39.34114412 11.36430516 40.72135439 11.36328125 42.1015625 C11.36626221 43.35275879 11.36924316 44.60395508 11.37231445 45.89306641 C11 49 11 49 9.97729492 50.93115234 C6.73137518 52.68576854 3.64479377 52.17925215 0 52 C-0.24241617 47.1078435 -0.45726023 42.21552913 -0.64697266 37.32104492 C-0.71530327 35.65730778 -0.79107301 33.99385845 -0.87451172 32.33081055 C-0.99336929 29.93575887 -1.08515768 27.54093581 -1.171875 25.14453125 C-1.23565338 24.03486748 -1.23565338 24.03486748 -1.30072021 22.90278625 C-1.41155724 19.08322054 -1.13952281 17.20879294 1.01074219 13.9909668 C1.66719727 13.33394775 2.32365234 12.67692871 3 12 C2.01 11.34 1.02 10.68 0 10 C-1.03221487 6.04317633 -1.00901206 4.03604824 0 0 Z " fill="#E4E3E3" transform="translate(370,72)"/>
<path d="M0 0 C3.78517206 0.25662183 5.01775858 0.68704824 7.6875 3.25 C8.38875 2.755 9.09 2.26 9.8125 1.75 C13.05869719 0.0563319 15.08090156 -0.00162315 18.6875 0.25 C19.79953037 3.5860911 19.81305484 5.90474631 18.6875 9.25 C16.4375 10.578125 16.4375 10.578125 13.6875 11.5 C10.42400291 12.4334353 10.42400291 12.4334353 7.6875 14.25 C7.55471422 15.77507546 7.48420935 17.30569075 7.44140625 18.8359375 C7.40853516 19.76664063 7.37566406 20.69734375 7.34179688 21.65625 C7.28084392 23.62749436 7.22352252 25.59885452 7.16992188 27.5703125 C7.13576172 28.50359375 7.10160156 29.436875 7.06640625 30.3984375 C7.0413501 31.25614746 7.01629395 32.11385742 6.99047852 32.99755859 C6.6875 35.25 6.6875 35.25 4.6875 38.25 C-1.4375 38.6875 -1.4375 38.6875 -4.3125 37.25 C-4.3371501 32.14136104 -4.35533607 27.03275641 -4.36743164 21.92407227 C-4.37247204 20.18480832 -4.3793043 18.44554864 -4.38793945 16.70629883 C-4.40001792 14.21174063 -4.40573108 11.71723827 -4.41015625 9.22265625 C-4.41531754 8.44036148 -4.42047882 7.65806671 -4.42579651 6.85206604 C-4.42599226 4.98432886 -4.37449694 3.11670796 -4.3125 1.25 C-3.3125 0.25 -3.3125 0.25 0 0 Z " fill="#E2E1E1" transform="translate(347.3125,85.75)"/>
<path d="M0 0 C0.66 1.32 1.32 2.64 2 4 C2.66 4 3.32 4 4 4 C4 4.66 4 5.32 4 6 C4.763125 5.505 5.52625 5.01 6.3125 4.5 C9 3 9 3 12 3 C10.4832481 7.21056646 8.36240217 10.90851247 6 14.6875 C5.64421875 15.26822266 5.2884375 15.84894531 4.921875 16.44726562 C3.42336792 18.8655653 2.01875431 20.98124569 0 23 C-2.8203125 23.1953125 -2.8203125 23.1953125 -6.125 23.125 C-7.22070312 23.10695313 -8.31640625 23.08890625 -9.4453125 23.0703125 C-10.28835937 23.04710938 -11.13140625 23.02390625 -12 23 C-11.43200205 19.32355553 -10.46584368 16.72129048 -8.49609375 13.57421875 C-8.00302734 12.77822266 -7.50996094 11.98222656 -7.00195312 11.16210938 C-6.22754883 9.93717773 -6.22754883 9.93717773 -5.4375 8.6875 C-4.91736328 7.85154297 -4.39722656 7.01558594 -3.86132812 6.15429688 C-2.58089645 4.09855795 -1.2936642 2.04742777 0 0 Z " fill="#1598F7" transform="translate(77,80)"/>
<path d="M0 0 C6.72726719 6.51571791 8.62982417 11.80113055 9 21 C5.76450571 23.15699619 4.75653704 23.62801003 1 23 C-0.984375 20.91796875 -0.984375 20.91796875 -2.75 18.1875 C-3.34296875 17.29417969 -3.9359375 16.40085937 -4.546875 15.48046875 C-6 13 -6 13 -7 10 C-5.56640625 7.51953125 -5.56640625 7.51953125 -3.5625 4.8125 C-2.90378906 3.91144531 -2.24507813 3.01039062 -1.56640625 2.08203125 C-1.04949219 1.39496094 -0.53257813 0.70789063 0 0 Z " fill="#FA8073" transform="translate(89,99)"/>
<path d="M0 0 C3.06114675 3.68854395 5.70779387 7.49967798 8.25 11.5625 C8.95640625 12.67753906 9.6628125 13.79257813 10.390625 14.94140625 C12 18 12 18 12 22 C-0.21 22 -12.42 22 -25 22 C-25 21.67 -25 21.34 -25 21 C-17.96094956 20.06145994 -11.09727428 19.89191968 -4 20 C-4.495 17.525 -4.495 17.525 -5 15 C-4.34 15 -3.68 15 -3 15 C-2.67 14.34 -2.34 13.68 -2 13 C-2 14.65 -2 16.3 -2 18 C-1.67 17.67 -1.34 17.34 -1 17 C-0.34 16.34 0.32 15.68 1 15 C1.27030875 11.89144941 1.3821288 9.74177943 -0.0625 6.9375 C-1.32763276 4.3228923 -0.7591193 2.73282949 0 0 Z " fill="#F6B167" transform="translate(101,119)"/>
<path d="M0 0 C0.75 1.5625 0.75 1.5625 1 4 C-0.32 6.31 -1.64 8.62 -3 11 C10.53 10.67 24.06 10.34 38 10 C39.39770584 7.74691447 39.39770584 7.74691447 38 4 C27.11 3.505 27.11 3.505 16 3 C16 2.67 16 2.34 16 2 C36.85516798 0.35845735 36.85516798 0.35845735 41.86328125 4.19140625 C43.44588821 6.95213253 45 9.72801625 45 13 C27.84 13 10.68 13 -7 13 C-5.02 9.37 -3.04 5.74 -1 2 C-0.67 1.34 -0.34 0.68 0 0 Z " fill="#9262DD" transform="translate(36,108)"/>
<path d="M0 0 C0.2475 0.61875 0.495 1.2375 0.75 1.875 C2.20628639 4.35068687 3.37812506 4.95125002 6 6 C6 6.66 6 7.32 6 8 C6.99 8.33 7.98 8.66 9 9 C9.984375 10.7421875 9.984375 10.7421875 10.75 12.875 C11.01296875 13.57367188 11.2759375 14.27234375 11.546875 14.9921875 C12 17 12 17 11 20 C6.25 19.125 6.25 19.125 4 18 C4 17.34 4 16.68 4 16 C3.34 16 2.68 16 2 16 C2 14.68 2 13.36 2 12 C0.68 11.34 -0.64 10.68 -2 10 C-1.67 8.35 -1.34 6.7 -1 5 C-1.99 5.33 -2.98 5.66 -4 6 C-4 5.34 -4 4.68 -4 4 C-4.66 3.67 -5.32 3.34 -6 3 C-5.01 2.67 -4.02 2.34 -3 2 C-2.67 2.33 -2.34 2.66 -2 3 C-1.34 2.01 -0.68 1.02 0 0 Z " fill="#109EFB" transform="translate(121,119)"/>
<path d="M0 0 C0.66 0 1.32 0 2 0 C2.226875 0.804375 2.45375 1.60875 2.6875 2.4375 C3.120625 3.283125 3.55375 4.12875 4 5 C6.54775306 5.89386164 6.54775306 5.89386164 9 6 C9 7.65 9 9.3 9 11 C10.32 11.66 11.64 12.32 13 13 C12.67 14.32 12.34 15.64 12 17 C12.66 17 13.32 17 14 17 C14 17.66 14 18.32 14 19 C16.31 19.66 18.62 20.32 21 21 C20.855625 20.29875 20.71125 19.5975 20.5625 18.875 C19.98521625 15.92443859 19.48304859 12.96729849 19 10 C26 18.44827586 26 18.44827586 26 22 C21.26361238 23.2611683 16.54624555 24.19655202 12 22 C7.29018197 17.06031287 0 7.05809761 0 0 Z " fill="#1D9CEC" transform="translate(111,118)"/>
<path d="M0 0 C2.0625 2.0625 2.0625 2.0625 4 5 C3.75 8.8125 3.75 8.8125 3 12 C3.66 12.33 4.32 12.66 5 13 C4.34 14.32 3.68 15.64 3 17 C2.34 16.67 1.68 16.34 1 16 C1 15.34 1 14.68 1 14 C-0.65 14.66 -2.3 15.32 -4 16 C-4.99 14.02 -5.98 12.04 -7 10 C-6.21625 9.87625 -5.4325 9.7525 -4.625 9.625 C-1.85942178 9.20882007 -1.85942178 9.20882007 0 7 C0.16677282 3.41656024 0.16677282 3.41656024 0 0 Z " fill="#F69371" transform="translate(97,112)"/>
<path d="M0 0 C0.86625 0.185625 1.7325 0.37125 2.625 0.5625 C2.295 2.5425 1.965 4.5225 1.625 6.5625 C0.965 6.5625 0.305 6.5625 -0.375 6.5625 C-0.375 7.2225 -0.375 7.8825 -0.375 8.5625 C-1.695 8.5625 -3.015 8.5625 -4.375 8.5625 C-4.375 9.5525 -4.375 10.5425 -4.375 11.5625 C-3.715 11.8925 -3.055 12.2225 -2.375 12.5625 C-4.685 12.5625 -6.995 12.5625 -9.375 12.5625 C-9.375 6.88814662 -5.67919543 0.94653257 0 0 Z " fill="#F0778B" transform="translate(28.375,127.4375)"/>
<path d="M0 0 C2 1 2 1 2 1 Z M-1 1 C1 4.75 1 4.75 1 7 C1.66 7.33 2.32 7.66 3 8 C3.625 10.0625 3.625 10.0625 4 12 C-1.75 15 -1.75 15 -4 15 C-4 14.34 -4 13.68 -4 13 C-4.66 13 -5.32 13 -6 13 C-6.33 11.68 -6.66 10.36 -7 9 C-6.01 9 -5.02 9 -4 9 C-3.87625 8.236875 -3.7525 7.47375 -3.625 6.6875 C-3 4 -3 4 -1 1 Z " fill="#119CFC" transform="translate(85,71)"/>
<path d="M0 0 C0.66 1.32 1.32 2.64 2 4 C2.99 3.67 3.98 3.34 5 3 C6.0625 4.875 6.0625 4.875 7 7 C6.67 7.66 6.34 8.32 6 9 C3.36 9 0.72 9 -2 9 C-2 8.34 -2 7.68 -2 7 C-2.66 7 -3.32 7 -4 7 C-4 5.68 -4 4.36 -4 3 C-2 1.25 -2 1.25 0 0 Z " fill="#9957FC" transform="translate(71,55)"/>
<path d="M0 0 C4.07229836 3.41547604 4.03526416 4.21158499 5 10 C0.05 9.67 -4.9 9.34 -10 9 C-10 8.67 -10 8.34 -10 8 C-6.7 8 -3.4 8 0 8 C0 5.36 0 2.72 0 0 Z " fill="#EFBD73" transform="translate(108,131)"/>
<path d="M0 0 C7 8.44827586 7 8.44827586 7 12 C2.38 12 -2.24 12 -7 12 C-7 11.67 -7 11.34 -7 11 C-4.03 11 -1.06 11 2 11 C1.855625 10.29875 1.71125 9.5975 1.5625 8.875 C0.98521625 5.92443859 0.48304859 2.96729849 0 0 Z " fill="#329CDF" transform="translate(130,128)"/>
<path d="M0 0 C3.67758005 3.28355362 5.81389118 6.62778237 8 11 C7.67 11.66 7.34 12.32 7 13 C6.67 12.01 6.34 11.02 6 10 C2.10540926 9.78918149 2.10540926 9.78918149 -1 11 C-1 10.34 -1 9.68 -1 9 C-0.34 9 0.32 9 1 9 C1 8.34 1 7.68 1 7 C1.66 7 2.32 7 3 7 C2.67 6.34 2.34 5.68 2 5 C-0.02463255 4.34786708 -0.02463255 4.34786708 -2 4 C-1.34 2.68 -0.68 1.36 0 0 Z " fill="#E98484" transform="translate(89,99)"/>
<path d="M0 0 C1.125 3.75 1.125 3.75 0 6 C-0.66 6 -1.32 6 -2 6 C-2 6.99 -2 7.98 -2 9 C-2.66 9 -3.32 9 -4 9 C-4 10.32 -4 11.64 -4 13 C-4.99 13.66 -5.98 14.32 -7 15 C-7.33 15.99 -7.66 16.98 -8 18 C-8.66 18 -9.32 18 -10 18 C-8.47146065 13.72813475 -6.28490519 10.00673137 -3.875 6.1875 C-3.50246094 5.59001953 -3.12992187 4.99253906 -2.74609375 4.37695312 C-1.8342952 2.91573749 -0.91764024 1.45755415 0 0 Z " fill="#288EDD" transform="translate(77,80)"/>
<path d="M0 0 C2 0 2 0 3.625 1.375 C5 3 5 3 5 5 C6.32 4.67 7.64 4.34 9 4 C8.67 6.97 8.34 9.94 8 13 C5.20557081 10.20557081 3.98752868 8.2983705 2.3125 4.8125 C1.65701172 3.46091797 1.65701172 3.46091797 0.98828125 2.08203125 C0.66214844 1.39496094 0.33601563 0.70789063 0 0 Z " fill="#1F94E4" transform="translate(93,88)"/>
<path d="M0 0 C0.66 1.32 1.32 2.64 2 4 C-0.64 6.97 -3.28 9.94 -6 13 C-6 9.32965255 -4.9247108 7.9000569 -3 4.8125 C-2.443125 3.91144531 -1.88625 3.01039062 -1.3125 2.08203125 C-0.6628125 1.05142578 -0.6628125 1.05142578 0 0 Z " fill="#8B5CE0" transform="translate(44,95)"/>
<path d="M0 0 C0.33 0.99 0.66 1.98 1 3 C4.63 3 8.26 3 12 3 C11.67 3.66 11.34 4.32 11 5 C7.04 5 3.08 5 -1 5 C-0.67 3.35 -0.34 1.7 0 0 Z " fill="#348AD7" transform="translate(66,98)"/>
<path d="M0 0 C2.50037734 2.17424117 3.43628586 3.73045798 4 7 C3.01 6.67 2.02 6.34 1 6 C-1.63804589 6.39397335 -1.63804589 6.39397335 -4 7 C-1.125 1.125 -1.125 1.125 0 0 Z " fill="#865AD9" transform="translate(77,41)"/>
<path d="M0 0 C1.65 0.33 3.3 0.66 5 1 C5 1.66 5 2.32 5 3 C4.34 3 3.68 3 3 3 C3 3.66 3 4.32 3 5 C2.34 5 1.68 5 1 5 C0.67 6.32 0.34 7.64 0 9 C-0.66 7.35 -1.32 5.7 -2 4 C-1.34 3.34 -0.68 2.68 0 2 C0 1.34 0 0.68 0 0 Z " fill="#FB7174" transform="translate(87,103)"/>
<path d="M0 0 C-0.33 2.31 -0.66 4.62 -1 7 C-0.34 7 0.32 7 1 7 C0.67 8.32 0.34 9.64 0 11 C-0.83878455 9.71186658 -1.67086783 8.41936744 -2.5 7.125 C-2.9640625 6.40570313 -3.428125 5.68640625 -3.90625 4.9453125 C-5 3 -5 3 -5 1 C-2 0 -2 0 0 0 Z " fill="#2094E1" transform="translate(106,100)"/>
<path d="M0 0 C0.66 0.99 1.32 1.98 2 3 C1.34 3.66 0.68 4.32 0 5 C0.32198966 8.09926819 0.32198966 8.09926819 1 11 C-0.9375 10.1875 -0.9375 10.1875 -3 9 C-3.33 8.01 -3.66 7.02 -4 6 C-2.0625 2.8125 -2.0625 2.8125 0 0 Z " fill="#EB7A8A" transform="translate(86,103)"/>
<path d="M0 0 C2.94721162 2.74395564 5.19168608 5.38337216 7 9 C6.67 9.66 6.34 10.32 6 11 C4.68 11 3.36 11 2 11 C2.04125 10.29875 2.0825 9.5975 2.125 8.875 C1.98331668 5.61628372 1.13265314 3.0440053 0 0 Z " fill="#2195E3" transform="translate(100,79)"/>
<path d="M0 0 C0.99 0.33 1.98 0.66 3 1 C3 2.98 3 4.96 3 7 C1.02 7 -0.96 7 -3 7 C-3 6.01 -3 5.02 -3 4 C-1.68 4 -0.36 4 1 4 C0.67 2.68 0.34 1.36 0 0 Z " fill="#FCB061" transform="translate(105,132)"/>
<path d="M0 0 C0.88336837 2.4667645 1.1312406 3.63859372 0.22265625 6.140625 C-0.16019531 6.83671875 -0.54304688 7.5328125 -0.9375 8.25 C-1.31777344 8.95640625 -1.69804688 9.6628125 -2.08984375 10.390625 C-2.39019531 10.92171875 -2.69054687 11.4528125 -3 12 C-3.99 12 -4.98 12 -6 12 C-4.43358249 7.69235185 -2.31663844 3.93828536 0 0 Z " fill="#2992DB" transform="translate(84,68)"/>
<path d="M0 0 C3.08089673 2.77280706 4.68775452 5.06326356 6 9 C4.68 8.67 3.36 8.34 2 8 C2 6.35 2 4.7 2 3 C1.54625 3.495 1.0925 3.99 0.625 4.5 C-1 6 -1 6 -3 6 C-1.125 1.125 -1.125 1.125 0 0 Z " fill="#3295D5" transform="translate(89,61)"/>
<path d="M0 0 C0.94875 0.04125 1.8975 0.0825 2.875 0.125 C2.875 0.455 2.875 0.785 2.875 1.125 C0.895 1.785 -1.085 2.445 -3.125 3.125 C-2.795 4.445 -2.465 5.765 -2.125 7.125 C-3.445 7.455 -4.765 7.785 -6.125 8.125 C-5.09178322 0.20367133 -5.09178322 0.20367133 0 0 Z " fill="#DE7180" transform="translate(28.125,127.875)"/>
<path d="M0 0 C2.125 0.375 2.125 0.375 4 1 C4 2.32 4 3.64 4 5 C3.34 5 2.68 5 2 5 C1.67 5.66 1.34 6.32 1 7 C0.87625 6.360625 0.7525 5.72125 0.625 5.0625 C0.315625 4.0415625 0.315625 4.0415625 0 3 C-0.66 2.67 -1.32 2.34 -2 2 C-1.34 1.34 -0.68 0.68 0 0 Z " fill="#FB6782" transform="translate(26,129)"/>
<path d="M0 0 C0.66 0 1.32 0 2 0 C2.66 1.65 3.32 3.3 4 5 C4.66 5 5.32 5 6 5 C6.33 7.31 6.66 9.62 7 12 C0 3.55172414 0 3.55172414 0 0 Z " fill="#2D91D6" transform="translate(111,118)"/>
<path d="M0 0 C0.66 0.66 1.32 1.32 2 2 C1.625 4.125 1.625 4.125 1 6 C0.34 5.34 -0.32 4.68 -1 4 C-0.625 1.875 -0.625 1.875 0 0 Z M-2 5 C-1.34 5.33 -0.68 5.66 0 6 C0 6.99 0 7.98 0 9 C-1.32 9 -2.64 9 -4 9 C-3.34 7.68 -2.68 6.36 -2 5 Z " fill="#F4AF70" transform="translate(106,127)"/>
<path d="M0 0 C1.65 0 3.3 0 5 0 C5 1.65 5 3.3 5 5 C4.01 5 3.02 5 2 5 C1.34 3.35 0.68 1.7 0 0 Z " fill="#EF927D" transform="translate(90,122)"/>
<path d="M0 0 C-1.07401108 2.91517292 -1.77810176 4.77810176 -4 7 C-4 5.68 -4 4.36 -4 3 C-4.66 2.67 -5.32 2.34 -6 2 C-3 0 -3 0 0 0 Z " fill="#2194E6" transform="translate(89,83)"/>
<path d="M0 0 C3.75376152 1.25125384 4.24073289 2.5652404 6 6 C6 6.66 6 7.32 6 8 C5.01 8 4.02 8 3 8 C2.01 5.36 1.02 2.72 0 0 Z " fill="#8F63DA" transform="translate(73,110)"/>
<path d="M0 0 C1.32 0 2.64 0 4 0 C4.33 0.99 4.66 1.98 5 3 C3.125 4.0625 3.125 4.0625 1 5 C0.34 4.67 -0.32 4.34 -1 4 C-0.67 2.68 -0.34 1.36 0 0 Z " fill="#F0E8EF" transform="translate(448,109)"/>
<path d="M0 0 C1 2 1 2 0.25 4.5625 C-1 7 -1 7 -4 8 C-2.25 2.25 -2.25 2.25 0 0 Z " fill="#8B59DC" transform="translate(63,64)"/>
</svg>
